STARTFONT 2.2
FONT -FontForge-SimSun-Book-R-Normal--16-150-75-75-P-159-ISO10646-1
SIZE 15 75 75
FONTBOUNDINGBOX 15 16 0 -2
METRICSSET 2
SWIDTH 1000 0
DWIDTH 16 0
SWIDTH1 1000 0
DWIDTH1 16 0
VVECTOR 8,13
COMMENT "Generated by fontforge, http://fontforge.sourceforge.net"
COMMENT "(c) Copyright ZHONGYI Electronic Co. 2001"
STARTPROPERTIES 37
FOUNDRY "FontForge"
FAMILY_NAME "SimSun"
WEIGHT_NAME "Book"
SLANT "R"
SETWIDTH_NAME "Normal"
ADD_STYLE_NAME ""
PIXEL_SIZE 16
POINT_SIZE 150
RESOLUTION_X 75
RESOLUTION_Y 75
SPACING "P"
AVERAGE_WIDTH 159
CHARSET_REGISTRY "ISO10646"
CHARSET_ENCODING "1"
FONTNAME_REGISTRY ""
CHARSET_COLLECTIONS "ASCII ISOLatin1Encoding ISO8859-5 JISX0208.1997 GB2312.1980 BIG5 ISO10646-1"
FONT_NAME "SimSun"
FACE_NAME "SimSun"
COPYRIGHT "(c) Copyright ZHONGYI Electronic Co. 2001"
FONT_VERSION "5.13"
FONT_ASCENT 13
FONT_DESCENT 3
UNDERLINE_POSITION -2
UNDERLINE_THICKNESS 1
RAW_ASCENT 859
RAW_DESCENT 140
RELATIVE_WEIGHT 40
RELATIVE_SETWIDTH 50
SUPERSCRIPT_X 0
SUPERSCRIPT_Y 8
SUPERSCRIPT_SIZE 8
SUBSCRIPT_X 0
SUBSCRIPT_Y 1
SUBSCRIPT_SIZE 8
FIGURE_WIDTH -1
AVG_LOWERCASE_WIDTH 138
AVG_UPPERCASE_WIDTH 160
ENDPROPERTIES
CHARS 28428
STARTCHAR currency
ENCODING 164
BBX 14 14 1 -1
BITMAP
8004
4008
2FD0
1020
2010
2010
2010
2010
2010
2010
1020
2FD0
4008
8004
ENDCHAR
STARTCHAR section
ENCODING 167
BBX 6 16 4 -2
BITMAP
38
44
44
40
20
50
90
88
88
48
50
20
10
08
88
70
ENDCHAR
STARTCHAR dieresis
ENCODING 168
BBX 7 2 4 9
BITMAP
C6
C6
ENDCHAR
STARTCHAR degree
ENCODING 176
BBX 4 4 2 9
BITMAP
60
90
90
60
ENDCHAR
STARTCHAR plusminus
ENCODING 177
BBX 9 11 3 1
BITMAP
0800
0800
0800
0800
FF80
0800
0800
0800
0800
0000
FF80
ENDCHAR
STARTCHAR periodcentered
ENCODING 183
BBX 2 2 7 4
BITMAP
C0
C0
ENDCHAR
STARTCHAR multiply
ENCODING 215
BBX 9 9 3 2
BITMAP
8080
4100
2200
1400
0800
1400
2200
4100
8080
ENDCHAR
STARTCHAR agrave
ENCODING 224
SWIDTH 500 0
DWIDTH 8 0
BBX 7 12 0 2
BITMAP
40
20
10
00
00
74
8C
84
84
84
8C
76
ENDCHAR
STARTCHAR aacute
ENCODING 225
SWIDTH 500 0
DWIDTH 8 0
BBX 7 12 0 2
BITMAP
08
10
20
00
00
74
8C
84
84
84
8C
76
ENDCHAR
STARTCHAR egrave
ENCODING 232
SWIDTH 500 0
DWIDTH 8 0
BBX 7 12 0 2
BITMAP
40
20
10
00
00
38
44
82
FE
80
42
3C
ENDCHAR
STARTCHAR eacute
ENCODING 233
SWIDTH 500 0
DWIDTH 8 0
BBX 7 12 0 2
BITMAP
08
10
20
00
00
38
44
82
FE
80
42
3C
ENDCHAR
STARTCHAR ecircumflex
ENCODING 234
SWIDTH 500 0
DWIDTH 8 0
BBX 7 12 0 2
BITMAP
10
28
44
00
00
38
44
82
FE
80
42
3C
ENDCHAR
STARTCHAR igrave
ENCODING 236
SWIDTH 500 0
DWIDTH 8 0
BBX 3 12 2 2
BITMAP
80
40
20
00
00
40
40
40
40
40
40
40
ENDCHAR
STARTCHAR iacute
ENCODING 237
SWIDTH 500 0
DWIDTH 8 0
BBX 3 12 2 2
BITMAP
20
40
80
00
00
40
40
40
40
40
40
40
ENDCHAR
STARTCHAR ograve
ENCODING 242
SWIDTH 500 0
DWIDTH 8 0
BBX 7 12 0 2
BITMAP
20
10
08
00
00
38
44
82
82
82
44
38
ENDCHAR
STARTCHAR oacute
ENCODING 243
SWIDTH 500 0
DWIDTH 8 0
BBX 7 12 0 2
BITMAP
08
10
20
00
00
38
44
82
82
82
44
38
ENDCHAR
STARTCHAR divide
ENCODING 247
BBX 10 9 2 2
BITMAP
0C00
0C00
0000
0000
FFC0
0000
0000
0C00
0C00
ENDCHAR
STARTCHAR ugrave
ENCODING 249
SWIDTH 500 0
DWIDTH 8 0
BBX 7 12 0 2
BITMAP
20
10
08
00
00
84
84
84
84
84
8C
76
ENDCHAR
STARTCHAR uacute
ENCODING 250
SWIDTH 500 0
DWIDTH 8 0
BBX 7 12 0 2
BITMAP
08
10
20
00
00
84
84
84
84
84
8C
76
ENDCHAR
STARTCHAR udieresis
ENCODING 252
SWIDTH 500 0
DWIDTH 8 0
BBX 7 8 0 2
BITMAP
48
00
84
84
84
84
8C
76
ENDCHAR
STARTCHAR amacron
ENCODING 257
SWIDTH 500 0
DWIDTH 8 0
BBX 7 10 0 2
BITMAP
FC
00
00
74
8C
84
84
84
8C
76
ENDCHAR
STARTCHAR emacron
ENCODING 275
SWIDTH 500 0
DWIDTH 8 0
BBX 7 10 0 2
BITMAP
FC
00
00
38
44
82
FE
80
42
3C
ENDCHAR
STARTCHAR ecaron
ENCODING 283
SWIDTH 500 0
DWIDTH 8 0
BBX 7 12 0 2
BITMAP
44
28
10
00
00
38
44
82
FE
80
42
3C
ENDCHAR
STARTCHAR imacron
ENCODING 299
SWIDTH 500 0
DWIDTH 8 0
BBX 3 10 2 2
BITMAP
E0
00
00
40
40
40
40
40
40
40
ENDCHAR
STARTCHAR nacute
ENCODING 324
SWIDTH 500 0
DWIDTH 8 0
BBX 6 12 0 2
BITMAP
08
10
20
00
00
B8
C4
84
84
84
84
84
ENDCHAR
STARTCHAR ncaron
ENCODING 328
SWIDTH 500 0
DWIDTH 8 0
BBX 6 12 0 2
BITMAP
44
28
10
00
00
B8
C4
84
84
84
84
84
ENDCHAR
STARTCHAR omacron
ENCODING 333
SWIDTH 500 0
DWIDTH 8 0
BBX 7 10 0 2
BITMAP
FC
00
00
38
44
82
82
82
44
38
ENDCHAR
STARTCHAR umacron
ENCODING 363
SWIDTH 500 0
DWIDTH 8 0
BBX 7 10 0 2
BITMAP
FC
00
00
84
84
84
84
84
8C
76
ENDCHAR
STARTCHAR uni01CE
ENCODING 462
SWIDTH 500 0
DWIDTH 8 0
BBX 7 12 0 2
BITMAP
44
28
10
00
00
74
8C
84
84
84
8C
76
ENDCHAR
STARTCHAR uni01D0
ENCODING 464
SWIDTH 500 0
DWIDTH 8 0
BBX 5 12 1 2
BITMAP
88
50
20
00
00
20
20
20
20
20
20
20
ENDCHAR
STARTCHAR uni01D2
ENCODING 466
SWIDTH 500 0
DWIDTH 8 0
BBX 7 12 0 2
BITMAP
44
28
10
00
00
38
44
82
82
82
44
38
ENDCHAR
STARTCHAR uni01D4
ENCODING 468
SWIDTH 500 0
DWIDTH 8 0
BBX 7 12 0 2
BITMAP
44
28
10
00
00
84
84
84
84
84
8C
76
ENDCHAR
STARTCHAR uni01D6
ENCODING 470
SWIDTH 500 0
DWIDTH 8 0
BBX 7 10 0 2
BITMAP
FC
00
48
00
84
84
84
84
8C
76
ENDCHAR
STARTCHAR uni01D8
ENCODING 472
SWIDTH 500 0
DWIDTH 8 0
BBX 7 12 0 2
BITMAP
10
20
40
00
48
00
84
84
84
84
8C
76
ENDCHAR
STARTCHAR uni01DA
ENCODING 474
SWIDTH 500 0
DWIDTH 8 0
BBX 7 12 0 2
BITMAP
88
50
20
00
48
00
84
84
84
84
8C
76
ENDCHAR
STARTCHAR uni01DC
ENCODING 476
SWIDTH 500 0
DWIDTH 8 0
BBX 7 12 0 2
BITMAP
40
20
10
00
48
00
84
84
84
84
8C
76
ENDCHAR
STARTCHAR uni01F9
ENCODING 505
SWIDTH 500 0
DWIDTH 8 0
BBX 6 12 0 2
BITMAP
20
10
08
00
00
B8
C4
84
84
84
84
84
ENDCHAR
STARTCHAR uni0251
ENCODING 593
SWIDTH 500 0
DWIDTH 8 0
BBX 7 7 0 2
BITMAP
74
8C
84
84
84
8C
76
ENDCHAR
STARTCHAR uni0261
ENCODING 609
SWIDTH 500 0
DWIDTH 8 0
BBX 7 10 0 -1
BITMAP
3A
44
44
38
40
40
7C
82
82
7C
ENDCHAR
STARTCHAR caron
ENCODING 711
BBX 7 4 4 9
BITMAP
82
44
28
10
ENDCHAR
STARTCHAR uni02C9
ENCODING 713
BBX 7 1 4 10
BITMAP
FE
ENDCHAR
STARTCHAR uni02CA
ENCODING 714
BBX 4 5 3 8
BITMAP
20
30
60
40
80
ENDCHAR
STARTCHAR uni02CB
ENCODING 715
BBX 4 5 9 8
BITMAP
80
C0
60
20
10
ENDCHAR
STARTCHAR dotaccent
ENCODING 729
BBX 2 2 7 6
BITMAP
C0
C0
ENDCHAR
STARTCHAR Alpha
ENCODING 913
BBX 13 11 1 2
BITMAP
0200
0500
0500
0880
0880
1040
1FC0
2020
2020
4010
E038
ENDCHAR
STARTCHAR Beta
ENCODING 914
BBX 9 11 3 2
BITMAP
FF00
4080
4080
4080
4100
7E00
4100
4080
4080
4080
FF00
ENDCHAR
STARTCHAR Gamma
ENCODING 915
BBX 10 11 2 2
BITMAP
FFC0
4040
4040
4000
4000
4000
4000
4000
4000
4000
E000
ENDCHAR
STARTCHAR uni0394
ENCODING 916
BBX 13 11 1 2
BITMAP
0200
0500
0500
0880
0880
1040
1040
2020
2020
4010
FFF8
ENDCHAR
STARTCHAR Epsilon
ENCODING 917
BBX 10 11 2 2
BITMAP
FFC0
4040
4040
4000
4200
7E00
4200
4000
4040
4040
FFC0
ENDCHAR
STARTCHAR Zeta
ENCODING 918
BBX 9 11 3 2
BITMAP
FF80
0100
0200
0400
0400
0800
1000
1000
2000
4000
FF80
ENDCHAR
STARTCHAR Eta
ENCODING 919
BBX 10 11 2 2
BITMAP
E1C0
4080
4080
4080
4080
7F80
4080
4080
4080
4080
E1C0
ENDCHAR
STARTCHAR Theta
ENCODING 920
BBX 11 11 2 2
BITMAP
0E00
3180
4040
4040
9120
9F20
9120
4040
4040
3180
0E00
ENDCHAR
STARTCHAR Iota
ENCODING 921
BBX 3 11 6 2
BITMAP
E0
40
40
40
40
40
40
40
40
40
E0
ENDCHAR
STARTCHAR Kappa
ENCODING 922
BBX 10 11 3 2
BITMAP
E380
4200
4400
4800
5000
7000
4800
4400
4200
4100
E1C0
ENDCHAR
STARTCHAR Lambda
ENCODING 923
BBX 13 11 1 2
BITMAP
0200
0500
0500
0880
0880
1040
1040
2020
2020
4010
E038
ENDCHAR
STARTCHAR Mu
ENCODING 924
BBX 11 11 2 2
BITMAP
C060
60C0
5140
5140
4A40
4A40
4440
4440
4040
4040
E0E0
ENDCHAR
STARTCHAR Nu
ENCODING 925
BBX 10 11 2 2
BITMAP
C1C0
6080
5080
5080
4880
4480
4480
4280
4280
4180
E080
ENDCHAR
STARTCHAR Xi
ENCODING 926
BBX 10 11 2 2
BITMAP
FFC0
8040
8040
0000
2100
3F00
2100
0000
8040
8040
FFC0
ENDCHAR
STARTCHAR Omicron
ENCODING 927
BBX 11 11 2 2
BITMAP
0E00
3180
4040
4040
8020
8020
8020
4040
4040
3180
0E00
ENDCHAR
STARTCHAR Pi
ENCODING 928
BBX 10 11 2 2
BITMAP
FFC0
4080
4080
4080
4080
4080
4080
4080
4080
4080
E1C0
ENDCHAR
STARTCHAR Rho
ENCODING 929
BBX 10 11 2 2
BITMAP
FF00
4080
4040
4040
4080
7F00
4000
4000
4000
4000
E000
ENDCHAR
STARTCHAR Sigma
ENCODING 931
BBX 10 11 2 2
BITMAP
FFC0
4040
2040
1000
0800
0400
0800
1000
2040
4040
FFC0
ENDCHAR
STARTCHAR Tau
ENCODING 932
BBX 11 11 2 2
BITMAP
FFE0
8420
8420
0400
0400
0400
0400
0400
0400
0400
0E00
ENDCHAR
STARTCHAR Upsilon
ENCODING 933
BBX 7 11 4 2
BITMAP
04
6A
90
10
10
10
10
10
10
10
38
ENDCHAR
STARTCHAR Phi
ENCODING 934
BBX 11 11 2 2
BITMAP
0E00
0400
3F80
4440
8420
8420
8420
4440
3F80
0400
0E00
ENDCHAR
STARTCHAR Chi
ENCODING 935
BBX 11 11 2 2
BITMAP
E0E0
2080
1100
1100
0A00
0400
0A00
1100
1100
2080
E0E0
ENDCHAR
STARTCHAR Psi
ENCODING 936
BBX 13 11 1 2
BITMAP
8708
4210
2220
2220
2220
2220
1FC0
0200
0200
0200
0700
ENDCHAR
STARTCHAR uni03A9
ENCODING 937
BBX 10 11 2 2
BITMAP
1E00
2100
4080
8040
8040
8040
8040
4080
2100
9240
F3C0
ENDCHAR
STARTCHAR alpha
ENCODING 945
BBX 9 9 3 2
BITMAP
3B00
4600
8200
8200
8200
8200
8200
4600
3980
ENDCHAR
STARTCHAR beta
ENCODING 946
BBX 7 14 4 -1
BITMAP
78
84
84
88
F0
8C
82
82
82
C4
B8
80
80
80
ENDCHAR
STARTCHAR gamma
ENCODING 947
BBX 10 12 2 -1
BITMAP
3040
4880
8880
0500
0500
0600
0400
0400
0400
0400
0400
0400
ENDCHAR
STARTCHAR delta
ENCODING 948
BBX 7 11 4 2
BITMAP
38
44
20
10
28
44
82
82
82
44
38
ENDCHAR
STARTCHAR epsilon
ENCODING 949
BBX 5 9 5 2
BITMAP
70
88
80
40
30
40
80
88
70
ENDCHAR
STARTCHAR zeta
ENCODING 950
BBX 7 14 4 -1
BITMAP
20
40
44
3C
20
40
80
80
80
40
3C
02
02
3C
ENDCHAR
STARTCHAR eta
ENCODING 951
BBX 8 12 3 -1
BITMAP
6E
B1
A1
21
21
21
21
21
21
01
01
01
ENDCHAR
STARTCHAR theta
ENCODING 952
BBX 7 11 4 2
BITMAP
38
44
82
82
82
FE
82
82
82
44
38
ENDCHAR
STARTCHAR iota
ENCODING 953
BBX 4 9 6 2
BITMAP
C0
40
40
40
40
40
40
50
60
ENDCHAR
STARTCHAR kappa
ENCODING 954
BBX 9 9 3 2
BITMAP
C180
4200
4400
6800
5000
4800
4400
4200
E380
ENDCHAR
STARTCHAR lambda
ENCODING 955
BBX 8 11 4 2
BITMAP
40
A0
10
10
10
10
28
28
44
45
82
ENDCHAR
STARTCHAR uni03BC
ENCODING 956
BBX 8 12 4 -1
BITMAP
84
84
84
84
84
84
84
CD
B2
80
80
80
ENDCHAR
STARTCHAR nu
ENCODING 957
BBX 9 9 3 2
BITMAP
C100
4080
4100
4100
2200
2200
1400
1400
0800
ENDCHAR
STARTCHAR xi
ENCODING 958
BBX 7 14 4 -1
BITMAP
40
80
78
80
80
78
40
80
80
80
7C
02
42
3C
ENDCHAR
STARTCHAR omicron
ENCODING 959
BBX 8 9 3 2
BITMAP
3C
42
81
81
81
81
81
42
3C
ENDCHAR
STARTCHAR pi
ENCODING 960
BBX 11 9 2 2
BITMAP
7FE0
9100
1100
1100
1100
1100
1100
2140
4080
ENDCHAR
STARTCHAR rho
ENCODING 961
BBX 8 12 3 -1
BITMAP
3C
42
81
81
81
81
C1
A2
9C
80
80
80
ENDCHAR
STARTCHAR sigma
ENCODING 963
BBX 10 9 3 2
BITMAP
3FC0
4200
8100
8100
8100
8100
8100
4200
3C00
ENDCHAR
STARTCHAR tau
ENCODING 964
BBX 6 9 4 2
BITMAP
7C
90
10
10
10
10
10
14
08
ENDCHAR
STARTCHAR upsilon
ENCODING 965
BBX 8 9 3 2
BITMAP
42
A1
21
21
21
21
21
21
1E
ENDCHAR
STARTCHAR phi
ENCODING 966
BBX 9 14 3 -1
BITMAP
0800
0800
3E00
4900
8880
8880
8880
8880
8880
4900
3E00
0800
0800
0800
ENDCHAR
STARTCHAR chi
ENCODING 967
BBX 9 12 3 -1
BITMAP
4080
A100
2100
1200
1400
0800
0800
1400
2400
4200
4280
8100
ENDCHAR
STARTCHAR psi
ENCODING 968
BBX 9 14 2 -1
BITMAP
0400
0400
4500
A480
2480
2480
2480
2480
2480
2480
1F00
0400
0400
0400
ENDCHAR
STARTCHAR omega
ENCODING 969
BBX 9 9 3 2
BITMAP
2200
4100
8080
8880
8880
8880
8880
5500
2200
ENDCHAR
STARTCHAR uni0401
ENCODING 1025
BBX 10 12 2 2
BITMAP
1100
0000
FFC0
4040
4000
4100
7F00
4100
4000
4000
4040
FFC0
ENDCHAR
STARTCHAR uni0410
ENCODING 1040
BBX 13 11 1 2
BITMAP
0200
0500
0500
0880
0880
1040
1FC0
2020
2020
4010
E038
ENDCHAR
STARTCHAR uni0411
ENCODING 1041
BBX 9 11 3 2
BITMAP
FF80
4080
4080
4000
4000
7E00
4100
4080
4080
4080
FF00
ENDCHAR
STARTCHAR uni0412
ENCODING 1042
BBX 9 11 3 2
BITMAP
FF00
4080
4080
4080
4100
7E00
4100
4080
4080
4080
FF00
ENDCHAR
STARTCHAR uni0413
ENCODING 1043
BBX 10 11 2 2
BITMAP
FFC0
4040
4040
4000
4000
4000
4000
4000
4000
4000
E000
ENDCHAR
STARTCHAR uni0414
ENCODING 1044
BBX 11 13 2 0
BITMAP
3FC0
0880
0880
0880
0880
0880
1080
1080
2080
4080
7FC0
8020
8020
ENDCHAR
STARTCHAR uni0415
ENCODING 1045
BBX 10 11 2 2
BITMAP
FFC0
4040
4040
4000
4200
7E00
4200
4000
4040
4040
FFC0
ENDCHAR
STARTCHAR uni0416
ENCODING 1046
BBX 13 11 1 2
BITMAP
4710
A228
1240
1240
0A80
0700
0A80
1240
2220
2220
C718
ENDCHAR
STARTCHAR uni0417
ENCODING 1047
BBX 9 11 3 2
BITMAP
5E00
6100
4080
0080
0100
0E00
0100
8080
8080
4100
3E00
ENDCHAR
STARTCHAR uni0418
ENCODING 1048
BBX 10 11 2 2
BITMAP
E0C0
4180
4280
4280
4480
4480
4880
5080
5080
6080
C1C0
ENDCHAR
STARTCHAR uni0419
ENCODING 1049
BBX 12 12 1 2
BITMAP
0880
0880
E730
4060
40A0
4120
4220
4420
4820
5020
6020
C070
ENDCHAR
STARTCHAR uni041A
ENCODING 1050
BBX 10 11 2 2
BITMAP
E180
4240
4400
4400
4800
7800
4400
4200
4100
4100
E0C0
ENDCHAR
STARTCHAR uni041B
ENCODING 1051
BBX 10 11 2 2
BITMAP
7FC0
2080
2080
2080
2080
2080
2080
2080
2080
A080
41C0
ENDCHAR
STARTCHAR uni041C
ENCODING 1052
BBX 11 11 2 2
BITMAP
C060
60C0
5140
5140
4A40
4A40
4440
4440
4040
4040
E0E0
ENDCHAR
STARTCHAR uni041D
ENCODING 1053
BBX 10 11 2 2
BITMAP
E1C0
4080
4080
4080
4080
7F80
4080
4080
4080
4080
E1C0
ENDCHAR
STARTCHAR uni041E
ENCODING 1054
BBX 10 11 2 2
BITMAP
1E00
2100
4080
8040
8040
8040
8040
8040
4080
2100
1E00
ENDCHAR
STARTCHAR uni041F
ENCODING 1055
BBX 10 11 2 2
BITMAP
FFC0
4080
4080
4080
4080
4080
4080
4080
4080
4080
E1C0
ENDCHAR
STARTCHAR uni0420
ENCODING 1056
BBX 10 11 2 2
BITMAP
FF00
4080
4040
4040
4080
7F00
4000
4000
4000
4000
E000
ENDCHAR
STARTCHAR uni0421
ENCODING 1057
BBX 10 11 3 2
BITMAP
3E80
4180
8080
8000
8000
8000
8000
8040
8080
4100
3E00
ENDCHAR
STARTCHAR uni0422
ENCODING 1058
BBX 11 11 2 2
BITMAP
FFE0
8420
8420
0400
0400
0400
0400
0400
0400
0400
0E00
ENDCHAR
STARTCHAR uni0423
ENCODING 1059
BBX 10 11 2 2
BITMAP
71C0
2080
2080
1100
1100
0A00
0A00
0400
0800
9000
6000
ENDCHAR
STARTCHAR uni0424
ENCODING 1060
BBX 11 11 2 2
BITMAP
0E00
0400
3F80
4440
8420
8420
8420
4440
3F80
0400
0E00
ENDCHAR
STARTCHAR uni0425
ENCODING 1061
BBX 11 11 2 2
BITMAP
E0E0
2080
1100
1100
0A00
0400
0A00
1100
1100
2080
E0E0
ENDCHAR
STARTCHAR uni0426
ENCODING 1062
BBX 11 13 2 0
BITMAP
E1C0
4080
4080
4080
4080
4080
4080
4080
4080
4080
FFC0
0020
0020
ENDCHAR
STARTCHAR uni0427
ENCODING 1063
BBX 10 11 2 2
BITMAP
E1C0
4080
4080
4080
4080
2180
1E80
0080
0080
0080
01C0
ENDCHAR
STARTCHAR uni0428
ENCODING 1064
BBX 11 11 2 2
BITMAP
EEE0
4440
4440
4440
4440
4440
4440
4440
4440
4440
FFE0
ENDCHAR
STARTCHAR uni0429
ENCODING 1065
BBX 12 13 2 0
BITMAP
EEE0
4440
4440
4440
4440
4440
4440
4440
4440
4440
FFE0
0010
0010
ENDCHAR
STARTCHAR uni042A
ENCODING 1066
BBX 11 11 2 2
BITMAP
F800
9000
1000
1000
1F80
1040
1020
1020
1020
1040
3F80
ENDCHAR
STARTCHAR uni042B
ENCODING 1067
BBX 11 11 1 2
BITMAP
E0E0
4040
4040
4040
7840
4440
4240
4240
4240
4440
F8E0
ENDCHAR
STARTCHAR uni042C
ENCODING 1068
BBX 9 11 3 2
BITMAP
E000
4000
4000
4000
7E00
4100
4080
4080
4080
4100
FE00
ENDCHAR
STARTCHAR uni042D
ENCODING 1069
BBX 10 11 2 2
BITMAP
BE00
C100
8080
0040
0040
1FC0
0040
0040
8080
4100
3E00
ENDCHAR
STARTCHAR uni042E
ENCODING 1070
BBX 11 11 1 2
BITMAP
E380
4440
4820
4820
4820
7820
4820
4820
4820
4440
E380
ENDCHAR
STARTCHAR uni042F
ENCODING 1071
BBX 10 11 2 2
BITMAP
1FC0
2080
4080
4080
2080
1F80
0480
0880
1080
2080
C1C0
ENDCHAR
STARTCHAR uni0430
ENCODING 1072
BBX 9 9 3 2
BITMAP
3C00
4200
0200
7A00
8600
8200
8200
4680
3900
ENDCHAR
STARTCHAR uni0431
ENCODING 1073
BBX 8 12 3 2
BITMAP
01
3E
40
80
BC
C2
81
81
81
81
42
3C
ENDCHAR
STARTCHAR uni0432
ENCODING 1074
BBX 7 9 3 2
BITMAP
FC
42
42
42
7C
42
42
42
FC
ENDCHAR
STARTCHAR uni0433
ENCODING 1075
BBX 8 9 3 2
BITMAP
FF
41
40
40
40
40
40
40
E0
ENDCHAR
STARTCHAR uni0434
ENCODING 1076
BBX 11 11 2 0
BITMAP
1FC0
0880
0880
0880
0880
1080
1080
2080
7FC0
8020
8020
ENDCHAR
STARTCHAR uni0435
ENCODING 1077
BBX 8 9 3 2
BITMAP
3C
42
81
81
FF
80
80
41
3E
ENDCHAR
STARTCHAR uni0436
ENCODING 1078
BBX 11 9 2 2
BITMAP
CE60
2480
2480
1500
1F00
2480
2480
4440
8E20
ENDCHAR
STARTCHAR uni0437
ENCODING 1079
BBX 7 9 4 2
BITMAP
BC
C2
82
02
1C
02
02
82
7C
ENDCHAR
STARTCHAR uni0438
ENCODING 1080
BBX 10 9 2 2
BITMAP
E1C0
4080
4180
4280
4480
4880
5080
6080
C1C0
ENDCHAR
STARTCHAR uni0439
ENCODING 1081
BBX 10 11 2 2
BITMAP
1200
0C00
E1C0
4080
4180
4280
4480
4880
5080
6080
C1C0
ENDCHAR
STARTCHAR uni043A
ENCODING 1082
BBX 8 9 3 2
BITMAP
E3
44
44
48
70
50
48
44
E3
ENDCHAR
STARTCHAR uni043B
ENCODING 1083
BBX 8 9 4 2
BITMAP
FF
22
22
22
22
22
22
A2
47
ENDCHAR
STARTCHAR uni043C
ENCODING 1084
BBX 11 9 2 2
BITMAP
E0E0
4040
60C0
5140
4A40
4A40
4440
4040
E0E0
ENDCHAR
STARTCHAR uni043D
ENCODING 1085
BBX 9 9 3 2
BITMAP
E380
4100
4100
4100
7F00
4100
4100
4100
E380
ENDCHAR
STARTCHAR uni043E
ENCODING 1086
BBX 7 9 4 2
BITMAP
38
44
82
82
82
82
82
44
38
ENDCHAR
STARTCHAR uni043F
ENCODING 1087
BBX 9 9 3 2
BITMAP
FF80
4100
4100
4100
4100
4100
4100
4100
E380
ENDCHAR
STARTCHAR uni0440
ENCODING 1088
BBX 8 12 3 -1
BITMAP
5C
E2
41
41
41
41
62
5C
40
40
40
E0
ENDCHAR
STARTCHAR uni0441
ENCODING 1089
BBX 8 9 3 2
BITMAP
3C
42
82
80
80
80
81
42
3C
ENDCHAR
STARTCHAR uni0442
ENCODING 1090
BBX 9 9 3 2
BITMAP
FF80
8880
0800
0800
0800
0800
0800
0800
1C00
ENDCHAR
STARTCHAR uni0443
ENCODING 1091
BBX 10 11 2 0
BITMAP
71C0
2080
2080
1100
1100
0A00
0A00
0400
0800
9000
6000
ENDCHAR
STARTCHAR uni0444
ENCODING 1092
BBX 9 14 3 -1
BITMAP
0800
0800
0800
6B00
9C80
8880
8880
8880
8880
9C80
6B00
0800
0800
1C00
ENDCHAR
STARTCHAR uni0445
ENCODING 1093
BBX 9 9 3 2
BITMAP
E380
4100
2200
1400
0800
1400
2200
4100
E380
ENDCHAR
STARTCHAR uni0446
ENCODING 1094
BBX 10 11 3 0
BITMAP
E380
4100
4100
4100
4100
4100
4100
4100
FF80
0040
0040
ENDCHAR
STARTCHAR uni0447
ENCODING 1095
BBX 8 9 3 2
BITMAP
E7
42
42
42
3E
02
02
02
07
ENDCHAR
STARTCHAR uni0448
ENCODING 1096
BBX 11 9 2 2
BITMAP
EEE0
4440
4440
4440
4440
4440
4440
4440
FFE0
ENDCHAR
STARTCHAR uni0449
ENCODING 1097
BBX 12 11 2 0
BITMAP
EEE0
4440
4440
4440
4440
4440
4440
4440
FFE0
0010
0010
ENDCHAR
STARTCHAR uni044A
ENCODING 1098
BBX 10 9 1 2
BITMAP
F800
9000
1000
1000
1F80
1040
1040
1040
3F80
ENDCHAR
STARTCHAR uni044B
ENCODING 1099
BBX 10 9 2 2
BITMAP
E1C0
4080
4080
4080
7880
4480
4480
4480
F9C0
ENDCHAR
STARTCHAR uni044C
ENCODING 1100
BBX 8 9 3 2
BITMAP
E0
40
40
40
7E
41
41
41
FE
ENDCHAR
STARTCHAR uni044D
ENCODING 1101
BBX 7 9 4 2
BITMAP
78
84
02
02
3E
02
02
84
78
ENDCHAR
STARTCHAR uni044E
ENCODING 1102
BBX 10 9 2 2
BITMAP
E300
4480
4840
4840
7840
4840
4840
4480
E300
ENDCHAR
STARTCHAR uni044F
ENCODING 1103
BBX 8 9 4 2
BITMAP
3F
42
42
42
3E
12
22
A2
47
ENDCHAR
STARTCHAR uni0451
ENCODING 1105
BBX 8 11 3 2
BITMAP
24
00
3C
42
81
81
FF
80
80
41
3E
ENDCHAR
STARTCHAR uni2010
ENCODING 8208
BBX 8 1 4 7
BITMAP
FF
ENDCHAR
STARTCHAR endash
ENCODING 8211
BBX 7 1 4 7
BITMAP
FE
ENDCHAR
STARTCHAR emdash
ENCODING 8212
BBX 13 1 1 6
BITMAP
FFF8
ENDCHAR
STARTCHAR uni2015
ENCODING 8213
BBX 12 1 2 7
BITMAP
FFF0
ENDCHAR
STARTCHAR uni2016
ENCODING 8214
BBX 4 14 6 -1
BITMAP
90
90
90
90
90
90
90
90
90
90
90
90
90
90
ENDCHAR
STARTCHAR quoteleft
ENCODING 8216
BBX 3 5 10 8
BITMAP
20
40
80
C0
C0
ENDCHAR
STARTCHAR quoteright
ENCODING 8217
BBX 3 5 2 8
BITMAP
60
60
20
40
80
ENDCHAR
STARTCHAR quotedblleft
ENCODING 8220
BBX 7 5 6 8
BITMAP
22
44
88
CC
CC
ENDCHAR
STARTCHAR quotedblright
ENCODING 8221
BBX 7 5 2 8
BITMAP
66
66
22
44
88
ENDCHAR
STARTCHAR twodotenleader
ENCODING 8229
BBX 9 2 3 6
BITMAP
C180
C180
ENDCHAR
STARTCHAR ellipsis
ENCODING 8230
BBX 12 2 1 6
BITMAP
C630
C630
ENDCHAR
STARTCHAR perthousand
ENCODING 8240
BBX 15 15 0 -1
BITMAP
0008
3010
4820
4840
4880
4900
3200
0400
0800
130C
2492
4492
8492
0492
030C
ENDCHAR
STARTCHAR minute
ENCODING 8242
BBX 3 5 2 8
BITMAP
20
20
40
40
80
ENDCHAR
STARTCHAR second
ENCODING 8243
BBX 6 5 1 8
BITMAP
24
24
48
48
90
ENDCHAR
STARTCHAR uni2035
ENCODING 8245
BBX 2 4 7 8
BITMAP
C0
C0
40
40
ENDCHAR
STARTCHAR uni203B
ENCODING 8251
BBX 15 14 0 -1
BITMAP
4304
2308
1010
0820
0440
0280
610C
628C
0440
0820
1010
2308
4304
8002
ENDCHAR
STARTCHAR Euro
ENCODING 8364
BBX 11 12 2 0
BITMAP
0020
0FA0
1060
2020
2020
FF00
2000
FE00
2000
2020
1040
0F80
ENDCHAR
STARTCHAR uni2103
ENCODING 8451
BBX 14 15 0 -1
BITMAP
6000
91F4
960C
6C04
0804
1800
1800
1800
1800
1800
1800
0800
0C04
0608
01F0
ENDCHAR
STARTCHAR uni2105
ENCODING 8453
BBX 11 10 2 1
BITMAP
0080
7080
8100
8100
8A00
72C0
0520
0520
0920
08C0
ENDCHAR
STARTCHAR uni2109
ENCODING 8457
BBX 12 13 2 0
BITMAP
0FF0
6430
9410
9410
6440
0440
07C0
0440
0440
0400
0400
0400
0E00
ENDCHAR
STARTCHAR uni2116
ENCODING 8470
BBX 15 16 0 -2
BITMAP
6080
2140
3100
3100
3918
2924
2924
2D24
2D24
2524
2724
2724
2318
2300
A17E
4100
ENDCHAR
STARTCHAR uni2121
ENCODING 8481
BBX 15 5 0 7
BITMAP
FBD0
2210
23D0
2210
23DE
ENDCHAR
STARTCHAR uni2160
ENCODING 8544
BBX 3 14 6 -1
BITMAP
E0
40
40
40
40
40
40
40
40
40
40
40
40
E0
ENDCHAR
STARTCHAR uni2161
ENCODING 8545
BBX 7 14 4 -1
BITMAP
EE
44
44
44
44
44
44
44
44
44
44
44
44
EE
ENDCHAR
STARTCHAR uni2162
ENCODING 8546
BBX 11 14 2 -1
BITMAP
EEE0
4440
4440
4440
4440
4440
4440
4440
4440
4440
4440
4440
4440
EEE0
ENDCHAR
STARTCHAR uni2163
ENCODING 8547
BBX 13 14 1 -1
BITMAP
EE38
4410
4410
4410
4220
4220
4220
4220
4140
4140
4140
4140
4080
E080
ENDCHAR
STARTCHAR uni2164
ENCODING 8548
BBX 13 14 1 -1
BITMAP
E038
4010
2020
2020
1040
1040
1040
0880
0880
0880
0500
0500
0200
0200
ENDCHAR
STARTCHAR uni2165
ENCODING 8549
BBX 13 14 1 -1
BITMAP
E3B8
4110
4110
4110
2210
2210
2210
2210
1410
1410
1410
1410
0810
0838
ENDCHAR
STARTCHAR uni2166
ENCODING 8550
BBX 15 14 0 -1
BITMAP
E3FE
4124
4124
4124
2224
2224
2224
2224
1424
1424
1424
1424
0824
087E
ENDCHAR
STARTCHAR uni2167
ENCODING 8551
BBX 15 14 0 -1
BITMAP
E3FE
4154
4154
4154
2254
2254
2254
2254
1454
1454
1454
1454
0854
08FE
ENDCHAR
STARTCHAR uni2168
ENCODING 8552
BBX 13 14 1 -1
BITMAP
EE38
4410
4220
4220
4140
4140
4080
4080
4140
4140
4220
4220
4410
EE38
ENDCHAR
STARTCHAR uni2169
ENCODING 8553
BBX 13 14 1 -1
BITMAP
E038
4010
2020
1040
0880
0500
0200
0500
0880
0880
1040
2020
4010
E038
ENDCHAR
STARTCHAR uni216A
ENCODING 8554
BBX 14 14 0 -1
BITMAP
E39C
4108
2208
2208
1408
1408
0808
0808
1408
1408
2208
2208
4108
E39C
ENDCHAR
STARTCHAR uni216B
ENCODING 8555
BBX 15 14 0 -1
BITMAP
E3BE
4114
2214
2214
1414
1414
0814
0814
1414
1414
2214
2214
4114
E3BE
ENDCHAR
STARTCHAR uni2170
ENCODING 8560
BBX 4 12 5 1
BITMAP
20
00
00
20
60
A0
20
20
20
20
20
70
ENDCHAR
STARTCHAR uni2171
ENCODING 8561
BBX 8 12 3 1
BITMAP
42
00
00
42
C6
42
42
42
42
42
42
E7
ENDCHAR
STARTCHAR uni2172
ENCODING 8562
BBX 11 12 2 1
BITMAP
4440
0000
0000
4440
CCC0
4440
4440
4440
4440
4440
4440
EEE0
ENDCHAR
STARTCHAR uni2173
ENCODING 8563
BBX 12 12 2 1
BITMAP
4000
0000
0000
5830
C820
4820
4440
4440
4280
4280
4100
E100
ENDCHAR
STARTCHAR uni2174
ENCODING 8564
BBX 9 9 3 1
BITMAP
C180
4100
4100
2200
2200
1400
1400
0800
0800
ENDCHAR
STARTCHAR uni2175
ENCODING 8565
BBX 13 12 0 1
BITMAP
0010
0000
0000
C190
4130
4110
2210
2210
1410
1410
0810
0838
ENDCHAR
STARTCHAR uni2176
ENCODING 8566
BBX 15 12 0 1
BITMAP
0044
0000
0000
C644
44CC
4444
4444
2844
2844
2844
1044
10EE
ENDCHAR
STARTCHAR uni2177
ENCODING 8567
BBX 15 12 0 1
BITMAP
0124
0000
0000
C524
476C
4524
4524
2924
2924
2924
1124
13AE
ENDCHAR
STARTCHAR uni2178
ENCODING 8568
BBX 13 12 1 1
BITMAP
4000
0000
0000
4E38
C410
4220
4140
4080
4140
4220
4410
EE38
ENDCHAR
STARTCHAR uni2179
ENCODING 8569
BBX 9 9 3 1
BITMAP
E380
4100
2200
1400
0800
1400
2200
4100
E380
ENDCHAR
STARTCHAR arrowleft
ENCODING 8592
BBX 15 7 0 3
BITMAP
0200
0C00
3800
FFFE
3800
0C00
0200
ENDCHAR
STARTCHAR arrowup
ENCODING 8593
BBX 7 16 4 -2
BITMAP
10
10
38
38
7C
54
92
10
10
10
10
10
10
10
10
10
ENDCHAR
STARTCHAR arrowright
ENCODING 8594
BBX 15 7 0 3
BITMAP
0080
0060
0038
FFFE
0038
0060
0080
ENDCHAR
STARTCHAR arrowdown
ENCODING 8595
BBX 7 16 4 -2
BITMAP
10
10
10
10
10
10
10
10
10
92
54
7C
38
38
10
10
ENDCHAR
STARTCHAR uni2196
ENCODING 8598
BBX 12 12 2 0
BITMAP
8000
6000
7C00
3000
2800
2400
0200
0100
0080
0040
0020
0010
ENDCHAR
STARTCHAR uni2197
ENCODING 8599
BBX 12 12 2 0
BITMAP
0010
0060
03E0
00C0
0140
0240
0400
0800
1000
2000
4000
8000
ENDCHAR
STARTCHAR uni2198
ENCODING 8600
BBX 12 12 2 0
BITMAP
8000
4000
2000
1000
0800
0400
0240
0140
00C0
03E0
0060
0010
ENDCHAR
STARTCHAR uni2199
ENCODING 8601
BBX 12 12 2 0
BITMAP
0010
0020
0040
0080
0100
0200
2400
2800
3000
7C00
6000
8000
ENDCHAR
STARTCHAR element
ENCODING 8712
BBX 8 14 3 -1
BITMAP
0F
30
40
40
80
80
FF
80
80
80
40
40
30
0F
ENDCHAR
STARTCHAR product
ENCODING 8719
BBX 12 14 1 -1
BITMAP
FFF0
30C0
30C0
30C0
30C0
30C0
30C0
30C0
30C0
30C0
30C0
30C0
30C0
79E0
ENDCHAR
STARTCHAR summation
ENCODING 8721
BBX 13 14 1 -1
BITMAP
FFF8
6008
3008
1800
0C00
0600
0300
0200
0400
0800
1000
2008
4008
FFF8
ENDCHAR
STARTCHAR uni2215
ENCODING 8725
BBX 6 12 5 0
BITMAP
04
04
08
08
10
10
20
20
40
40
80
80
ENDCHAR
STARTCHAR radical
ENCODING 8730
BBX 12 14 3 0
BITMAP
0010
0010
0020
0020
0040
0040
0080
0080
0100
0100
2200
5200
9400
0800
ENDCHAR
STARTCHAR proportional
ENCODING 8733
BBX 15 8 0 2
BITMAP
3C7E
4280
8100
8100
8100
8100
4280
3C7E
ENDCHAR
STARTCHAR infinity
ENCODING 8734
BBX 15 7 0 3
BITMAP
3C78
4284
8102
8102
8102
4284
3C78
ENDCHAR
STARTCHAR orthogonal
ENCODING 8735
BBX 10 12 3 0
BITMAP
8000
8000
8000
8000
8000
8000
8000
8000
8000
8000
8000
FFC0
ENDCHAR
STARTCHAR angle
ENCODING 8736
BBX 13 13 1 0
BITMAP
0008
0010
0020
0040
0080
0100
0200
0400
0800
1000
2000
4000
FFF8
ENDCHAR
STARTCHAR uni2223
ENCODING 8739
BBX 1 12 7 0
BITMAP
80
80
80
80
80
80
80
80
80
80
80
80
ENDCHAR
STARTCHAR uni2225
ENCODING 8741
BBX 6 16 4 -2
BITMAP
24
24
24
24
24
24
48
48
48
48
48
90
90
90
90
90
ENDCHAR
STARTCHAR logicaland
ENCODING 8743
BBX 13 13 1 0
BITMAP
0200
0200
0500
0500
0880
0880
1040
1040
2020
2020
4010
4010
8008
ENDCHAR
STARTCHAR logicalor
ENCODING 8744
BBX 13 13 1 -1
BITMAP
8008
4010
4010
2020
2020
1040
1040
0880
0880
0500
0500
0200
0200
ENDCHAR
STARTCHAR intersection
ENCODING 8745
BBX 11 14 2 -1
BITMAP
1F00
2080
4040
8020
8020
8020
8020
8020
8020
8020
8020
8020
8020
8020
ENDCHAR
STARTCHAR union
ENCODING 8746
BBX 11 14 2 -1
BITMAP
8020
8020
8020
8020
8020
8020
8020
8020
8020
8020
8020
4040
2080
1F00
ENDCHAR
STARTCHAR integral
ENCODING 8747
BBX 7 14 4 -1
BITMAP
0C
12
10
10
10
10
10
10
10
10
10
10
90
60
ENDCHAR
STARTCHAR uni222E
ENCODING 8750
BBX 7 16 4 -2
BITMAP
0C
12
10
10
10
7C
92
92
92
92
7C
10
10
10
90
60
ENDCHAR
STARTCHAR therefore
ENCODING 8756
BBX 10 10 2 1
BITMAP
0C00
0C00
0000
0000
0000
0000
0000
0000
C0C0
C0C0
ENDCHAR
STARTCHAR uni2235
ENCODING 8757
BBX 10 10 2 1
BITMAP
C0C0
C0C0
0000
0000
0000
0000
0000
0000
0C00
0C00
ENDCHAR
STARTCHAR uni2236
ENCODING 8758
BBX 2 7 5 3
BITMAP
C0
C0
00
00
00
C0
C0
ENDCHAR
STARTCHAR uni2237
ENCODING 8759
BBX 9 9 3 2
BITMAP
C180
C180
0000
0000
0000
0000
0000
C180
C180
ENDCHAR
STARTCHAR uni223D
ENCODING 8765
BBX 15 8 0 2
BITMAP
3878
4084
8082
8102
8102
8202
4204
3C38
ENDCHAR
STARTCHAR approxequal
ENCODING 8776
BBX 13 6 1 3
BITMAP
3808
4710
80E0
3808
4710
80E0
ENDCHAR
STARTCHAR uni224C
ENCODING 8780
BBX 13 11 1 1
BITMAP
30E0
4110
8208
8208
8408
4410
3860
0000
FFF8
0000
FFF8
ENDCHAR
STARTCHAR uni2252
ENCODING 8786
BBX 12 8 2 2
BITMAP
8000
0000
FFF0
0000
0000
FFF0
0000
0010
ENDCHAR
STARTCHAR notequal
ENCODING 8800
BBX 13 14 1 -1
BITMAP
0040
0040
0080
0080
FFF8
0200
0200
0400
FFF8
0800
1000
1000
2000
2000
ENDCHAR
STARTCHAR equivalence
ENCODING 8801
BBX 13 5 1 4
BITMAP
FFF8
0000
FFF8
0000
FFF8
ENDCHAR
STARTCHAR lessequal
ENCODING 8804
BBX 14 15 0 -1
BITMAP
000C
0030
00C0
0300
0C00
3000
C000
3000
CC00
3300
0CC0
0330
00CC
0030
000C
ENDCHAR
STARTCHAR greaterequal
ENCODING 8805
BBX 14 15 1 -1
BITMAP
C000
3000
0C00
0300
00C0
0030
000C
0030
00CC
0330
0CC0
3300
CC00
3000
C000
ENDCHAR
STARTCHAR uni2266
ENCODING 8806
BBX 12 12 2 0
BITMAP
0060
0380
1C00
E000
1C00
0380
0060
0000
FFF0
0000
0000
FFF0
ENDCHAR
STARTCHAR uni2267
ENCODING 8807
BBX 12 12 2 0
BITMAP
7000
0E00
01C0
0030
01C0
0E00
7000
0000
FFF0
0000
0000
FFF0
ENDCHAR
STARTCHAR uni226E
ENCODING 8814
BBX 14 13 0 0
BITMAP
010C
0130
01C0
0300
0D00
3100
C100
3100
0D00
0300
01C0
0130
010C
ENDCHAR
STARTCHAR uni226F
ENCODING 8815
BBX 14 13 1 0
BITMAP
C200
3200
0E00
0300
02C0
0230
020C
0230
02C0
0300
0E00
3200
C200
ENDCHAR
STARTCHAR circleplus
ENCODING 8853
BBX 9 9 3 1
BITMAP
3E00
4900
8880
8880
FF80
8880
8880
4900
3E00
ENDCHAR
STARTCHAR uni2299
ENCODING 8857
BBX 12 12 1 0
BITMAP
0F00
30C0
4020
4020
8010
8610
8610
8010
4020
4020
30C0
0F00
ENDCHAR
STARTCHAR perpendicular
ENCODING 8869
BBX 11 14 2 -1
BITMAP
0400
0400
0400
0400
0400
0400
0400
0400
0400
0400
0400
0400
0400
FFE0
ENDCHAR
STARTCHAR uni22BF
ENCODING 8895
BBX 8 12 4 0
BITMAP
01
03
03
05
05
09
11
11
21
21
41
FF
ENDCHAR
STARTCHAR uni2312
ENCODING 8978
BBX 12 6 1 6
BITMAP
0F00
30C0
4020
4020
8010
8010
ENDCHAR
STARTCHAR uni2460
ENCODING 9312
BBX 15 15 0 -1
BITMAP
07C0
1830
2008
4104
4304
8502
8102
8102
8102
8102
4104
4104
2008
1830
07C0
ENDCHAR
STARTCHAR uni2461
ENCODING 9313
BBX 15 15 0 -1
BITMAP
07C0
1830
2008
4384
4444
8042
8042
8082
8102
8202
4404
47C4
2008
1830
07C0
ENDCHAR
STARTCHAR uni2462
ENCODING 9314
BBX 15 15 0 -1
BITMAP
07C0
1830
2008
47C4
4044
8082
8102
8302
8082
8042
4444
4384
2008
1830
07C0
ENDCHAR
STARTCHAR uni2463
ENCODING 9315
BBX 15 15 0 -1
BITMAP
07C0
1830
2008
4104
4204
8202
8482
8482
8882
8FE2
4084
4084
2008
1830
07C0
ENDCHAR
STARTCHAR uni2464
ENCODING 9316
BBX 15 15 0 -1
BITMAP
07C0
1830
2008
47C4
4404
8402
8782
8042
8042
8042
4884
4704
2008
1830
07C0
ENDCHAR
STARTCHAR uni2465
ENCODING 9317
BBX 15 15 0 -1
BITMAP
07C0
1830
2008
4104
4204
8202
8402
8582
8642
8442
4444
4384
2008
1830
07C0
ENDCHAR
STARTCHAR uni2466
ENCODING 9318
BBX 15 15 0 -1
BITMAP
07C0
1830
2008
47C4
4044
8082
8082
8102
8102
8102
4104
4104
2008
1830
07C0
ENDCHAR
STARTCHAR uni2467
ENCODING 9319
BBX 15 15 0 -1
BITMAP
07C0
1830
2008
4384
4444
8442
8442
8382
8442
8442
4444
4384
2008
1830
07C0
ENDCHAR
STARTCHAR uni2468
ENCODING 9320
BBX 15 15 0 -1
BITMAP
07C0
1830
2008
4384
4444
8442
8442
83C2
8042
8082
4104
4204
2008
1830
07C0
ENDCHAR
STARTCHAR uni2469
ENCODING 9321
BBX 15 15 0 -1
BITMAP
07C0
1830
2008
49C4
5A24
AA22
8A22
8A22
8A22
8A22
4A24
49C4
2008
1830
07C0
ENDCHAR
STARTCHAR uni2474
ENCODING 9332
BBX 15 16 0 -2
BITMAP
1010
2008
4104
4304
8502
8102
8102
8102
8102
8102
8102
8102
4104
4104
2008
1010
ENDCHAR
STARTCHAR uni2475
ENCODING 9333
BBX 15 16 0 -2
BITMAP
1010
2008
4784
4844
8042
8042
8042
8082
8102
8202
8402
8802
4804
4FC4
2008
1010
ENDCHAR
STARTCHAR uni2476
ENCODING 9334
BBX 15 16 0 -2
BITMAP
1010
2008
4FC4
4044
8082
8102
8302
8082
8042
8042
8042
8042
4884
4704
2008
1010
ENDCHAR
STARTCHAR uni2477
ENCODING 9335
BBX 15 16 0 -2
BITMAP
1010
2008
4104
4104
8202
8202
8482
8482
8882
8882
8FE2
8082
4084
4084
2008
1010
ENDCHAR
STARTCHAR uni2478
ENCODING 9336
BBX 15 16 0 -2
BITMAP
1010
2008
47E4
4404
8402
8402
8782
8042
8022
8022
8022
8022
4444
4384
2008
1010
ENDCHAR
STARTCHAR uni2479
ENCODING 9337
BBX 15 16 0 -2
BITMAP
1010
2008
4104
4204
8402
8402
8802
8B82
8C42
8842
8842
8842
4844
4784
2008
1010
ENDCHAR
STARTCHAR uni247A
ENCODING 9338
BBX 15 16 0 -2
BITMAP
1010
2008
4FE4
4024
8042
8042
8082
8082
8102
8102
8102
8102
4104
4104
2008
1010
ENDCHAR
STARTCHAR uni247B
ENCODING 9339
BBX 15 16 0 -2
BITMAP
1010
2008
4784
4844
8842
8842
8482
8302
8482
8842
8842
8842
4844
4784
2008
1010
ENDCHAR
STARTCHAR uni247C
ENCODING 9340
BBX 15 16 0 -2
BITMAP
1010
2008
43C4
4424
8422
8422
8422
8462
83A2
8022
8042
8042
4084
4104
2008
1010
ENDCHAR
STARTCHAR uni247D
ENCODING 9341
BBX 15 16 0 -2
BITMAP
1010
2008
48E4
5914
A912
8912
8912
8912
8912
8912
8912
8912
4914
48E4
2008
1010
ENDCHAR
STARTCHAR uni247E
ENCODING 9342
BBX 15 16 0 -2
BITMAP
1010
2008
4824
5864
A8A2
8822
8822
8822
8822
8822
8822
8822
4824
4824
2008
1010
ENDCHAR
STARTCHAR uni247F
ENCODING 9343
BBX 15 16 0 -2
BITMAP
1010
2008
48E4
5914
A812
8812
8812
8822
8842
8882
8882
8902
4904
49F4
2008
1010
ENDCHAR
STARTCHAR uni2480
ENCODING 9344
BBX 15 16 0 -2
BITMAP
1010
2008
4BF4
5814
A822
8842
88C2
8822
8812
8812
8812
8812
4A24
49C4
2008
1010
ENDCHAR
STARTCHAR uni2481
ENCODING 9345
BBX 15 16 0 -2
BITMAP
1010
2008
4844
5844
A882
8882
8922
8922
8A22
8A22
8BFA
8822
4824
4824
2008
1010
ENDCHAR
STARTCHAR uni2482
ENCODING 9346
BBX 15 16 0 -2
BITMAP
1010
2008
4BF4
5A04
AA02
8A02
8BC2
8822
8812
8812
8812
8812
4A24
49C4
2008
1010
ENDCHAR
STARTCHAR uni2483
ENCODING 9347
BBX 15 16 0 -2
BITMAP
1010
2008
4844
5884
A902
8902
8A02
8AE2
8B12
8A12
8A12
8A12
4A14
49E4
2008
1010
ENDCHAR
STARTCHAR uni2484
ENCODING 9348
BBX 15 16 0 -2
BITMAP
1010
2008
4BF4
5814
A822
8822
8842
8842
8882
8882
8882
8882
4884
4884
2008
1010
ENDCHAR
STARTCHAR uni2485
ENCODING 9349
BBX 15 16 0 -2
BITMAP
1010
2008
49E4
5A14
AA12
8A12
8922
88C2
8922
8A12
8A12
8A12
4A14
49E4
2008
1010
ENDCHAR
STARTCHAR uni2486
ENCODING 9350
BBX 15 16 0 -2
BITMAP
1010
2008
49E4
5A14
AA12
8A12
8A12
8A32
89D2
8812
8822
8822
4844
4884
2008
1010
ENDCHAR
STARTCHAR uni2487
ENCODING 9351
BBX 15 16 0 -2
BITMAP
1010
2008
4C64
5294
8292
8292
8292
8492
8492
8892
9092
9092
5094
5E64
2008
1010
ENDCHAR
STARTCHAR uni2488
ENCODING 9352
BBX 8 12 5 2
BITMAP
20
60
A0
20
20
20
20
20
20
20
23
23
ENDCHAR
STARTCHAR uni2489
ENCODING 9353
BBX 10 12 3 2
BITMAP
7800
8400
0400
0400
0400
0800
1000
2000
4000
8000
80C0
FCC0
ENDCHAR
STARTCHAR uni248A
ENCODING 9354
BBX 10 12 3 2
BITMAP
FC00
0400
0800
1000
3000
0800
0400
0400
0400
0400
88C0
70C0
ENDCHAR
STARTCHAR uni248B
ENCODING 9355
BBX 10 12 3 2
BITMAP
1000
1000
2000
2000
4800
4800
8800
8800
FE00
0800
08C0
08C0
ENDCHAR
STARTCHAR uni248C
ENCODING 9356
BBX 10 12 3 2
BITMAP
FC00
8000
8000
8000
F000
0800
0400
0400
0400
0400
88C0
70C0
ENDCHAR
STARTCHAR uni248D
ENCODING 9357
BBX 10 12 3 2
BITMAP
1000
2000
4000
4000
8000
B800
C400
8400
8400
8400
84C0
78C0
ENDCHAR
STARTCHAR uni248E
ENCODING 9358
BBX 10 12 3 2
BITMAP
FE00
0200
0400
0400
0800
0800
1000
1000
1000
1000
10C0
10C0
ENDCHAR
STARTCHAR uni248F
ENCODING 9359
BBX 10 12 3 2
BITMAP
7800
8400
8400
8400
4800
3000
4800
8400
8400
8400
84C0
78C0
ENDCHAR
STARTCHAR uni2490
ENCODING 9360
BBX 10 12 3 2
BITMAP
7800
8400
8400
8400
8400
8C00
7400
0400
0800
0800
10C0
20C0
ENDCHAR
STARTCHAR uni2491
ENCODING 9361
BBX 14 12 0 2
BITMAP
23C0
6420
A420
2420
2420
2420
2420
2420
2420
2420
242C
23CC
ENDCHAR
STARTCHAR uni2492
ENCODING 9362
BBX 14 12 0 2
BITMAP
2080
6180
A280
2080
2080
2080
2080
2080
2080
2080
208C
208C
ENDCHAR
STARTCHAR uni2493
ENCODING 9363
BBX 14 12 0 2
BITMAP
23C0
6420
A020
2020
2020
2040
2080
2100
2200
2400
240C
27EC
ENDCHAR
STARTCHAR uni2494
ENCODING 9364
BBX 14 12 0 2
BITMAP
27E0
6020
A040
2080
2180
2040
2020
2020
2020
2020
244C
238C
ENDCHAR
STARTCHAR uni2495
ENCODING 9365
BBX 14 12 0 2
BITMAP
2080
6080
A100
2100
2240
2240
2440
2440
27F0
2040
204C
204C
ENDCHAR
STARTCHAR uni2496
ENCODING 9366
BBX 14 12 0 2
BITMAP
27E0
6400
A400
2400
2780
2040
2020
2020
2020
2020
244C
238C
ENDCHAR
STARTCHAR uni2497
ENCODING 9367
BBX 14 12 0 2
BITMAP
2080
6100
A200
2200
2400
25C0
2620
2420
2420
2420
242C
23CC
ENDCHAR
STARTCHAR uni2498
ENCODING 9368
BBX 14 12 0 2
BITMAP
27F0
6010
A020
2020
2040
2040
2080
2080
2080
2080
208C
208C
ENDCHAR
STARTCHAR uni2499
ENCODING 9369
BBX 14 12 0 2
BITMAP
23C0
6420
A420
2420
2240
2180
2240
2420
2420
2420
242C
23CC
ENDCHAR
STARTCHAR uni249A
ENCODING 9370
BBX 14 12 0 2
BITMAP
23C0
6420
A420
2420
2420
2460
23A0
2020
2040
2040
208C
210C
ENDCHAR
STARTCHAR uni249B
ENCODING 9371
BBX 14 12 1 2
BITMAP
71C0
8A20
0A20
0A20
0A20
1220
2220
4220
4220
8220
822C
F9CC
ENDCHAR
STARTCHAR SF100000
ENCODING 9472
BBX 15 1 0 6
BITMAP
FFFE
ENDCHAR
STARTCHAR uni2501
ENCODING 9473
BBX 15 2 0 5
BITMAP
FFFE
FFFE
ENDCHAR
STARTCHAR SF110000
ENCODING 9474
BBX 1 16 7 -2
BITMAP
80
80
80
80
80
80
80
80
80
80
80
80
80
80
80
80
ENDCHAR
STARTCHAR uni2503
ENCODING 9475
BBX 2 16 7 -2
BITMAP
C0
C0
C0
C0
C0
C0
C0
C0
C0
C0
C0
C0
C0
C0
C0
C0
ENDCHAR
STARTCHAR uni2504
ENCODING 9476
BBX 11 1 2 6
BITMAP
EEE0
ENDCHAR
STARTCHAR uni2505
ENCODING 9477
BBX 11 2 2 5
BITMAP
EEE0
EEE0
ENDCHAR
STARTCHAR uni2506
ENCODING 9478
BBX 1 11 7 1
BITMAP
80
80
80
00
80
80
80
00
80
80
80
ENDCHAR
STARTCHAR uni2507
ENCODING 9479
BBX 2 11 7 1
BITMAP
C0
C0
C0
00
C0
C0
C0
00
C0
C0
C0
ENDCHAR
STARTCHAR uni2508
ENCODING 9480
BBX 15 1 0 6
BITMAP
EEEE
ENDCHAR
STARTCHAR uni2509
ENCODING 9481
BBX 15 2 0 5
BITMAP
EEEE
EEEE
ENDCHAR
STARTCHAR uni250A
ENCODING 9482
BBX 1 15 7 -1
BITMAP
80
80
80
00
80
80
80
00
80
80
80
00
80
80
80
ENDCHAR
STARTCHAR uni250B
ENCODING 9483
BBX 2 15 7 -1
BITMAP
C0
C0
C0
00
C0
C0
C0
00
C0
C0
C0
00
C0
C0
C0
ENDCHAR
STARTCHAR SF010000
ENCODING 9484
BBX 8 9 7 -2
BITMAP
FF
80
80
80
80
80
80
80
80
ENDCHAR
STARTCHAR uni250D
ENCODING 9485
BBX 8 9 7 -2
BITMAP
FF
FF
80
80
80
80
80
80
80
ENDCHAR
STARTCHAR uni250E
ENCODING 9486
BBX 8 9 7 -2
BITMAP
FF
C0
C0
C0
C0
C0
C0
C0
C0
ENDCHAR
STARTCHAR uni250F
ENCODING 9487
BBX 8 9 7 -2
BITMAP
FF
FF
C0
C0
C0
C0
C0
C0
C0
ENDCHAR
STARTCHAR SF030000
ENCODING 9488
BBX 8 9 0 -2
BITMAP
FF
01
01
01
01
01
01
01
01
ENDCHAR
STARTCHAR uni2511
ENCODING 9489
BBX 8 9 0 -2
BITMAP
FF
FF
01
01
01
01
01
01
01
ENDCHAR
STARTCHAR uni2512
ENCODING 9490
BBX 9 9 0 -2
BITMAP
FF80
0180
0180
0180
0180
0180
0180
0180
0180
ENDCHAR
STARTCHAR uni2513
ENCODING 9491
BBX 9 9 0 -2
BITMAP
FF80
FF80
0180
0180
0180
0180
0180
0180
0180
ENDCHAR
STARTCHAR SF020000
ENCODING 9492
BBX 8 8 7 6
BITMAP
80
80
80
80
80
80
80
FF
ENDCHAR
STARTCHAR uni2515
ENCODING 9493
BBX 8 9 7 5
BITMAP
80
80
80
80
80
80
80
FF
FF
ENDCHAR
STARTCHAR uni2516
ENCODING 9494
BBX 8 8 7 6
BITMAP
C0
C0
C0
C0
C0
C0
C0
FF
ENDCHAR
STARTCHAR uni2517
ENCODING 9495
BBX 8 9 7 5
BITMAP
C0
C0
C0
C0
C0
C0
C0
FF
FF
ENDCHAR
STARTCHAR SF040000
ENCODING 9496
BBX 8 8 0 6
BITMAP
01
01
01
01
01
01
01
FF
ENDCHAR
STARTCHAR uni2519
ENCODING 9497
BBX 8 9 0 5
BITMAP
01
01
01
01
01
01
01
FF
FF
ENDCHAR
STARTCHAR uni251A
ENCODING 9498
BBX 9 8 0 6
BITMAP
0180
0180
0180
0180
0180
0180
0180
FF80
ENDCHAR
STARTCHAR uni251B
ENCODING 9499
BBX 9 9 0 5
BITMAP
0180
0180
0180
0180
0180
0180
0180
FF80
FF80
ENDCHAR
STARTCHAR SF080000
ENCODING 9500
BBX 8 16 7 -2
BITMAP
80
80
80
80
80
80
80
FF
80
80
80
80
80
80
80
80
ENDCHAR
STARTCHAR uni251D
ENCODING 9501
BBX 8 16 7 -2
BITMAP
80
80
80
80
80
80
80
FF
FF
80
80
80
80
80
80
80
ENDCHAR
STARTCHAR uni251E
ENCODING 9502
BBX 8 16 7 -2
BITMAP
C0
C0
C0
C0
C0
C0
C0
FF
80
80
80
80
80
80
80
80
ENDCHAR
STARTCHAR uni251F
ENCODING 9503
BBX 8 16 7 -2
BITMAP
80
80
80
80
80
80
80
FF
C0
C0
C0
C0
C0
C0
C0
C0
ENDCHAR
STARTCHAR uni2520
ENCODING 9504
BBX 8 16 7 -2
BITMAP
C0
C0
C0
C0
C0
C0
C0
FF
C0
C0
C0
C0
C0
C0
C0
C0
ENDCHAR
STARTCHAR uni2521
ENCODING 9505
BBX 8 16 7 -2
BITMAP
C0
C0
C0
C0
C0
C0
C0
FF
FF
80
80
80
80
80
80
80
ENDCHAR
STARTCHAR uni2522
ENCODING 9506
BBX 8 16 7 -2
BITMAP
80
80
80
80
80
80
80
FF
FF
C0
C0
C0
C0
C0
C0
C0
ENDCHAR
STARTCHAR uni2523
ENCODING 9507
BBX 8 16 7 -2
BITMAP
C0
C0
C0
C0
C0
C0
C0
FF
FF
C0
C0
C0
C0
C0
C0
C0
ENDCHAR
STARTCHAR SF090000
ENCODING 9508
BBX 8 16 0 -2
BITMAP
01
01
01
01
01
01
01
FF
01
01
01
01
01
01
01
01
ENDCHAR
STARTCHAR uni2525
ENCODING 9509
BBX 8 16 0 -2
BITMAP
01
01
01
01
01
01
01
FF
FF
01
01
01
01
01
01
01
ENDCHAR
STARTCHAR uni2526
ENCODING 9510
BBX 9 16 0 -2
BITMAP
0180
0180
0180
0180
0180
0180
0180
FF80
0100
0100
0100
0100
0100
0100
0100
0100
ENDCHAR
STARTCHAR uni2527
ENCODING 9511
BBX 9 16 0 -2
BITMAP
0100
0100
0100
0100
0100
0100
0100
FF80
0180
0180
0180
0180
0180
0180
0180
0180
ENDCHAR
STARTCHAR uni2528
ENCODING 9512
BBX 9 16 0 -2
BITMAP
0180
0180
0180
0180
0180
0180
0180
FF80
0180
0180
0180
0180
0180
0180
0180
0180
ENDCHAR
STARTCHAR uni2529
ENCODING 9513
BBX 9 16 0 -2
BITMAP
0180
0180
0180
0180
0180
0180
0180
FF80
FF00
0100
0100
0100
0100
0100
0100
0100
ENDCHAR
STARTCHAR uni252A
ENCODING 9514
BBX 9 16 0 -2
BITMAP
0100
0100
0100
0100
0100
0100
0100
FF80
FF80
0180
0180
0180
0180
0180
0180
0180
ENDCHAR
STARTCHAR uni252B
ENCODING 9515
BBX 9 16 0 -2
BITMAP
0180
0180
0180
0180
0180
0180
0180
FF80
FF80
0180
0180
0180
0180
0180
0180
0180
ENDCHAR
STARTCHAR SF060000
ENCODING 9516
BBX 15 9 0 -2
BITMAP
FFFE
0100
0100
0100
0100
0100
0100
0100
0100
ENDCHAR
STARTCHAR uni252D
ENCODING 9517
BBX 15 9 0 -2
BITMAP
FFFE
FF00
0100
0100
0100
0100
0100
0100
0100
ENDCHAR
STARTCHAR uni252E
ENCODING 9518
BBX 15 9 0 -2
BITMAP
FFFE
01FE
0100
0100
0100
0100
0100
0100
0100
ENDCHAR
STARTCHAR uni252F
ENCODING 9519
BBX 15 9 0 -2
BITMAP
FFFE
FFFE
0100
0100
0100
0100
0100
0100
0100
ENDCHAR
STARTCHAR uni2530
ENCODING 9520
BBX 15 9 0 -2
BITMAP
FFFE
0180
0180
0180
0180
0180
0180
0180
0180
ENDCHAR
STARTCHAR uni2531
ENCODING 9521
BBX 15 9 0 -2
BITMAP
FFFE
FF80
0180
0180
0180
0180
0180
0180
0180
ENDCHAR
STARTCHAR uni2532
ENCODING 9522
BBX 15 9 0 -2
BITMAP
FFFE
01FE
0180
0180
0180
0180
0180
0180
0180
ENDCHAR
STARTCHAR uni2533
ENCODING 9523
BBX 15 9 0 -2
BITMAP
FFFE
FFFE
0180
0180
0180
0180
0180
0180
0180
ENDCHAR
STARTCHAR SF070000
ENCODING 9524
BBX 15 8 0 6
BITMAP
0100
0100
0100
0100
0100
0100
0100
FFFE
ENDCHAR
STARTCHAR uni2535
ENCODING 9525
BBX 15 9 0 5
BITMAP
0100
0100
0100
0100
0100
0100
0100
FFFE
FF00
ENDCHAR
STARTCHAR uni2536
ENCODING 9526
BBX 15 9 0 5
BITMAP
0100
0100
0100
0100
0100
0100
0100
FFFE
01FE
ENDCHAR
STARTCHAR uni2537
ENCODING 9527
BBX 15 9 0 5
BITMAP
0100
0100
0100
0100
0100
0100
0100
FFFE
FFFE
ENDCHAR
STARTCHAR uni2538
ENCODING 9528
BBX 15 8 0 6
BITMAP
0180
0180
0180
0180
0180
0180
0180
FFFE
ENDCHAR
STARTCHAR uni2539
ENCODING 9529
BBX 15 9 0 5
BITMAP
0180
0180
0180
0180
0180
0180
0180
FFFE
FF80
ENDCHAR
STARTCHAR uni253A
ENCODING 9530
BBX 15 9 0 5
BITMAP
0180
0180
0180
0180
0180
0180
0180
FFFE
01FE
ENDCHAR
STARTCHAR uni253B
ENCODING 9531
BBX 15 9 0 5
BITMAP
0180
0180
0180
0180
0180
0180
0180
FFFE
FFFE
ENDCHAR
STARTCHAR SF050000
ENCODING 9532
BBX 15 16 0 -2
BITMAP
0100
0100
0100
0100
0100
0100
0100
FFFE
0100
0100
0100
0100
0100
0100
0100
0100
ENDCHAR
STARTCHAR uni253D
ENCODING 9533
BBX 15 16 0 -2
BITMAP
0100
0100
0100
0100
0100
0100
0100
FFFE
FF00
0100
0100
0100
0100
0100
0100
0100
ENDCHAR
STARTCHAR uni253E
ENCODING 9534
BBX 15 16 0 -2
BITMAP
0100
0100
0100
0100
0100
0100
0100
FFFE
01FE
0100
0100
0100
0100
0100
0100
0100
ENDCHAR
STARTCHAR uni253F
ENCODING 9535
BBX 15 16 0 -2
BITMAP
0100
0100
0100
0100
0100
0100
0100
FFFE
FFFE
0100
0100
0100
0100
0100
0100
0100
ENDCHAR
STARTCHAR uni2540
ENCODING 9536
BBX 15 16 0 -2
BITMAP
0180
0180
0180
0180
0180
0180
0180
FFFE
0100
0100
0100
0100
0100
0100
0100
0100
ENDCHAR
STARTCHAR uni2541
ENCODING 9537
BBX 15 16 0 -2
BITMAP
0100
0100
0100
0100
0100
0100
0100
FFFE
0180
0180
0180
0180
0180
0180
0180
0180
ENDCHAR
STARTCHAR uni2542
ENCODING 9538
BBX 15 16 0 -2
BITMAP
0180
0180
0180
0180
0180
0180
0180
FFFE
0180
0180
0180
0180
0180
0180
0180
0180
ENDCHAR
STARTCHAR uni2543
ENCODING 9539
BBX 15 16 0 -2
BITMAP
0180
0180
0180
0180
0180
0180
0180
FFFE
FF00
0100
0100
0100
0100
0100
0100
0100
ENDCHAR
STARTCHAR uni2544
ENCODING 9540
BBX 15 16 0 -2
BITMAP
0180
0180
0180
0180
0180
0180
0180
FFFE
01FE
0100
0100
0100
0100
0100
0100
0100
ENDCHAR
STARTCHAR uni2545
ENCODING 9541
BBX 15 16 0 -2
BITMAP
0100
0100
0100
0100
0100
0100
0100
FFFE
FF80
0180
0180
0180
0180
0180
0180
0180
ENDCHAR
STARTCHAR uni2546
ENCODING 9542
BBX 15 16 0 -2
BITMAP
0100
0100
0100
0100
0100
0100
0100
FFFE
01FE
0180
0180
0180
0180
0180
0180
0180
ENDCHAR
STARTCHAR uni2547
ENCODING 9543
BBX 15 16 0 -2
BITMAP
0180
0180
0180
0180
0180
0180
0180
FFFE
FFFE
0100
0100
0100
0100
0100
0100
0100
ENDCHAR
STARTCHAR uni2548
ENCODING 9544
BBX 15 16 0 -2
BITMAP
0100
0100
0100
0100
0100
0100
0100
FFFE
FFFE
0180
0180
0180
0180
0180
0180
0180
ENDCHAR
STARTCHAR uni2549
ENCODING 9545
BBX 15 16 0 -2
BITMAP
0180
0180
0180
0180
0180
0180
0180
FFFE
FF80
0180
0180
0180
0180
0180
0180
0180
ENDCHAR
STARTCHAR uni254A
ENCODING 9546
BBX 15 16 0 -2
BITMAP
0180
0180
0180
0180
0180
0180
0180
FFFE
01FE
0180
0180
0180
0180
0180
0180
0180
ENDCHAR
STARTCHAR uni254B
ENCODING 9547
BBX 15 16 0 -2
BITMAP
0180
0180
0180
0180
0180
0180
0180
FFFE
FFFE
0180
0180
0180
0180
0180
0180
0180
ENDCHAR
STARTCHAR SF430000
ENCODING 9552
BBX 15 3 0 5
BITMAP
FFFE
0000
FFFE
ENDCHAR
STARTCHAR SF240000
ENCODING 9553
BBX 3 16 6 -2
BITMAP
A0
A0
A0
A0
A0
A0
A0
A0
A0
A0
A0
A0
A0
A0
A0
A0
ENDCHAR
STARTCHAR SF510000
ENCODING 9554
BBX 7 10 8 -2
BITMAP
FE
80
FE
80
80
80
80
80
80
80
ENDCHAR
STARTCHAR SF520000
ENCODING 9555
BBX 9 8 6 -2
BITMAP
FF80
A000
A000
A000
A000
A000
A000
A000
ENDCHAR
STARTCHAR SF390000
ENCODING 9556
BBX 9 10 6 -2
BITMAP
FF80
8000
BF80
A000
A000
A000
A000
A000
A000
A000
ENDCHAR
STARTCHAR SF220000
ENCODING 9557
BBX 7 10 0 -2
BITMAP
FE
02
FE
02
02
02
02
02
02
02
ENDCHAR
STARTCHAR SF210000
ENCODING 9558
BBX 9 8 0 -2
BITMAP
FF80
0280
0280
0280
0280
0280
0280
0280
ENDCHAR
STARTCHAR SF250000
ENCODING 9559
BBX 9 10 0 -2
BITMAP
FF80
0080
FE80
0280
0280
0280
0280
0280
0280
0280
ENDCHAR
STARTCHAR SF500000
ENCODING 9560
BBX 7 9 8 5
BITMAP
80
80
80
80
80
80
FE
80
FE
ENDCHAR
STARTCHAR SF490000
ENCODING 9561
BBX 9 7 6 7
BITMAP
A000
A000
A000
A000
A000
A000
FF80
ENDCHAR
STARTCHAR SF380000
ENCODING 9562
BBX 9 9 6 5
BITMAP
A000
A000
A000
A000
A000
A000
BF80
8000
FF80
ENDCHAR
STARTCHAR SF280000
ENCODING 9563
BBX 7 9 0 5
BITMAP
02
02
02
02
02
02
FE
02
FE
ENDCHAR
STARTCHAR SF270000
ENCODING 9564
BBX 9 7 0 7
BITMAP
0280
0280
0280
0280
0280
0280
FF80
ENDCHAR
STARTCHAR SF260000
ENCODING 9565
BBX 9 9 0 5
BITMAP
0280
0280
0280
0280
0280
0280
FE80
0080
FF80
ENDCHAR
STARTCHAR SF360000
ENCODING 9566
BBX 7 16 8 -2
BITMAP
80
80
80
80
80
80
FE
80
FE
80
80
80
80
80
80
80
ENDCHAR
STARTCHAR SF370000
ENCODING 9567
BBX 9 16 6 -2
BITMAP
A000
A000
A000
A000
A000
A000
BF80
A000
A000
A000
A000
A000
A000
A000
A000
A000
ENDCHAR
STARTCHAR SF420000
ENCODING 9568
BBX 9 16 6 -2
BITMAP
A000
A000
A000
A000
A000
A000
BF80
8000
BF80
A000
A000
A000
A000
A000
A000
A000
ENDCHAR
STARTCHAR SF190000
ENCODING 9569
BBX 7 16 0 -2
BITMAP
02
02
02
02
02
02
FE
02
FE
02
02
02
02
02
02
02
ENDCHAR
STARTCHAR SF200000
ENCODING 9570
BBX 9 16 0 -2
BITMAP
0280
0280
0280
0280
0280
0280
FE80
0280
0280
0280
0280
0280
0280
0280
0280
0280
ENDCHAR
STARTCHAR SF230000
ENCODING 9571
BBX 9 16 0 -2
BITMAP
0280
0280
0280
0280
0280
0280
FE80
0080
FE80
0280
0280
0280
0280
0280
0280
0280
ENDCHAR
STARTCHAR SF470000
ENCODING 9572
BBX 15 10 0 -2
BITMAP
FFFE
0000
FFFE
0200
0200
0200
0200
0200
0200
0200
ENDCHAR
STARTCHAR SF480000
ENCODING 9573
BBX 15 8 0 -2
BITMAP
FFFE
0280
0280
0280
0280
0280
0280
0280
ENDCHAR
STARTCHAR SF410000
ENCODING 9574
BBX 15 10 0 -2
BITMAP
FFFE
0000
FEFE
0280
0280
0280
0280
0280
0280
0280
ENDCHAR
STARTCHAR SF450000
ENCODING 9575
BBX 15 9 0 5
BITMAP
0200
0200
0200
0200
0200
0200
FFFE
0000
FFFE
ENDCHAR
STARTCHAR SF460000
ENCODING 9576
BBX 15 7 0 7
BITMAP
0280
0280
0280
0280
0280
0280
FFFE
ENDCHAR
STARTCHAR SF400000
ENCODING 9577
BBX 15 9 0 5
BITMAP
0280
0280
0280
0280
0280
0280
FEFE
0000
FFFE
ENDCHAR
STARTCHAR SF540000
ENCODING 9578
BBX 15 16 0 -2
BITMAP
0200
0200
0200
0200
0200
0200
FFFE
0200
FFFE
0200
0200
0200
0200
0200
0200
0200
ENDCHAR
STARTCHAR SF530000
ENCODING 9579
BBX 15 16 0 -2
BITMAP
0280
0280
0280
0280
0280
0280
0280
FFFE
0280
0280
0280
0280
0280
0280
0280
0280
ENDCHAR
STARTCHAR SF440000
ENCODING 9580
BBX 15 16 0 -2
BITMAP
0280
0280
0280
0280
0280
0280
FEFE
0000
FEFE
0280
0280
0280
0280
0280
0280
0280
ENDCHAR
STARTCHAR uni256D
ENCODING 9581
BBX 7 8 1 0
BITMAP
06
18
20
40
40
80
80
80
ENDCHAR
STARTCHAR uni256E
ENCODING 9582
BBX 7 8 7 0
BITMAP
C0
30
08
04
04
02
02
02
ENDCHAR
STARTCHAR uni256F
ENCODING 9583
BBX 7 8 0 6
BITMAP
02
02
02
04
04
08
30
C0
ENDCHAR
STARTCHAR uni2570
ENCODING 9584
BBX 7 8 7 6
BITMAP
80
80
80
40
40
20
18
06
ENDCHAR
STARTCHAR uni2571
ENCODING 9585
BBX 15 15 0 -2
BITMAP
0002
0004
0008
0010
0020
0040
0080
0100
0200
0400
0800
1000
2000
4000
8000
ENDCHAR
STARTCHAR uni2572
ENCODING 9586
BBX 15 15 0 -2
BITMAP
8000
4000
2000
1000
0800
0400
0200
0100
0080
0040
0020
0010
0008
0004
0002
ENDCHAR
STARTCHAR uni2573
ENCODING 9587
BBX 15 15 0 -2
BITMAP
8002
4004
2008
1010
0820
0440
0280
0100
0280
0440
0820
1010
2008
4004
8002
ENDCHAR
STARTCHAR uni2581
ENCODING 9601
BBX 15 2 0 -2
BITMAP
FFFE
FFFE
ENDCHAR
STARTCHAR uni2582
ENCODING 9602
BBX 15 4 0 -2
BITMAP
FFFE
FFFE
FFFE
FFFE
ENDCHAR
STARTCHAR uni2583
ENCODING 9603
BBX 15 6 0 -2
BITMAP
FFFE
FFFE
FFFE
FFFE
FFFE
FFFE
ENDCHAR
STARTCHAR dnblock
ENCODING 9604
BBX 15 8 0 -2
BITMAP
FFFE
FFFE
FFFE
FFFE
FFFE
FFFE
FFFE
FFFE
ENDCHAR
STARTCHAR uni2585
ENCODING 9605
BBX 15 10 0 -2
BITMAP
FFFE
FFFE
FFFE
FFFE
FFFE
FFFE
FFFE
FFFE
FFFE
FFFE
ENDCHAR
STARTCHAR uni2586
ENCODING 9606
BBX 15 12 0 -2
BITMAP
FFFE
FFFE
FFFE
FFFE
FFFE
FFFE
FFFE
FFFE
FFFE
FFFE
FFFE
FFFE
ENDCHAR
STARTCHAR uni2587
ENCODING 9607
BBX 15 14 0 -2
BITMAP
FFFE
FFFE
FFFE
FFFE
FFFE
FFFE
FFFE
FFFE
FFFE
FFFE
FFFE
FFFE
FFFE
FFFE
ENDCHAR
STARTCHAR block
ENCODING 9608
BBX 15 16 0 -2
BITMAP
FFFE
FFFE
FFFE
FFFE
FFFE
FFFE
FFFE
FFFE
FFFE
FFFE
FFFE
FFFE
FFFE
FFFE
FFFE
FFFE
ENDCHAR
STARTCHAR uni2589
ENCODING 9609
BBX 14 16 0 -2
BITMAP
FFFC
FFFC
FFFC
FFFC
FFFC
FFFC
FFFC
FFFC
FFFC
FFFC
FFFC
FFFC
FFFC
FFFC
FFFC
FFFC
ENDCHAR
STARTCHAR uni258A
ENCODING 9610
BBX 12 16 0 -2
BITMAP
FFF0
FFF0
FFF0
FFF0
FFF0
FFF0
FFF0
FFF0
FFF0
FFF0
FFF0
FFF0
FFF0
FFF0
FFF0
FFF0
ENDCHAR
STARTCHAR uni258B
ENCODING 9611
BBX 10 16 0 -2
BITMAP
FFC0
FFC0
FFC0
FFC0
FFC0
FFC0
FFC0
FFC0
FFC0
FFC0
FFC0
FFC0
FFC0
FFC0
FFC0
FFC0
ENDCHAR
STARTCHAR lfblock
ENCODING 9612
BBX 8 16 0 -2
BITMAP
FF
FF
FF
FF
FF
FF
FF
FF
FF
FF
FF
FF
FF
FF
FF
FF
ENDCHAR
STARTCHAR uni258D
ENCODING 9613
BBX 6 16 0 -2
BITMAP
FC
FC
FC
FC
FC
FC
FC
FC
FC
FC
FC
FC
FC
FC
FC
FC
ENDCHAR
STARTCHAR uni258E
ENCODING 9614
BBX 4 16 0 -2
BITMAP
F0
F0
F0
F0
F0
F0
F0
F0
F0
F0
F0
F0
F0
F0
F0
F0
ENDCHAR
STARTCHAR uni258F
ENCODING 9615
BBX 2 16 0 -2
BITMAP
C0
C0
C0
C0
C0
C0
C0
C0
C0
C0
C0
C0
C0
C0
C0
C0
ENDCHAR
STARTCHAR dkshade
ENCODING 9619
BBX 15 16 0 -2
BITMAP
FFFE
CCCC
CCCE
FFFE
9B32
9B32
FFFE
FFFE
CCCC
CCCC
FFFE
B332
B332
FFFE
FFFE
E266
ENDCHAR
STARTCHAR uni2594
ENCODING 9620
BBX 15 2 0 12
BITMAP
FFFE
FFFE
ENDCHAR
STARTCHAR uni2595
ENCODING 9621
BBX 2 16 13 -2
BITMAP
C0
C0
C0
C0
C0
C0
C0
C0
C0
C0
C0
C0
C0
C0
C0
C0
ENDCHAR
STARTCHAR filledbox
ENCODING 9632
BBX 13 13 1 0
BITMAP
FFF8
FFF8
FFF8
FFF8
FFF8
FFF8
FFF8
FFF8
FFF8
FFF8
FFF8
FFF8
FFF8
ENDCHAR
STARTCHAR H22073
ENCODING 9633
BBX 13 13 1 0
BITMAP
FFF8
8008
8008
8008
8008
8008
8008
8008
8008
8008
8008
8008
FFF8
ENDCHAR
STARTCHAR triagup
ENCODING 9650
BBX 13 13 1 0
BITMAP
0200
0200
0700
0700
0F80
0F80
1FC0
1FC0
3FE0
3FE0
7FF0
7FF0
FFF8
ENDCHAR
STARTCHAR uni25B3
ENCODING 9651
BBX 13 13 1 0
BITMAP
0200
0200
0500
0500
0880
0880
1040
1040
2020
2020
4010
4010
FFF8
ENDCHAR
STARTCHAR triagdn
ENCODING 9660
BBX 11 11 2 1
BITMAP
FFE0
7FC0
7FC0
3F80
3F80
1F00
1F00
0E00
0E00
0400
0400
ENDCHAR
STARTCHAR uni25BD
ENCODING 9661
BBX 11 11 2 1
BITMAP
FFE0
4040
4040
2080
2080
1100
1100
0A00
0A00
0400
0400
ENDCHAR
STARTCHAR uni25C6
ENCODING 9670
BBX 15 15 0 -1
BITMAP
0100
0380
07C0
0FE0
1FF0
3FF8
7FFC
FFFE
7FFC
3FF8
1FF0
0FE0
07C0
0380
0100
ENDCHAR
STARTCHAR uni25C7
ENCODING 9671
BBX 15 15 0 -1
BITMAP
0100
0280
0440
0820
1010
2008
4004
8002
4004
2008
1010
0820
0440
0280
0100
ENDCHAR
STARTCHAR circle
ENCODING 9675
BBX 13 13 1 0
BITMAP
0F80
38E0
6030
6030
C018
C018
C018
C018
C018
6030
6030
38E0
0F80
ENDCHAR
STARTCHAR uni25CE
ENCODING 9678
BBX 13 13 1 0
BITMAP
0F80
3060
4710
4890
9048
A028
A028
A028
9048
4890
4710
3060
0F80
ENDCHAR
STARTCHAR H18533
ENCODING 9679
BBX 13 13 1 0
BITMAP
0F80
3FE0
7FF0
7FF0
FFF8
FFF8
FFF8
FFF8
FFF8
7FF0
7FF0
3FE0
0F80
ENDCHAR
STARTCHAR uni25E2
ENCODING 9698
BBX 8 8 7 -2
BITMAP
01
03
07
0F
1F
3F
7F
FF
ENDCHAR
STARTCHAR uni25E3
ENCODING 9699
BBX 8 8 0 -2
BITMAP
80
C0
E0
F0
F8
FC
FE
FF
ENDCHAR
STARTCHAR uni25E4
ENCODING 9700
BBX 8 8 0 6
BITMAP
FF
FE
FC
F8
F0
E0
C0
80
ENDCHAR
STARTCHAR uni25E5
ENCODING 9701
BBX 8 8 7 6
BITMAP
FF
7F
3F
1F
0F
07
03
01
ENDCHAR
STARTCHAR uni2605
ENCODING 9733
BBX 15 15 0 -1
BITMAP
0100
0100
0380
0380
0380
07C0
FFFE
7FFC
3FF8
0FE0
0FE0
1FF0
1EF0
1830
2008
ENDCHAR
STARTCHAR uni2606
ENCODING 9734
BBX 15 15 0 -1
BITMAP
0100
0100
0280
0280
0280
0440
FC7E
4004
3018
0820
0820
1190
1650
1830
2008
ENDCHAR
STARTCHAR uni2609
ENCODING 9737
BBX 7 7 4 2
BITMAP
38
44
82
92
82
44
38
ENDCHAR
STARTCHAR female
ENCODING 9792
BBX 11 14 2 -1
BITMAP
0E00
1100
1100
1100
0E00
0400
0400
FFE0
0400
0400
0400
0400
0400
0400
ENDCHAR
STARTCHAR male
ENCODING 9794
BBX 9 14 3 -1
BITMAP
0800
1C00
2A00
4900
8880
0800
0800
0800
0800
1C00
2200
2200
2200
1C00
ENDCHAR
STARTCHAR uni2E81
ENCODING 11905
BBX 13 16 0 -2
BITMAP
0010
00F8
1F00
1000
1000
1000
1000
1000
1000
1000
1000
1000
2000
2000
4000
8000
ENDCHAR
STARTCHAR uni2E84
ENCODING 11908
BBX 14 15 1 -2
BITMAP
FFE0
0020
0020
0020
0020
0020
0020
0020
0020
0020
0024
0014
0014
000C
0004
ENDCHAR
STARTCHAR uni2E88
ENCODING 11912
BBX 13 8 1 6
BITMAP
1000
1000
1000
1FF8
2008
2010
4020
8000
ENDCHAR
STARTCHAR uni2E8B
ENCODING 11915
BBX 12 14 2 -1
BITMAP
FF80
8080
8080
8080
8080
8080
8080
8500
8200
8000
8010
8010
8010
7FF0
ENDCHAR
STARTCHAR uni2E8C
ENCODING 11916
BBX 11 6 2 8
BITMAP
0400
8420
4420
2440
2480
0400
ENDCHAR
STARTCHAR uni2E97
ENCODING 11927
BBX 14 16 0 -2
BITMAP
0400
0400
0400
0400
0400
2490
2448
2448
4424
4424
4424
8424
0400
0400
1400
0800
ENDCHAR
STARTCHAR uni2EA7
ENCODING 11943
BBX 15 8 0 6
BITMAP
0100
1100
1100
1FF8
2100
4100
0100
FFFE
ENDCHAR
STARTCHAR uni2EAA
ENCODING 11946
BBX 8 13 0 -1
BITMAP
7F
02
04
08
48
48
4F
48
48
48
4B
5C
E0
ENDCHAR
STARTCHAR uni2EAE
ENCODING 11950
BBX 15 7 0 7
BITMAP
1040
1040
1F7E
2890
2488
4508
8000
ENDCHAR
STARTCHAR uni2EB3
ENCODING 11955
BBX 15 6 0 6
BITMAP
7FFE
4002
8444
0820
1010
2008
ENDCHAR
STARTCHAR uni2EB6
ENCODING 11958
BBX 15 12 0 2
BITMAP
0820
0440
7FFC
0100
3FF8
0200
FFFE
0400
0800
1000
2000
C000
ENDCHAR
STARTCHAR uni2EB7
ENCODING 11959
BBX 15 12 0 2
BITMAP
0820
0420
0440
7FFC
0100
0100
0100
3FF8
0100
0100
0100
FFFE
ENDCHAR
STARTCHAR uni2EBB
ENCODING 11963
BBX 15 8 0 6
BITMAP
0100
3FF8
0108
FFFE
0108
3FF8
0100
7FFC
ENDCHAR
STARTCHAR uni2ECA
ENCODING 11978
BBX 7 13 0 0
BITMAP
7E
42
42
42
7E
08
08
4E
48
48
48
4E
F0
ENDCHAR
STARTCHAR uni2FF0
ENCODING 12272
BBX 12 13 2 0
BITMAP
B6D0
0410
8400
8010
0410
8400
8010
0410
8400
8010
0410
8400
B6D0
ENDCHAR
STARTCHAR uni2FF1
ENCODING 12273
BBX 12 13 2 0
BITMAP
B6D0
0010
8000
8010
0010
8000
B6D0
0010
8000
8010
0010
8000
B6D0
ENDCHAR
STARTCHAR uni2FF2
ENCODING 12274
BBX 13 13 1 0
BITMAP
B368
8888
0880
0000
8888
8888
0000
0880
8888
8008
0880
8880
B328
ENDCHAR
STARTCHAR uni2FF3
ENCODING 12275
BBX 12 13 2 0
BITMAP
B6D0
0010
8000
8010
36D0
8000
8010
0010
B6C0
8010
0010
8000
B6D0
ENDCHAR
STARTCHAR uni2FF4
ENCODING 12276
BBX 13 13 1 0
BITMAP
B368
8008
0000
0C80
8088
8008
0880
0880
8008
8C88
0000
8000
B328
ENDCHAR
STARTCHAR uni2FF5
ENCODING 12277
BBX 12 13 2 0
BITMAP
B6D0
0010
8000
8010
1B10
9100
9110
0010
9100
9110
0010
9100
B6D0
ENDCHAR
STARTCHAR uni2FF6
ENCODING 12278
BBX 12 13 2 0
BITMAP
B6D0
1110
9100
8010
1110
9100
8010
1110
9700
8010
0010
8000
B6D0
ENDCHAR
STARTCHAR uni2FF7
ENCODING 12279
BBX 12 13 2 0
BITMAP
B6D0
0010
8000
8010
1B50
9000
8010
1010
9B40
8010
0010
8000
B6D0
ENDCHAR
STARTCHAR uni2FF8
ENCODING 12280
BBX 12 13 2 0
BITMAP
B6D0
0010
8000
8010
0CD0
8800
8010
0810
8800
8010
0810
8800
B6D0
ENDCHAR
STARTCHAR uni2FF9
ENCODING 12281
BBX 12 13 2 0
BITMAP
B6D0
0010
8000
8010
6D10
8100
8010
0010
8100
8110
0010
8100
B6D0
ENDCHAR
STARTCHAR uni2FFA
ENCODING 12282
BBX 12 13 2 0
BITMAP
B6D0
0810
8800
8010
0810
8800
8010
0810
8800
8DB0
0010
8000
B6D0
ENDCHAR
STARTCHAR uni2FFB
ENCODING 12283
BBX 13 12 1 0
BITMAP
DB80
8080
0080
8B68
8888
0088
8800
0888
CD88
0000
0808
0BB8
ENDCHAR
STARTCHAR uni3001
ENCODING 12289
BBX 4 4 2 0
BITMAP
80
60
30
10
ENDCHAR
STARTCHAR uni3002
ENCODING 12290
BBX 4 4 2 0
BITMAP
60
90
90
60
ENDCHAR
STARTCHAR uni3003
ENCODING 12291
BBX 6 6 4 4
BITMAP
24
24
24
48
48
90
ENDCHAR
STARTCHAR uni3005
ENCODING 12293
BBX 10 11 2 1
BITMAP
1000
1000
1080
3FC0
2080
4100
8200
1400
0800
0400
0400
ENDCHAR
STARTCHAR uni3006
ENCODING 12294
BBX 9 14 4 0
BITMAP
0400
0380
0180
0100
0200
0E00
3200
4500
8400
8800
8800
9000
5000
2000
ENDCHAR
STARTCHAR uni3007
ENCODING 12295
BBX 14 13 1 -1
BITMAP
0780
1860
2010
4008
4008
8004
8004
8004
4008
4008
2010
1860
0780
ENDCHAR
STARTCHAR uni3008
ENCODING 12296
BBX 7 13 7 0
BITMAP
02
04
08
10
20
40
80
40
20
10
08
04
02
ENDCHAR
STARTCHAR uni3009
ENCODING 12297
BBX 7 13 2 0
BITMAP
80
40
20
10
08
04
02
04
08
10
20
40
80
ENDCHAR
STARTCHAR uni300A
ENCODING 12298
BBX 10 15 4 -1
BITMAP
0100
0240
0480
0900
1200
2400
4800
9000
4800
2400
1200
0900
0480
0240
0100
ENDCHAR
STARTCHAR uni300B
ENCODING 12299
BBX 10 15 2 -1
BITMAP
2000
9000
4800
2400
1200
0900
0480
0240
0480
0900
1200
2400
4800
9000
2000
ENDCHAR
STARTCHAR uni300C
ENCODING 12300
BBX 4 11 10 2
BITMAP
F0
80
80
80
80
80
80
80
80
80
80
ENDCHAR
STARTCHAR uni300D
ENCODING 12301
BBX 4 11 2 -1
BITMAP
10
10
10
10
10
10
10
10
10
10
F0
ENDCHAR
STARTCHAR uni300E
ENCODING 12302
BBX 6 11 8 2
BITMAP
FC
84
BC
A0
A0
A0
A0
A0
A0
A0
E0
ENDCHAR
STARTCHAR uni300F
ENCODING 12303
BBX 6 11 2 -1
BITMAP
1C
14
14
14
14
14
14
14
F4
84
FC
ENDCHAR
STARTCHAR uni3010
ENCODING 12304
BBX 7 14 7 -1
BITMAP
FE
FC
F8
F0
F0
E0
E0
E0
E0
F0
F0
F8
FC
FE
ENDCHAR
STARTCHAR uni3011
ENCODING 12305
BBX 7 14 2 -1
BITMAP
FE
7E
3E
1E
1E
0E
0E
0E
0E
1E
1E
3E
7E
FE
ENDCHAR
STARTCHAR uni3012
ENCODING 12306
BBX 13 11 1 0
BITMAP
FFF8
0000
0000
FFF8
0200
0200
0200
0200
0200
0200
0200
ENDCHAR
STARTCHAR uni3013
ENCODING 12307
BBX 13 9 1 2
BITMAP
FFF8
FFF8
FFF8
0000
0000
0000
FFF8
FFF8
FFF8
ENDCHAR
STARTCHAR uni3014
ENCODING 12308
BBX 3 14 10 -1
BITMAP
20
40
80
80
80
80
80
80
80
80
80
80
40
20
ENDCHAR
STARTCHAR uni3015
ENCODING 12309
BBX 3 14 2 -1
BITMAP
80
40
20
20
20
20
20
20
20
20
20
20
40
80
ENDCHAR
STARTCHAR uni3016
ENCODING 12310
BBX 7 14 7 -1
BITMAP
FE
84
88
88
90
90
90
90
90
90
88
88
84
FE
ENDCHAR
STARTCHAR uni3017
ENCODING 12311
BBX 7 14 2 -1
BITMAP
FE
42
22
22
12
12
12
12
12
12
22
22
42
FE
ENDCHAR
STARTCHAR uni301D
ENCODING 12317
BBX 8 4 5 8
BITMAP
CC
66
22
11
ENDCHAR
STARTCHAR uni301E
ENCODING 12318
BBX 8 4 4 8
BITMAP
33
66
44
88
ENDCHAR
STARTCHAR uni3021
ENCODING 12321
BBX 1 13 8 -1
BITMAP
80
80
80
80
80
80
80
80
80
80
80
80
80
ENDCHAR
STARTCHAR uni3022
ENCODING 12322
BBX 5 13 5 -1
BITMAP
08
88
88
88
88
88
88
88
88
88
88
88
08
ENDCHAR
STARTCHAR uni3023
ENCODING 12323
BBX 9 13 3 -1
BITMAP
8080
8880
8880
8880
8880
8880
8880
8880
8880
8880
8880
8880
8080
ENDCHAR
STARTCHAR uni3024
ENCODING 12324
BBX 10 12 3 1
BITMAP
0080
00C0
0180
0100
C300
3200
0C00
0E00
1300
2180
4100
8000
ENDCHAR
STARTCHAR uni3025
ENCODING 12325
BBX 9 14 3 -1
BITMAP
2080
2080
4100
4100
F200
0C00
1200
2100
4100
4100
4100
4100
2200
1C00
ENDCHAR
STARTCHAR uni3026
ENCODING 12326
BBX 13 7 1 5
BITMAP
0200
0200
0200
0200
0200
0200
FFF8
ENDCHAR
STARTCHAR uni3027
ENCODING 12327
BBX 13 9 1 4
BITMAP
0200
0200
0200
0200
0200
FFF8
0000
0000
FFF8
ENDCHAR
STARTCHAR uni3028
ENCODING 12328
BBX 13 12 1 1
BITMAP
0200
0200
0200
0200
0200
FFF8
0000
0000
FFF8
0000
0000
FFF8
ENDCHAR
STARTCHAR uni3029
ENCODING 12329
BBX 14 15 0 -1
BITMAP
0800
0C00
0800
1FFC
1820
2420
2240
4140
8080
0140
0220
0410
0810
1000
6000
ENDCHAR
STARTCHAR uni303E
ENCODING 12350
BBX 12 13 2 0
BITMAP
B6D0
0010
8000
9C50
2390
8000
8110
3F90
8400
BF90
1010
8000
B6D0
ENDCHAR
STARTCHAR uni3041
ENCODING 12353
BBX 11 13 2 -2
BITMAP
1000
1000
17C0
F800
1100
1F80
3240
5220
8C20
8820
9440
6080
0300
ENDCHAR
STARTCHAR uni3042
ENCODING 12354
BBX 13 15 1 -1
BITMAP
0800
0800
08C0
0F00
F800
0880
0880
3FE0
4910
8908
8A08
8408
4C08
3210
0060
ENDCHAR
STARTCHAR uni3043
ENCODING 12355
BBX 10 9 3 0
BITMAP
8000
4000
4100
4080
4040
40C0
4880
5000
3000
ENDCHAR
STARTCHAR uni3044
ENCODING 12356
BBX 13 11 2 0
BITMAP
8000
4000
4040
40A0
4010
4008
8008
8418
8810
5000
3000
ENDCHAR
STARTCHAR uni3045
ENCODING 12357
BBX 8 14 3 -1
BITMAP
40
38
04
08
00
8E
71
01
01
02
02
04
18
60
ENDCHAR
STARTCHAR uni3046
ENCODING 12358
BBX 10 15 2 -1
BITMAP
2000
1E00
0100
0600
0000
8780
7840
0040
0040
0040
0080
0080
0300
0400
3800
ENDCHAR
STARTCHAR uni3047
ENCODING 12359
BBX 11 13 2 -1
BITMAP
1000
0C00
0200
0400
0000
0F00
7200
0400
0C00
1200
2200
4100
80E0
ENDCHAR
STARTCHAR uni3048
ENCODING 12360
BBX 12 15 2 -1
BITMAP
2000
1C00
0200
0400
0000
0F00
F200
0400
0800
0C00
1200
1200
2200
4100
80F0
ENDCHAR
STARTCHAR uni3049
ENCODING 12361
BBX 13 12 2 -1
BITMAP
1000
1000
1020
FC10
1008
1790
1840
3020
5020
D020
54C0
2300
ENDCHAR
STARTCHAR uni304A
ENCODING 12362
BBX 14 14 1 -1
BITMAP
0800
0810
0F08
7804
0818
0800
0BE0
0C10
3808
4808
C808
6A30
19C0
0800
ENDCHAR
STARTCHAR uni304B
ENCODING 12363
BBX 14 14 1 -1
BITMAP
0400
0400
0400
0420
4710
3888
0884
0884
0888
1080
1080
2100
4900
8600
ENDCHAR
STARTCHAR uni304C
ENCODING 12364
BBX 15 15 0 -1
BITMAP
0008
0404
0412
0408
0424
4710
3888
0884
0884
0888
1090
1080
2100
4900
8600
ENDCHAR
STARTCHAR uni304D
ENCODING 12365
BBX 8 15 3 -1
BITMAP
10
10
13
1C
E8
07
1C
E2
02
1F
01
80
80
40
3E
ENDCHAR
STARTCHAR uni304E
ENCODING 12366
BBX 13 15 2 -1
BITMAP
1000
1020
1310
1C48
E820
0710
1C00
E200
0200
1F00
0100
8000
8000
4000
3E00
ENDCHAR
STARTCHAR uni304F
ENCODING 12367
BBX 6 14 3 -1
BITMAP
08
04
04
08
10
20
40
80
40
20
10
08
04
04
ENDCHAR
STARTCHAR uni3050
ENCODING 12368
BBX 12 14 3 -1
BITMAP
0840
0420
0490
0840
1020
2000
4000
8000
4000
2000
1000
0800
0400
0400
ENDCHAR
STARTCHAR uni3051
ENCODING 12369
BBX 13 14 1 -1
BITMAP
4100
2080
2080
2080
4080
40F8
8F80
8080
8080
A080
A080
C080
4100
0200
ENDCHAR
STARTCHAR uni3052
ENCODING 12370
BBX 14 15 1 -1
BITMAP
0010
4108
20A4
2090
2088
4080
40F8
8F80
8080
8080
A080
A080
C080
4100
0200
ENDCHAR
STARTCHAR uni3053
ENCODING 12371
BBX 11 11 2 1
BITMAP
4000
3F80
0200
0C00
1000
0000
8000
8000
8000
4040
3FE0
ENDCHAR
STARTCHAR uni3054
ENCODING 12372
BBX 13 12 2 1
BITMAP
0020
4010
3F48
0220
0C10
1000
0000
8000
8000
8000
4040
3FE0
ENDCHAR
STARTCHAR uni3055
ENCODING 12373
BBX 10 14 2 -1
BITMAP
1000
08C0
0B00
FC00
0400
0200
0100
0780
2080
4000
4000
4000
2000
1F80
ENDCHAR
STARTCHAR uni3056
ENCODING 12374
BBX 13 14 2 -1
BITMAP
1020
0810
0B48
FC20
0410
0200
0100
0780
2080
4000
4000
4000
2000
1F80
ENDCHAR
STARTCHAR uni3057
ENCODING 12375
BBX 10 14 2 -1
BITMAP
8000
4000
4000
4000
4000
4000
4000
4000
4000
4040
4080
4100
2600
1800
ENDCHAR
STARTCHAR uni3058
ENCODING 12376
BBX 12 14 2 -1
BITMAP
8040
4020
4090
4040
4020
4000
4000
4000
4000
4040
4080
4100
2600
1800
ENDCHAR
STARTCHAR uni3059
ENCODING 12377
BBX 12 15 1 -2
BITMAP
0600
0200
8200
7FF0
0200
0E00
1300
1280
1280
0C80
0080
0100
0100
0200
0C00
ENDCHAR
STARTCHAR uni305A
ENCODING 12378
BBX 14 16 1 -2
BITMAP
0610
0248
0224
8210
7FE0
0200
0E00
1300
1280
1280
0C80
0080
0100
0100
0200
0C00
ENDCHAR
STARTCHAR uni305B
ENCODING 12379
BBX 13 14 1 -1
BITMAP
0100
2080
1080
1080
17F8
F880
1080
1080
1480
1280
1100
1000
1000
0FE0
ENDCHAR
STARTCHAR uni305C
ENCODING 12380
BBX 14 15 1 -1
BITMAP
0010
0108
20A4
1090
1088
17E0
F880
1080
1080
1480
1280
1100
1000
1000
0FE0
ENDCHAR
STARTCHAR uni305D
ENCODING 12381
BBX 12 13 1 0
BITMAP
2300
1C80
0100
0200
0C20
31F0
FE00
0400
0800
0800
0800
0400
03E0
ENDCHAR
STARTCHAR uni305E
ENCODING 12382
BBX 14 14 1 0
BITMAP
0010
2348
1CA4
0110
0200
0C20
31F0
FE00
0400
0800
0800
0800
0400
03E0
ENDCHAR
STARTCHAR uni305F
ENCODING 12383
BBX 13 13 1 0
BITMAP
0800
0800
8E00
7800
13C0
1060
1080
2000
2000
2400
4400
4210
81F8
ENDCHAR
STARTCHAR uni3060
ENCODING 12384
BBX 14 14 1 0
BITMAP
0010
0808
0824
8E10
7808
13C0
1060
1080
2000
2000
2400
4400
4210
81F8
ENDCHAR
STARTCHAR uni3061
ENCODING 12385
BBX 11 15 1 -2
BITMAP
0800
0800
0A00
0F00
F800
1000
1780
1840
3020
2020
0020
0040
0040
0180
0600
ENDCHAR
STARTCHAR uni3062
ENCODING 12386
BBX 14 15 1 -2
BITMAP
0810
0808
0A24
0F10
F808
1000
1780
1840
3020
2020
0020
0040
0040
0180
0600
ENDCHAR
STARTCHAR uni3063
ENCODING 12387
BBX 9 8 3 -1
BITMAP
0600
F900
4080
0080
0080
0100
0200
0C00
ENDCHAR
STARTCHAR uni3064
ENCODING 12388
BBX 12 11 1 0
BITMAP
03C0
0C20
F010
4010
0010
0010
0020
0020
0040
0180
0E00
ENDCHAR
STARTCHAR uni3065
ENCODING 12389
BBX 15 14 0 0
BITMAP
0008
0004
0012
03C8
0C24
F010
4010
0010
0010
0020
0020
0040
0180
0E00
ENDCHAR
STARTCHAR uni3066
ENCODING 12390
BBX 13 12 1 -1
BITMAP
0010
01F8
FF80
4200
0400
0800
0800
0800
0800
0800
0400
03E0
ENDCHAR
STARTCHAR uni3067
ENCODING 12391
BBX 14 12 1 -1
BITMAP
0010
01F8
FF80
4210
0408
0824
0810
0808
0800
0800
0400
03E0
ENDCHAR
STARTCHAR uni3068
ENCODING 12392
BBX 9 13 3 -1
BITMAP
1000
0800
0800
0900
0980
0E00
3800
4000
8000
8000
8000
4000
3F80
ENDCHAR
STARTCHAR uni3069
ENCODING 12393
BBX 12 15 3 -1
BITMAP
0040
0020
1090
0840
0820
0900
0980
0E00
3800
4000
8000
8000
8000
4000
3F80
ENDCHAR
STARTCHAR uni306A
ENCODING 12394
BBX 13 14 1 -1
BITMAP
0800
0820
0810
0F08
7808
0810
1040
1040
2040
2080
47C0
88A0
0890
0708
ENDCHAR
STARTCHAR uni306B
ENCODING 12395
BBX 13 14 1 -1
BITMAP
4000
2000
21F0
2610
4020
4000
4000
8000
8000
9400
A400
A210
41F8
4000
ENDCHAR
STARTCHAR uni306C
ENCODING 12396
BBX 14 14 1 -1
BITMAP
0400
0400
2200
23E0
2610
2A08
3208
2208
5408
54D0
8930
8928
94C4
6404
ENDCHAR
STARTCHAR uni306D
ENCODING 12397
BBX 14 14 1 -1
BITMAP
1000
1000
1000
10C0
7D20
1210
1410
1810
3010
5020
91E0
9230
5248
3184
ENDCHAR
STARTCHAR uni306E
ENCODING 12398
BBX 13 12 1 -1
BITMAP
0F80
3260
4210
8408
8408
8408
8808
8810
5010
2020
0040
0180
ENDCHAR
STARTCHAR uni306F
ENCODING 12399
BBX 13 14 1 -1
BITMAP
4100
2080
2080
2880
47F0
4080
4080
8080
9080
9080
A780
A8E0
C890
4708
ENDCHAR
STARTCHAR uni3070
ENCODING 12400
BBX 14 15 1 -1
BITMAP
0010
4108
20A4
2090
2888
47E0
4080
4080
8080
9080
9080
A780
A8E0
C890
4708
ENDCHAR
STARTCHAR uni3071
ENCODING 12401
BBX 14 15 1 -1
BITMAP
0018
4124
20A4
2098
2880
47E0
4080
4080
8080
9080
9080
A780
A8E0
C890
4708
ENDCHAR
STARTCHAR uni3072
ENCODING 12402
BBX 12 13 2 -1
BITMAP
0800
F880
1080
20C0
20A0
4090
4080
8080
8100
8100
8100
4200
3C00
ENDCHAR
STARTCHAR uni3073
ENCODING 12403
BBX 13 15 2 -1
BITMAP
0020
0010
0848
F820
1090
20C0
20A0
4090
4080
8080
8100
8100
8100
4200
3C00
ENDCHAR
STARTCHAR uni3074
ENCODING 12404
BBX 13 15 2 -1
BITMAP
0030
0048
0848
F830
1080
20C0
20A0
4090
4080
8080
8100
8100
8100
4200
3C00
ENDCHAR
STARTCHAR uni3075
ENCODING 12405
BBX 13 14 1 -1
BITMAP
0600
0100
0180
0200
0400
0400
0200
01C0
0730
0908
8918
B100
4D00
0200
ENDCHAR
STARTCHAR uni3076
ENCODING 12406
BBX 14 15 1 -1
BITMAP
0010
0608
0124
0190
0208
0400
0400
0200
01C0
0730
0908
8918
B100
4D00
0200
ENDCHAR
STARTCHAR uni3077
ENCODING 12407
BBX 14 15 1 -1
BITMAP
0018
0624
0124
0198
0200
0400
0400
0200
01C0
0730
0908
8918
B100
4D00
0200
ENDCHAR
STARTCHAR uni3078
ENCODING 12408
BBX 14 6 1 4
BITMAP
0C00
1300
2080
C040
0030
000C
ENDCHAR
STARTCHAR uni3079
ENCODING 12409
BBX 14 9 1 4
BITMAP
0010
0008
0024
0C10
1308
2080
C040
0030
000C
ENDCHAR
STARTCHAR uni307A
ENCODING 12410
BBX 14 9 1 4
BITMAP
0030
0048
0048
0C30
1300
2080
C040
0030
000C
ENDCHAR
STARTCHAR uni307B
ENCODING 12411
BBX 13 14 1 -1
BITMAP
40E0
2780
2080
2080
4880
47F0
4080
8080
9080
9080
A780
A8E0
C890
4708
ENDCHAR
STARTCHAR uni307C
ENCODING 12412
BBX 14 15 1 -1
BITMAP
0010
40C8
2784
2090
2088
4880
47F0
4080
8080
9080
9080
A780
A8E0
C890
4708
ENDCHAR
STARTCHAR uni307D
ENCODING 12413
BBX 14 14 1 -1
BITMAP
40D8
27A4
20A4
2098
4880
47F0
4080
8080
9080
9080
A780
A8E0
C890
4708
ENDCHAR
STARTCHAR uni307E
ENCODING 12414
BBX 11 14 2 -1
BITMAP
0400
8400
7FC0
0480
0400
4400
3F80
0400
0400
0400
7400
8F00
84C0
7820
ENDCHAR
STARTCHAR uni307F
ENCODING 12415
BBX 13 14 1 -2
BITMAP
2600
1900
0100
0100
0200
0220
0220
3440
4F40
88E0
9090
6088
0100
0200
ENDCHAR
STARTCHAR uni3080
ENCODING 12416
BBX 14 14 1 -1
BITMAP
1000
0800
0900
0F80
F810
0808
3804
4C0C
4C10
2C00
1820
1020
1030
0FE0
ENDCHAR
STARTCHAR uni3081
ENCODING 12417
BBX 12 14 1 -1
BITMAP
0200
4100
2100
2100
3F80
2240
5220
8A10
8410
8A10
9020
6020
0040
0180
ENDCHAR
STARTCHAR uni3082
ENCODING 12418
BBX 12 15 1 -1
BITMAP
0400
0400
0400
0400
4780
3C00
0820
0810
8990
7E10
0810
0810
0810
0810
07E0
ENDCHAR
STARTCHAR uni3083
ENCODING 12419
BBX 11 13 2 -2
BITMAP
0C00
0200
0200
2400
91C0
7E20
0820
0840
0580
0400
0200
0200
0100
ENDCHAR
STARTCHAR uni3084
ENCODING 12420
BBX 13 15 1 -2
BITMAP
0400
0300
0080
0080
1300
2060
2390
FC08
1008
1110
08E0
0400
0400
0200
0100
ENDCHAR
STARTCHAR uni3085
ENCODING 12421
BBX 11 13 2 -2
BITMAP
0400
0200
4200
4780
4A40
9220
9220
A220
AA20
C640
4380
0400
0800
ENDCHAR
STARTCHAR uni3086
ENCODING 12422
BBX 13 15 2 -2
BITMAP
0200
4100
4100
47C0
4920
8910
9110
9108
9108
A108
A910
C560
4380
0200
0C00
ENDCHAR
STARTCHAR uni3087
ENCODING 12423
BBX 11 12 3 -1
BITMAP
1000
0800
0900
0F80
0800
0800
0800
0800
7E00
8980
8840
7020
ENDCHAR
STARTCHAR uni3088
ENCODING 12424
BBX 13 14 1 -1
BITMAP
0400
0200
0200
0220
0270
0380
0200
0200
0200
3E00
4380
8260
8410
7808
ENDCHAR
STARTCHAR uni3089
ENCODING 12425
BBX 10 15 3 -2
BITMAP
C000
2000
1000
1000
2000
4000
8000
8700
9880
A040
C040
0040
0180
0600
1800
ENDCHAR
STARTCHAR uni308A
ENCODING 12426
BBX 8 15 3 -2
BITMAP
80
44
4A
51
51
51
61
61
41
42
02
04
04
08
10
ENDCHAR
STARTCHAR uni308B
ENCODING 12427
BBX 10 14 4 -1
BITMAP
0400
7A00
4200
0400
0800
1000
2F00
7080
8040
0040
1840
2440
2480
1F00
ENDCHAR
STARTCHAR uni308C
ENCODING 12428
BBX 14 14 1 -1
BITMAP
1000
1000
1180
1D40
F240
1440
1840
1080
3080
5080
5084
D084
3048
1030
ENDCHAR
STARTCHAR uni308D
ENCODING 12429
BBX 11 14 2 -1
BITMAP
0F00
7100
0200
0400
0800
1380
3C40
6020
8020
0020
0040
0040
0180
0600
ENDCHAR
STARTCHAR uni308E
ENCODING 12430
BBX 11 12 2 0
BITMAP
2000
1000
1000
1C00
F3C0
1C20
3020
5020
9020
D040
3080
1300
ENDCHAR
STARTCHAR uni308F
ENCODING 12431
BBX 13 14 1 -1
BITMAP
2000
1000
1000
1E00
F000
17C0
1830
1008
3008
5008
9008
D010
3020
10C0
ENDCHAR
STARTCHAR uni3090
ENCODING 12432
BBX 13 13 1 -1
BITMAP
0F00
3100
0100
0100
0FC0
1120
2110
4208
8208
84C8
4928
3110
00E0
ENDCHAR
STARTCHAR uni3091
ENCODING 12433
BBX 12 14 2 -1
BITMAP
3E00
0200
0400
1F80
2040
4040
0E40
1280
0F00
0800
1000
60E0
9910
8620
ENDCHAR
STARTCHAR uni3092
ENCODING 12434
BBX 10 14 3 -1
BITMAP
1000
0880
8F00
7800
0840
0C40
1280
2280
2300
4600
0A00
1200
1000
0FC0
ENDCHAR
STARTCHAR uni3093
ENCODING 12435
BBX 10 14 3 -1
BITMAP
1800
0800
0800
0800
1000
1000
1000
1C00
3200
2200
2200
4240
4380
8000
ENDCHAR
STARTCHAR uni309B
ENCODING 12443
BBX 8 5 3 7
BITMAP
88
44
66
33
22
ENDCHAR
STARTCHAR uni309C
ENCODING 12444
BBX 4 4 5 8
BITMAP
60
90
90
60
ENDCHAR
STARTCHAR uni309D
ENCODING 12445
BBX 10 9 4 2
BITMAP
8000
6000
1800
0C00
0600
0300
0180
18C0
07C0
ENDCHAR
STARTCHAR uni309E
ENCODING 12446
BBX 11 13 2 1
BITMAP
0600
0180
00C0
0C40
0300
C180
3080
0C00
0600
0300
0180
00C0
1FE0
ENDCHAR
STARTCHAR uni30A1
ENCODING 12449
BBX 9 11 3 -1
BITMAP
FF80
0080
1300
0C00
0800
0800
0800
1000
1000
2000
4000
ENDCHAR
STARTCHAR uni30A2
ENCODING 12450
BBX 11 13 2 -1
BITMAP
FFE0
0020
0040
0080
0B00
0400
0400
0400
0400
0800
0800
1000
2000
ENDCHAR
STARTCHAR uni30A3
ENCODING 12451
BBX 7 12 3 -1
BITMAP
02
02
04
08
18
28
48
88
08
08
08
08
ENDCHAR
STARTCHAR uni30A4
ENCODING 12452
BBX 8 15 2 -2
BITMAP
01
01
02
02
04
0C
14
24
44
84
04
04
04
04
04
ENDCHAR
STARTCHAR uni30A5
ENCODING 12453
BBX 10 13 3 -1
BITMAP
0800
0800
8880
FFC0
8080
8080
8100
0100
0200
0200
0400
1800
6000
ENDCHAR
STARTCHAR uni30A6
ENCODING 12454
BBX 12 14 2 -1
BITMAP
0400
0400
8420
FFF0
8020
8020
8040
0040
0080
0080
0100
0200
0C00
3000
ENDCHAR
STARTCHAR uni30A7
ENCODING 12455
BBX 11 8 2 3
BITMAP
0080
7FC0
0400
0400
0400
0400
0440
FFE0
ENDCHAR
STARTCHAR uni30A8
ENCODING 12456
BBX 13 9 1 2
BITMAP
0020
7FF0
0200
0200
0200
0200
0200
0210
FFF8
ENDCHAR
STARTCHAR uni30A9
ENCODING 12457
BBX 11 12 2 0
BITMAP
0400
0400
0440
FFE0
0C00
1400
2400
4400
8400
0400
1400
0800
ENDCHAR
STARTCHAR uni30AA
ENCODING 12458
BBX 13 14 1 -1
BITMAP
0100
0100
0100
0110
FFF8
0100
0300
0500
0900
1100
2100
4100
8500
0200
ENDCHAR
STARTCHAR uni30AB
ENCODING 12459
BBX 11 14 1 -1
BITMAP
0400
0400
0400
0440
7FE0
0440
0440
0840
0840
1040
1040
2080
4280
8100
ENDCHAR
STARTCHAR uni30AC
ENCODING 12460
BBX 14 15 1 -1
BITMAP
0010
0408
0424
0410
0448
7FE0
0440
0440
0840
0840
1040
1040
2080
4280
8100
ENDCHAR
STARTCHAR uni30AD
ENCODING 12461
BBX 10 14 2 -1
BITMAP
4000
4000
2000
1380
FC00
0800
0800
05C0
FE00
0200
0100
0100
0080
0040
ENDCHAR
STARTCHAR uni30AE
ENCODING 12462
BBX 13 15 2 -1
BITMAP
0020
4010
4048
2020
1390
FC00
0800
0800
05C0
FE00
0200
0100
0100
0080
0040
ENDCHAR
STARTCHAR uni30AF
ENCODING 12463
BBX 11 14 2 -1
BITMAP
0800
0800
0840
0FE0
1040
1080
2080
4100
8100
0200
0400
0800
3000
C000
ENDCHAR
STARTCHAR uni30B0
ENCODING 12464
BBX 14 15 1 -1
BITMAP
0010
0808
0824
0810
0FC8
1040
1080
2080
4100
8100
0200
0400
0800
3000
C000
ENDCHAR
STARTCHAR uni30B1
ENCODING 12465
BBX 12 14 1 -1
BITMAP
1000
1000
1020
1FF0
2080
4080
8100
0100
0200
0200
0400
0800
1000
6000
ENDCHAR
STARTCHAR uni30B2
ENCODING 12466
BBX 14 15 1 -1
BITMAP
0010
1008
1024
1010
1FE8
2080
4080
8100
0100
0200
0200
0400
0800
1000
6000
ENDCHAR
STARTCHAR uni30B3
ENCODING 12467
BBX 10 8 3 3
BITMAP
0080
FFC0
0080
0080
0080
0100
0100
FF80
ENDCHAR
STARTCHAR uni30B4
ENCODING 12468
BBX 13 11 2 3
BITMAP
0020
0010
0048
0020
0090
FFC0
0080
0080
0080
0100
FF80
ENDCHAR
STARTCHAR uni30B5
ENCODING 12469
BBX 13 14 1 -1
BITMAP
0080
0880
0880
0880
0890
FFF8
0880
0880
0880
0880
0900
0100
0200
0400
ENDCHAR
STARTCHAR uni30B6
ENCODING 12470
BBX 14 16 1 -2
BITMAP
0010
0008
00A4
0890
0888
0880
0890
FFF8
0880
0880
0880
0880
0900
0100
0200
0400
ENDCHAR
STARTCHAR uni30B7
ENCODING 12471
BBX 11 12 2 0
BITMAP
6000
1000
0800
C020
2040
1080
0100
0200
0400
0800
9000
6000
ENDCHAR
STARTCHAR uni30B8
ENCODING 12472
BBX 13 15 2 -1
BITMAP
0020
0010
0048
6020
1010
0800
C020
2040
1080
0100
0200
0400
0800
9000
6000
ENDCHAR
STARTCHAR uni30B9
ENCODING 12473
BBX 11 11 2 0
BITMAP
FF80
0080
0100
0100
0200
0400
0A00
1100
2080
4060
8020
ENDCHAR
STARTCHAR uni30BA
ENCODING 12474
BBX 13 15 2 -1
BITMAP
0020
0010
0048
0020
FF90
0080
0100
0100
0200
0400
0A00
1100
2080
4060
8020
ENDCHAR
STARTCHAR uni30BB
ENCODING 12475
BBX 11 13 1 0
BITMAP
0800
0800
0800
0800
0FC0
F840
0880
0900
0800
0800
0800
0840
07E0
ENDCHAR
STARTCHAR uni30BC
ENCODING 12476
BBX 14 14 1 0
BITMAP
0010
0808
0824
0810
0808
0FC0
F840
0880
0900
0800
0800
0800
0840
07E0
ENDCHAR
STARTCHAR uni30BD
ENCODING 12477
BBX 10 13 2 -1
BITMAP
0080
0040
4040
2040
1080
1880
0900
0100
0200
0400
0800
3000
C000
ENDCHAR
STARTCHAR uni30BE
ENCODING 12478
BBX 14 16 1 -2
BITMAP
0010
0008
0024
0090
0048
4040
2040
1080
1880
0900
0100
0200
0400
0800
3000
C000
ENDCHAR
STARTCHAR uni30BF
ENCODING 12479
BBX 11 14 1 -1
BITMAP
0800
0840
0FE0
0840
1040
1080
2080
4900
0500
0200
0500
0880
3000
C000
ENDCHAR
STARTCHAR uni30C0
ENCODING 12480
BBX 15 15 0 -1
BITMAP
0008
0804
0852
0FE8
0844
1040
1080
2080
4900
0500
0200
0500
0800
3000
C000
ENDCHAR
STARTCHAR uni30C1
ENCODING 12481
BBX 13 14 1 -1
BITMAP
0040
03E0
3E00
0200
0210
FFF8
0200
0200
0400
0400
0800
0800
1000
2000
ENDCHAR
STARTCHAR uni30C2
ENCODING 12482
BBX 15 16 0 -2
BITMAP
0008
0004
0052
03E8
3E04
0200
0210
FFF8
0200
0200
0400
0400
0800
0800
1000
2000
ENDCHAR
STARTCHAR uni30C3
ENCODING 12483
BBX 10 11 2 -1
BITMAP
1000
0C40
8440
6040
2080
0080
0100
0200
0400
1800
6000
ENDCHAR
STARTCHAR uni30C4
ENCODING 12484
BBX 10 13 2 -1
BITMAP
1000
0840
8440
4440
2080
2080
0100
0200
0400
0800
1000
2000
C000
ENDCHAR
STARTCHAR uni30C5
ENCODING 12485
BBX 14 15 1 -1
BITMAP
0010
0008
1024
0850
8448
4440
2080
2080
0100
0200
0400
0800
1000
2000
C000
ENDCHAR
STARTCHAR uni30C6
ENCODING 12486
BBX 13 15 1 -2
BITMAP
0040
3FE0
0000
0000
0010
FFF8
0200
0200
0400
0400
0800
0800
1000
2000
4000
ENDCHAR
STARTCHAR uni30C7
ENCODING 12487
BBX 15 16 0 -2
BITMAP
0008
0004
0052
3FE8
0004
0000
0010
FFF8
0200
0200
0400
0400
0800
0800
1000
2000
ENDCHAR
STARTCHAR uni30C8
ENCODING 12488
BBX 6 14 5 -1
BITMAP
80
80
80
80
C0
A0
98
8C
84
80
80
80
80
80
ENDCHAR
STARTCHAR uni30C9
ENCODING 12489
BBX 10 15 5 -1
BITMAP
0100
8080
8240
8100
8080
C000
A000
9800
8C00
8400
8000
8000
8000
8000
8000
ENDCHAR
STARTCHAR uni30CA
ENCODING 12490
BBX 13 14 1 -1
BITMAP
0200
0200
0200
0210
FFF8
0200
0200
0200
0200
0400
0400
0800
0800
1000
ENDCHAR
STARTCHAR uni30CB
ENCODING 12491
BBX 13 7 1 3
BITMAP
0040
3FE0
0000
0000
0000
0010
FFF8
ENDCHAR
STARTCHAR uni30CC
ENCODING 12492
BBX 11 14 2 -1
BITMAP
0040
7FE0
0040
0080
3080
0900
0500
0200
0300
04C0
0840
1000
2000
C000
ENDCHAR
STARTCHAR uni30CD
ENCODING 12493
BBX 10 15 2 -1
BITMAP
0800
0600
0200
0000
7F00
0200
0400
0C00
1500
24C0
4440
8400
0400
0400
0400
ENDCHAR
STARTCHAR uni30CE
ENCODING 12494
BBX 8 13 3 -1
BITMAP
01
01
01
02
02
04
04
08
08
10
20
40
80
ENDCHAR
STARTCHAR uni30CF
ENCODING 12495
BBX 13 9 1 1
BITMAP
0880
0440
0420
0810
0810
1008
2008
4008
8000
ENDCHAR
STARTCHAR uni30D0
ENCODING 12496
BBX 14 13 1 1
BITMAP
0010
0008
0024
0010
0888
0440
0420
0810
0810
1008
2008
4008
8000
ENDCHAR
STARTCHAR uni30D1
ENCODING 12497
BBX 14 12 1 1
BITMAP
0018
0024
0024
0898
0440
0420
0810
0810
1008
2008
4008
8000
ENDCHAR
STARTCHAR uni30D2
ENCODING 12498
BBX 8 11 4 1
BITMAP
80
80
84
86
98
E0
80
80
80
82
7F
ENDCHAR
STARTCHAR uni30D3
ENCODING 12499
BBX 13 14 2 0
BITMAP
0020
0010
0048
8020
8010
8400
8600
9800
E000
8000
8000
8000
8200
7F00
ENDCHAR
STARTCHAR uni30D4
ENCODING 12500
BBX 13 13 2 0
BITMAP
0030
0048
8048
8030
8400
8600
9800
E000
8000
8000
8000
8200
7F00
ENDCHAR
STARTCHAR uni30D5
ENCODING 12501
BBX 11 13 1 -1
BITMAP
0040
FFE0
0040
0080
0080
0100
0100
0200
0400
0800
1000
2000
4000
ENDCHAR
STARTCHAR uni30D6
ENCODING 12502
BBX 14 15 1 -1
BITMAP
0010
0008
0024
0090
FFC8
0080
0100
0100
0200
0200
0400
0800
1000
2000
4000
ENDCHAR
STARTCHAR uni30D7
ENCODING 12503
BBX 14 14 1 -1
BITMAP
0018
0024
00A4
FFD8
0080
0100
0100
0200
0200
0400
0800
1000
2000
4000
ENDCHAR
STARTCHAR uni30D8
ENCODING 12504
BBX 14 6 1 3
BITMAP
3000
4800
8600
0180
0060
001C
ENDCHAR
STARTCHAR uni30D9
ENCODING 12505
BBX 14 11 1 3
BITMAP
0010
0008
0024
0010
0008
3000
4800
8600
0180
0060
001C
ENDCHAR
STARTCHAR uni30DA
ENCODING 12506
BBX 14 10 1 3
BITMAP
0018
0024
0024
0018
3000
4800
8600
0180
0060
001C
ENDCHAR
STARTCHAR uni30DB
ENCODING 12507
BBX 13 14 1 -1
BITMAP
0200
0200
0200
0210
FFF8
0200
0200
1240
1220
2210
4210
0200
0A00
0400
ENDCHAR
STARTCHAR uni30DC
ENCODING 12508
BBX 14 15 1 -1
BITMAP
0010
0208
0224
0210
0208
0200
FFF8
0200
0200
2240
2220
4210
8210
0A00
0400
ENDCHAR
STARTCHAR uni30DD
ENCODING 12509
BBX 14 15 1 -1
BITMAP
0018
0224
0224
0218
0200
0210
FFF8
0200
0200
2240
2220
4210
8210
0A00
0400
ENDCHAR
STARTCHAR uni30DE
ENCODING 12510
BBX 11 10 2 1
BITMAP
0040
FFE0
0040
0080
0080
1900
0600
0200
0100
0100
ENDCHAR
STARTCHAR uni30DF
ENCODING 12511
BBX 8 12 3 0
BITMAP
70
0C
03
01
E0
1C
04
00
E0
18
07
01
ENDCHAR
STARTCHAR uni30E0
ENCODING 12512
BBX 11 12 2 -1
BITMAP
0400
0400
0400
0800
0800
1000
1100
2080
2040
43E0
FC20
4020
ENDCHAR
STARTCHAR uni30E1
ENCODING 12513
BBX 10 13 1 -1
BITMAP
0080
0040
0040
0840
0480
0280
0100
02C0
0440
0800
1000
2000
C000
ENDCHAR
STARTCHAR uni30E2
ENCODING 12514
BBX 13 13 1 0
BITMAP
0080
07C0
7C00
0400
0410
07F8
FC00
0400
0400
0400
0400
0420
03F0
ENDCHAR
STARTCHAR uni30E3
ENCODING 12515
BBX 11 11 2 -1
BITMAP
4000
2000
2000
91E0
7E20
0840
0480
0400
0200
0200
0100
ENDCHAR
STARTCHAR uni30E4
ENCODING 12516
BBX 12 14 1 -1
BITMAP
2000
2000
1000
1000
88F0
7F10
0420
0440
0200
0200
0100
0100
0080
0040
ENDCHAR
STARTCHAR uni30E5
ENCODING 12517
BBX 12 8 2 1
BITMAP
0080
3FC0
0080
0080
0080
0100
0120
FFF0
ENDCHAR
STARTCHAR uni30E6
ENCODING 12518
BBX 14 9 1 3
BITMAP
0020
3FF0
0020
0020
0020
0040
0040
0048
FFFC
ENDCHAR
STARTCHAR uni30E7
ENCODING 12519
BBX 10 9 3 0
BITMAP
0080
FFC0
0080
0080
FF80
0080
0080
FF80
0080
ENDCHAR
STARTCHAR uni30E8
ENCODING 12520
BBX 11 11 2 2
BITMAP
0040
FFE0
0040
0040
0040
FFC0
0040
0040
0040
FFC0
0040
ENDCHAR
STARTCHAR uni30E9
ENCODING 12521
BBX 11 14 2 -1
BITMAP
0100
3F80
0000
0040
FFE0
0040
0040
0080
0080
0100
0200
0400
1800
6000
ENDCHAR
STARTCHAR uni30EA
ENCODING 12522
BBX 6 15 4 -2
BITMAP
04
44
44
44
44
44
44
44
44
08
08
10
10
20
C0
ENDCHAR
STARTCHAR uni30EB
ENCODING 12523
BBX 13 10 1 0
BITMAP
0900
0900
0900
0900
0908
1110
1120
2140
4180
8100
ENDCHAR
STARTCHAR uni30EC
ENCODING 12524
BBX 10 11 2 0
BITMAP
8000
4000
4040
4080
4100
4200
4400
4800
5000
6000
4000
ENDCHAR
STARTCHAR uni30ED
ENCODING 12525
BBX 9 10 3 2
BITMAP
8100
FF80
8100
8100
8100
8100
8200
8200
FF00
8000
ENDCHAR
STARTCHAR uni30EE
ENCODING 12526
BBX 9 11 3 1
BITMAP
8100
FF80
8100
8100
0100
0200
0200
0400
0800
1000
2000
ENDCHAR
STARTCHAR uni30EF
ENCODING 12527
BBX 11 13 2 -1
BITMAP
8040
FFE0
8040
8040
0040
0080
0080
0100
0100
0200
0400
0800
1000
ENDCHAR
STARTCHAR uni30F0
ENCODING 12528
BBX 13 14 1 -1
BITMAP
0200
0200
0280
3FC0
1200
1200
1200
1210
FFF8
0200
0200
0200
0200
0200
ENDCHAR
STARTCHAR uni30F1
ENCODING 12529
BBX 13 8 1 3
BITMAP
3FC0
0080
0500
0200
0200
0200
0210
FFF8
ENDCHAR
STARTCHAR uni30F2
ENCODING 12530
BBX 12 13 2 -1
BITMAP
0040
7FE0
0040
0040
FFF0
0040
0080
0080
0100
0100
0200
0400
1800
ENDCHAR
STARTCHAR uni30F3
ENCODING 12531
BBX 12 11 2 1
BITMAP
4000
2010
1820
0840
0080
0100
0200
0400
0800
9000
6000
ENDCHAR
STARTCHAR uni30F4
ENCODING 12532
BBX 13 15 2 -1
BITMAP
0020
0810
0848
8920
FF90
8100
8100
0100
0200
0200
0400
0400
0800
1000
2000
ENDCHAR
STARTCHAR uni30F5
ENCODING 12533
BBX 8 11 4 1
BITMAP
10
10
12
FF
12
22
22
22
44
54
88
ENDCHAR
STARTCHAR uni30F6
ENCODING 12534
BBX 8 11 3 1
BITMAP
20
20
22
3F
44
84
08
08
10
20
40
ENDCHAR
STARTCHAR uni30FC
ENCODING 12540
BBX 14 3 1 6
BITMAP
07F8
FC3C
7000
ENDCHAR
STARTCHAR uni30FD
ENCODING 12541
BBX 6 7 5 5
BITMAP
80
60
30
18
1C
0C
08
ENDCHAR
STARTCHAR uni30FE
ENCODING 12542
BBX 11 15 3 -1
BITMAP
0800
0600
0380
01C0
10E0
0C60
0640
8700
6300
3200
1800
0C00
0E00
0600
0400
ENDCHAR
STARTCHAR uni3105
ENCODING 12549
BBX 11 15 2 -2
BITMAP
2000
2000
4000
FFE0
0020
0020
0020
0020
0020
0020
0020
0040
0440
0280
0100
ENDCHAR
STARTCHAR uni3106
ENCODING 12550
BBX 11 14 2 -1
BITMAP
1000
1000
2000
7FE0
0020
0020
0040
0440
0280
0100
0280
0C40
3040
C000
ENDCHAR
STARTCHAR uni3107
ENCODING 12551
BBX 11 8 2 2
BITMAP
FFE0
8020
8020
8020
8020
8020
8020
8020
ENDCHAR
STARTCHAR uni3108
ENCODING 12552
BBX 12 12 2 0
BITMAP
FFE0
4000
4000
4000
4000
4000
4000
4000
4000
4000
4000
3FF0
ENDCHAR
STARTCHAR uni3109
ENCODING 12553
BBX 11 15 2 -2
BITMAP
1000
1000
2000
7FE0
0420
0420
0420
0420
0820
0820
1020
2040
4440
8280
0100
ENDCHAR
STARTCHAR uni310A
ENCODING 12554
BBX 13 13 1 0
BITMAP
0200
0200
0200
0200
FFF8
0200
0200
0400
0400
0800
1040
3FE0
0010
ENDCHAR
STARTCHAR uni310B
ENCODING 12555
BBX 11 14 2 -2
BITMAP
FF00
0100
0200
0400
0FE0
0020
0020
0020
0020
0020
0040
0440
0280
0100
ENDCHAR
STARTCHAR uni310C
ENCODING 12556
BBX 11 15 2 -2
BITMAP
0400
2400
2400
4400
4400
FFE0
0420
0420
0820
0820
1020
1020
2040
4140
8080
ENDCHAR
STARTCHAR uni310D
ENCODING 12557
BBX 8 13 3 -1
BITMAP
11
11
22
22
44
44
88
44
44
22
22
11
11
ENDCHAR
STARTCHAR uni310E
ENCODING 12558
BBX 13 14 1 -2
BITMAP
FFF8
0800
0800
0800
1000
1FE0
0020
0020
0020
0020
0020
0040
0140
0080
ENDCHAR
STARTCHAR uni310F
ENCODING 12559
BBX 14 13 0 -1
BITMAP
3FFC
1000
1000
1000
1000
1000
1000
1000
1000
2000
2000
4000
8000
ENDCHAR
STARTCHAR uni3110
ENCODING 12560
BBX 7 15 4 -2
BITMAP
02
42
42
42
42
42
42
86
9A
E2
02
02
02
02
02
ENDCHAR
STARTCHAR uni3111
ENCODING 12561
BBX 5 14 5 -1
BITMAP
10
10
10
20
20
40
80
40
20
20
10
10
08
08
ENDCHAR
STARTCHAR uni3112
ENCODING 12562
BBX 13 13 1 -1
BITMAP
FFF8
0200
0200
0200
0200
0200
0200
0200
0200
0200
0200
0200
0200
ENDCHAR
STARTCHAR uni3113
ENCODING 12563
BBX 13 13 1 0
BITMAP
0200
0200
2220
2220
2220
2220
2220
2220
3FE0
0200
0200
0200
FFF8
ENDCHAR
STARTCHAR uni3114
ENCODING 12564
BBX 7 15 3 -2
BITMAP
02
04
08
10
22
44
88
18
28
48
88
08
08
08
08
ENDCHAR
STARTCHAR uni3115
ENCODING 12565
BBX 13 14 0 -2
BITMAP
1FF8
0008
0008
0008
1FF8
1000
1000
1000
1000
1000
2000
2000
4000
8000
ENDCHAR
STARTCHAR uni3116
ENCODING 12566
BBX 7 12 4 0
BITMAP
FE
82
82
82
A2
92
8A
82
82
82
82
FE
ENDCHAR
STARTCHAR uni3117
ENCODING 12567
BBX 10 14 2 -2
BITMAP
FFC0
1040
1040
1040
1040
1040
1040
1480
1300
1000
1000
1000
1000
1000
ENDCHAR
STARTCHAR uni3118
ENCODING 12568
BBX 13 15 1 -2
BITMAP
0400
0400
0400
FFF8
0800
0800
0800
1FE0
0020
0020
0040
0040
0080
0100
0200
ENDCHAR
STARTCHAR uni3119
ENCODING 12569
BBX 10 13 2 0
BITMAP
0400
0400
0400
0400
0800
0800
0800
1000
1000
2100
4080
FFC0
0040
ENDCHAR
STARTCHAR uni311A
ENCODING 12570
BBX 10 15 3 -2
BITMAP
8040
4080
2100
1200
0400
0800
0800
0800
0800
0800
0800
0800
0800
0800
0800
ENDCHAR
STARTCHAR uni311B
ENCODING 12571
BBX 13 12 1 0
BITMAP
FFF8
0200
0200
0200
1E00
2000
4000
4000
4000
4010
2020
1FC0
ENDCHAR
STARTCHAR uni311C
ENCODING 12572
BBX 13 14 1 -1
BITMAP
0200
0200
0200
FFF8
0200
0200
1E00
2000
4000
4000
4000
4010
2020
1FC0
ENDCHAR
STARTCHAR uni311D
ENCODING 12573
BBX 13 12 1 0
BITMAP
1080
1080
1080
FFF8
1080
1080
1080
1100
1100
1200
1000
0FE0
ENDCHAR
STARTCHAR uni311E
ENCODING 12574
BBX 13 13 1 -1
BITMAP
FFF8
1200
1200
2200
3FF0
0210
0210
0210
0410
0410
0820
1020
2040
ENDCHAR
STARTCHAR uni311F
ENCODING 12575
BBX 10 13 3 -1
BITMAP
E000
2000
2000
2000
1000
1000
1000
0800
0800
0400
0200
0100
00C0
ENDCHAR
STARTCHAR uni3120
ENCODING 12576
BBX 9 13 3 0
BITMAP
1000
1000
2100
2100
4200
4200
FC00
0800
1000
2200
4100
FF80
0080
ENDCHAR
STARTCHAR uni3121
ENCODING 12577
BBX 9 12 3 -1
BITMAP
FF80
0080
0100
2100
1200
0A00
0400
0400
0A00
1100
2000
4000
ENDCHAR
STARTCHAR uni3122
ENCODING 12578
BBX 11 14 2 -1
BITMAP
FF80
2080
2080
2100
2100
4100
7FE0
0020
0020
0020
0040
0040
0080
0100
ENDCHAR
STARTCHAR uni3123
ENCODING 12579
BBX 10 14 3 -1
BITMAP
4000
4000
4000
4000
4000
4000
8000
FFC0
0040
0040
0040
0080
0080
0100
ENDCHAR
STARTCHAR uni3124
ENCODING 12580
BBX 13 14 1 -1
BITMAP
0400
0400
0400
0400
FFF8
0500
0500
0500
0900
0900
0900
1100
2100
C0F8
ENDCHAR
STARTCHAR uni3125
ENCODING 12581
BBX 11 11 2 1
BITMAP
0400
0400
0400
0800
0800
1000
1000
2000
4000
8000
FFE0
ENDCHAR
STARTCHAR uni3126
ENCODING 12582
BBX 13 13 1 -1
BITMAP
0900
0900
0900
0900
0900
0900
0900
0900
0900
1100
1108
2108
C0F8
ENDCHAR
STARTCHAR uni3127
ENCODING 12583
BBX 1 15 7 -2
BITMAP
80
80
80
80
80
80
80
80
80
80
80
80
80
80
80
ENDCHAR
STARTCHAR uni3128
ENCODING 12584
BBX 11 14 1 -1
BITMAP
0020
0020
0020
1040
0840
0480
0280
0100
0100
0280
0440
0820
3000
C000
ENDCHAR
STARTCHAR uni3129
ENCODING 12585
BBX 11 10 2 1
BITMAP
0020
4020
4020
4020
4020
4020
4020
83E0
FC20
0020
ENDCHAR
STARTCHAR uni3220
ENCODING 12832
BBX 15 16 0 -2
BITMAP
1010
2008
4004
4004
8002
8002
8002
BFFA
8002
8002
8002
8002
4004
4004
2008
1010
ENDCHAR
STARTCHAR uni3221
ENCODING 12833
BBX 15 16 0 -2
BITMAP
1010
2008
4004
4004
9FF2
8002
8002
8002
8002
8002
BFFA
8002
4004
4004
2008
1010
ENDCHAR
STARTCHAR uni3222
ENCODING 12834
BBX 15 16 0 -2
BITMAP
1010
2008
4004
5FF4
8002
8002
8002
8FE2
8002
8002
8002
BFFA
4004
4004
2008
1010
ENDCHAR
STARTCHAR uni3223
ENCODING 12835
BBX 15 16 0 -2
BITMAP
1010
2008
4004
4004
9FF2
9292
9292
9292
9472
9812
9012
9FF2
5014
4004
2008
1010
ENDCHAR
STARTCHAR uni3224
ENCODING 12836
BBX 15 16 0 -2
BITMAP
1010
2008
4004
4FE4
8102
8102
8102
8FE2
8222
8222
8222
8222
5FFC
4004
2008
1010
ENDCHAR
STARTCHAR uni3225
ENCODING 12837
BBX 15 16 0 -2
BITMAP
1010
2008
4004
4204
8102
8002
BFFA
8002
8002
8442
8422
8812
5014
4004
2008
1010
ENDCHAR
STARTCHAR uni3226
ENCODING 12838
BBX 15 16 0 -2
BITMAP
1010
2008
4204
4204
8202
8202
8202
83F2
BE02
8202
8222
8222
4224
41E4
2008
1010
ENDCHAR
STARTCHAR uni3227
ENCODING 12839
BBX 15 16 0 -2
BITMAP
1010
2008
4084
4484
8482
8482
8482
8442
8442
8822
8822
9012
4004
4004
2008
1010
ENDCHAR
STARTCHAR uni3228
ENCODING 12840
BBX 15 16 0 -2
BITMAP
1010
2008
4204
4204
8202
9FC2
8242
8242
8242
8442
844A
884A
503C
4004
2008
1010
ENDCHAR
STARTCHAR uni3229
ENCODING 12841
BBX 15 16 0 -2
BITMAP
1010
2008
4104
4104
8102
8102
8102
BFFA
8102
8102
8102
8102
4104
4004
2008
1010
ENDCHAR
STARTCHAR uni3231
ENCODING 12849
BBX 15 16 0 -2
BITMAP
2008
4824
4824
88A2
BEFA
8922
9822
9CFA
AA22
A872
C8AA
8926
8A22
4824
4824
2008
ENDCHAR
STARTCHAR uni32A3
ENCODING 12963
BBX 15 15 0 -1
BITMAP
07C0
1830
2008
5FF4
4104
8102
8902
89E2
8902
8902
4904
5FF4
2008
1830
07C0
ENDCHAR
STARTCHAR uni338E
ENCODING 13198
BBX 15 12 0 -1
BITMAP
003A
B644
4944
4944
4944
4938
4920
493C
4942
0042
0042
003C
ENDCHAR
STARTCHAR uni338F
ENCODING 13199
BBX 13 15 2 -1
BITMAP
8000
8000
8000
84E8
8910
9110
A110
C110
A0E0
9080
88F0
8508
0108
0108
00F0
ENDCHAR
STARTCHAR uni339C
ENCODING 13212
BBX 15 8 0 2
BITMAP
6C6C
9292
9292
9292
9292
9292
9292
9292
ENDCHAR
STARTCHAR uni339D
ENCODING 13213
BBX 15 8 0 2
BITMAP
356C
4C92
8492
8092
8092
8292
4492
3892
ENDCHAR
STARTCHAR uni339E
ENCODING 13214
BBX 14 12 1 2
BITMAP
8000
8000
8000
8000
8AD8
9124
A124
C124
A124
9124
8924
8524
ENDCHAR
STARTCHAR uni33A1
ENCODING 13217
BBX 13 11 1 2
BITMAP
0030
0048
0008
B610
4920
4978
4900
4900
4900
4900
4900
ENDCHAR
STARTCHAR uni33C4
ENCODING 13252
BBX 14 8 1 2
BITMAP
3468
4C98
8508
8100
8100
8504
4488
3870
ENDCHAR
STARTCHAR uni33CE
ENCODING 13262
BBX 13 12 0 2
BITMAP
8A08
9318
9318
A318
A2A8
C2A8
A2A8
A248
A248
9248
9208
8A08
ENDCHAR
STARTCHAR uni33D1
ENCODING 13265
BBX 9 12 3 2
BITMAP
8000
8000
8000
8000
9700
8880
8880
8880
8880
8880
8880
8880
ENDCHAR
STARTCHAR uni33D2
ENCODING 13266
BBX 14 15 1 -1
BITMAP
8000
8000
8000
8074
9C88
A288
A288
A288
A270
A240
A278
9C84
0084
0084
0078
ENDCHAR
STARTCHAR uni33D5
ENCODING 13269
BBX 14 12 0 2
BITMAP
0004
0024
0004
0004
B624
4924
4924
4924
4924
4924
4924
4924
ENDCHAR
STARTCHAR uni3400
ENCODING 13312
BBX 15 15 0 -1
BITMAP
0440
0440
0440
0440
0440
0440
7C7C
0440
0440
0440
0440
0440
0440
0440
FFFE
ENDCHAR
STARTCHAR uni3401
ENCODING 13313
BBX 15 15 0 -2
BITMAP
FFFE
0100
0100
3FF8
2108
2108
2108
2288
2248
2428
2828
2008
2008
3FF8
2008
ENDCHAR
STARTCHAR uni3402
ENCODING 13314
BBX 15 16 0 -2
BITMAP
0100
0100
01F8
3F00
0104
0104
00FC
1000
1020
1020
163C
F8E0
1022
1122
161E
1800
ENDCHAR
STARTCHAR uni3403
ENCODING 13315
BBX 15 16 0 -2
BITMAP
0100
0280
0440
0820
1010
2008
4004
FFFE
0100
0100
0100
0100
0100
0100
0100
0100
ENDCHAR
STARTCHAR uni3404
ENCODING 13316
BBX 14 16 1 -2
BITMAP
0200
0200
0200
0200
7FF0
0200
4200
4200
8200
FFFC
0200
0200
0200
0200
0200
0200
ENDCHAR
STARTCHAR uni3405
ENCODING 13317
BBX 12 14 1 -1
BITMAP
0020
0020
4040
2040
1080
0880
0500
0200
0500
0880
1040
2020
4010
8000
ENDCHAR
STARTCHAR uni3406
ENCODING 13318
BBX 14 16 0 -2
BITMAP
0010
00F8
1F00
1000
1FF8
1008
1FF8
1008
1FF8
1000
1FFC
1004
2004
2004
4028
8010
ENDCHAR
STARTCHAR uni3407
ENCODING 13319
BBX 15 16 0 -2
BITMAP
0200
0200
3FE0
0420
0420
0822
3022
C01E
0000
7FF0
0060
0180
0600
1804
2004
1FFC
ENDCHAR
STARTCHAR uni3408
ENCODING 13320
BBX 15 15 0 -1
BITMAP
0600
0100
0280
0440
0820
3018
C006
3FF8
0010
0060
0180
0600
1804
2004
1FFC
ENDCHAR
STARTCHAR uni3409
ENCODING 13321
BBX 13 15 1 -2
BITMAP
FFF8
0200
0200
0200
0200
0200
0A00
0400
FFE0
00C0
0300
0C00
3008
4008
3FF8
ENDCHAR
STARTCHAR uni340A
ENCODING 13322
BBX 15 16 0 -2
BITMAP
0100
0100
0100
FFFE
0100
0100
3FF8
0000
0000
7FF0
0060
0180
0600
1804
2004
1FFC
ENDCHAR
STARTCHAR uni340B
ENCODING 13323
BBX 15 16 0 -2
BITMAP
0100
0100
0100
3FF8
0100
0100
FFFE
0000
0000
7FF0
0060
0180
0600
1804
2004
1FFC
ENDCHAR
STARTCHAR uni340C
ENCODING 13324
BBX 15 15 0 -1
BITMAP
0800
0800
1FFC
2000
4100
8100
1170
1390
1D10
F110
1150
1122
1102
1002
0FFE
ENDCHAR
STARTCHAR uni340D
ENCODING 13325
BBX 13 15 1 -1
BITMAP
01F8
FE00
0410
4210
2220
2040
0000
7FF0
0020
00C0
0300
0C00
3008
4008
3FF8
ENDCHAR
STARTCHAR uni340E
ENCODING 13326
BBX 15 16 0 -2
BITMAP
0200
0100
7FFC
0820
0440
0380
1C70
E00E
0000
3FF8
0010
0060
0380
1C04
2004
1FFC
ENDCHAR
STARTCHAR uni340F
ENCODING 13327
BBX 14 15 1 -2
BITMAP
7FF8
0200
0200
3FE0
0420
0820
FFFC
0000
FFE0
00C0
0300
0C00
3008
4008
3FF8
ENDCHAR
STARTCHAR uni3410
ENCODING 13328
BBX 15 16 0 -2
BITMAP
1000
1000
FEFC
2284
4488
2850
1020
2858
C586
0000
7FF0
0060
0380
1C04
2004
1FFC
ENDCHAR
STARTCHAR uni3411
ENCODING 13329
BBX 15 16 0 -2
BITMAP
0800
1FF0
2820
07C0
1830
E18E
0C40
0300
0080
7FF0
0060
0180
0600
1804
2004
1FFC
ENDCHAR
STARTCHAR uni3412
ENCODING 13330
BBX 14 15 0 -2
BITMAP
7FF8
0408
0850
3020
DFF8
1008
1008
1FF8
0000
7FF0
0060
0380
1C04
2004
1FFC
ENDCHAR
STARTCHAR uni3413
ENCODING 13331
BBX 15 15 0 -2
BITMAP
FFFE
0010
1F90
1090
1090
1F90
0050
0020
7FF0
0060
0180
0600
1804
2004
1FFC
ENDCHAR
STARTCHAR uni3414
ENCODING 13332
BBX 15 16 0 -2
BITMAP
0200
0100
FFFE
0000
1FF0
1010
1010
1FF0
0000
7FF0
0060
0180
0600
1804
2004
1FFC
ENDCHAR
STARTCHAR uni3415
ENCODING 13333
BBX 13 16 1 -2
BITMAP
0200
0200
7FF0
4210
4210
7FF0
4210
4210
7FF0
0000
FFE0
00C0
0700
3808
4008
3FF8
ENDCHAR
STARTCHAR uni3416
ENCODING 13334
BBX 15 15 0 -1
BITMAP
0820
0820
0820
FFA0
0820
0820
7F20
0020
0020
7F20
4120
4122
4122
7F22
411E
ENDCHAR
STARTCHAR uni3417
ENCODING 13335
BBX 15 16 0 -2
BITMAP
0208
3FD0
0220
FFFE
0200
0C70
3F84
C804
07FC
0000
7FF0
0060
0380
1C04
2004
1FFC
ENDCHAR
STARTCHAR uni3418
ENCODING 13336
BBX 15 16 0 -2
BITMAP
0100
1110
0920
FFFE
0540
0920
3118
C106
0000
7FF0
0060
0180
0600
1804
2004
1FFC
ENDCHAR
STARTCHAR uni3419
ENCODING 13337
BBX 15 15 0 -2
BITMAP
7FFC
0000
1FF0
1010
1FF0
0820
0440
FFFE
0000
7FF0
0060
0380
1C04
2004
1FFC
ENDCHAR
STARTCHAR uni341A
ENCODING 13338
BBX 15 16 0 -2
BITMAP
7FFC
0200
3FF0
0410
FFFE
0000
1FF0
1010
1FF0
0000
7FF0
0060
0380
1C04
2004
1FFC
ENDCHAR
STARTCHAR uni341B
ENCODING 13339
BBX 14 16 0 -2
BITMAP
0840
0840
17FC
3080
5100
93F8
1508
1108
11F8
0000
7FF0
0060
0380
1C04
2004
1FFC
ENDCHAR
STARTCHAR uni341C
ENCODING 13340
BBX 15 16 0 -2
BITMAP
1040
1440
1240
1040
FEF8
1048
1048
9248
5448
1048
3848
548A
928A
110A
5206
2400
ENDCHAR
STARTCHAR uni341D
ENCODING 13341
BBX 14 16 0 -2
BITMAP
1100
1100
F9F8
1208
19E8
3128
D1E8
1008
5050
2020
7FF0
0060
0380
1C04
2004
1FFC
ENDCHAR
STARTCHAR uni341E
ENCODING 13342
BBX 15 16 0 -2
BITMAP
0820
0820
7FFC
0820
0FE0
0820
0FE0
0820
FFFE
1010
2FE8
4044
8382
0C08
1008
0FF8
ENDCHAR
STARTCHAR uni341F
ENCODING 13343
BBX 13 16 1 -2
BITMAP
0880
0880
F8F8
0880
78F0
0880
F8F8
0880
0880
FFE0
00C0
0300
0C00
3008
4008
3FF8
ENDCHAR
STARTCHAR uni3420
ENCODING 13344
BBX 15 16 0 -2
BITMAP
07A0
F820
48A0
2520
7F20
0220
07A2
FC22
4422
0C1E
0000
3FF0
01C0
1E04
2004
1FFC
ENDCHAR
STARTCHAR uni3421
ENCODING 13345
BBX 15 16 0 -2
BITMAP
2000
27FC
2040
23F8
FAA8
2AA8
2AA8
2A18
2840
2FFC
28A0
2912
2A0A
4802
47FE
8000
ENDCHAR
STARTCHAR uni3422
ENCODING 13346
BBX 15 16 0 -2
BITMAP
203C
17C0
8244
4928
13F8
E010
27FE
2020
20A0
0040
7FF0
0060
0380
1C04
2004
1FFC
ENDCHAR
STARTCHAR uni3423
ENCODING 13347
BBX 15 16 0 -2
BITMAP
0080
3FFE
2080
2FF8
2080
27F0
2490
27F0
2490
3FFC
2080
2FF8
4060
4380
8404
03FC
ENDCHAR
STARTCHAR uni3424
ENCODING 13348
BBX 15 16 0 -2
BITMAP
2040
23F8
2040
21F0
F910
29F0
2910
29F0
2910
29F0
2910
2BFA
28A2
4912
47FE
8000
ENDCHAR
STARTCHAR uni3425
ENCODING 13349
BBX 15 16 0 -2
BITMAP
1008
29C8
455E
B94A
11CA
7D4A
11CA
5552
3D6A
E384
0000
3FF0
01C0
1E04
2004
1FFC
ENDCHAR
STARTCHAR uni3426
ENCODING 13350
BBX 15 16 0 -2
BITMAP
3BB8
2208
3BB8
2488
FFFE
1050
2788
C106
1FF0
0100
0300
3FF0
01C0
1E04
2004
1FFC
ENDCHAR
STARTCHAR uni3427
ENCODING 13351
BBX 14 16 0 -2
BITMAP
0080
1080
0880
0480
0480
0080
7FFC
0184
0288
0490
0880
3080
C080
0080
0280
0100
ENDCHAR
STARTCHAR uni3428
ENCODING 13352
BBX 15 15 0 -2
BITMAP
7CFC
0404
2828
1010
0808
FEFE
1212
1414
1010
1010
1010
1010
1010
5050
2020
ENDCHAR
STARTCHAR uni3429
ENCODING 13353
BBX 15 16 0 -2
BITMAP
2424
2424
2424
2424
7E7E
2424
2424
2424
FEFE
2424
2424
2424
2424
4444
4444
8484
ENDCHAR
STARTCHAR uni342A
ENCODING 13354
BBX 15 16 0 -2
BITMAP
0200
0100
0100
FFFE
0000
0100
2108
2108
2108
2108
3FF8
0288
0440
0820
3018
C006
ENDCHAR
STARTCHAR uni342B
ENCODING 13355
BBX 15 16 0 -2
BITMAP
0200
0100
0100
FFFE
0000
0820
0440
2288
2108
2288
2448
2828
2008
2008
3FF8
0008
ENDCHAR
STARTCHAR uni342C
ENCODING 13356
BBX 15 16 0 -2
BITMAP
0200
0100
FFFE
0400
0820
1010
3FF8
1008
0000
1110
1110
1110
2110
2112
4112
800E
ENDCHAR
STARTCHAR uni342D
ENCODING 13357
BBX 15 16 0 -2
BITMAP
0200
0100
FFFE
0000
0000
3FF8
2008
2008
27C8
2448
2448
27C8
2008
2008
3FF8
2008
ENDCHAR
STARTCHAR uni342E
ENCODING 13358
BBX 15 16 0 -2
BITMAP
0200
0100
FFFE
1010
2448
4444
1FF0
0440
1FF0
0440
7FFC
0490
0C60
3518
C606
0400
ENDCHAR
STARTCHAR uni342F
ENCODING 13359
BBX 15 16 0 -2
BITMAP
0100
7FFC
0820
1FF0
1010
1FF0
0000
1FE0
0100
7FFC
0920
3FF8
C826
0FE0
0820
0FE0
ENDCHAR
STARTCHAR uni3430
ENCODING 13360
BBX 14 16 0 -2
BITMAP
0800
09FC
0904
1104
1104
3104
3104
5104
9104
1104
1104
1104
1104
11FC
1104
1000
ENDCHAR
STARTCHAR uni3431
ENCODING 13361
BBX 15 15 0 -1
BITMAP
0100
0100
0280
0440
0820
1050
2188
C606
3820
00C0
0700
3818
0060
0380
7C00
ENDCHAR
STARTCHAR uni3432
ENCODING 13362
BBX 15 16 0 -2
BITMAP
0840
0840
0840
1040
1040
37FE
3040
5040
9040
10A0
10A0
1090
1110
1108
1204
1402
ENDCHAR
STARTCHAR uni3433
ENCODING 13363
BBX 15 16 0 -2
BITMAP
0800
0800
0BFC
1090
1090
3090
3090
5090
9090
1090
1090
1092
1112
1112
120E
1400
ENDCHAR
STARTCHAR uni3434
ENCODING 13364
BBX 14 16 0 -2
BITMAP
0880
0880
0880
10FC
1104
3104
3284
5448
9028
1010
1010
1020
1040
1080
1100
1600
ENDCHAR
STARTCHAR uni3435
ENCODING 13365
BBX 15 16 0 -2
BITMAP
0800
0BFC
0840
1040
1040
3040
3FFE
5040
9040
1040
1040
1040
1040
1040
1140
1080
ENDCHAR
STARTCHAR uni3436
ENCODING 13366
BBX 15 16 0 -2
BITMAP
0800
0800
0BFC
1204
1204
3204
3204
53FC
9204
1200
1200
1202
1202
1202
11FE
1000
ENDCHAR
STARTCHAR uni3437
ENCODING 13367
BBX 14 16 0 -2
BITMAP
0800
0FF0
0810
1010
1210
3210
3210
53FC
9004
1004
1004
17F4
1004
1004
1028
1010
ENDCHAR
STARTCHAR uni3438
ENCODING 13368
BBX 15 16 0 -2
BITMAP
0880
0880
0880
10FC
1104
3108
3240
5440
9040
10A0
10A0
1090
1110
1108
1204
1402
ENDCHAR
STARTCHAR uni3439
ENCODING 13369
BBX 15 16 0 -2
BITMAP
0900
0900
09FC
1200
1400
31F8
3000
5000
93F8
1008
1008
1008
100A
100A
1006
1002
ENDCHAR
STARTCHAR uni343A
ENCODING 13370
BBX 15 16 0 -2
BITMAP
1120
1120
1120
2220
2220
6620
6620
AA20
2220
2250
2250
2250
2248
2288
2284
2302
ENDCHAR
STARTCHAR uni343B
ENCODING 13371
BBX 15 16 0 -2
BITMAP
0820
0820
0820
1020
13FE
3222
3222
5222
9252
124A
128A
1302
1202
1202
120A
1204
ENDCHAR
STARTCHAR uni343C
ENCODING 13372
BBX 15 16 0 -2
BITMAP
0808
0868
0B88
1088
1088
3088
3088
53FE
9088
1088
1088
1088
1108
1108
1208
1408
ENDCHAR
STARTCHAR uni343D
ENCODING 13373
BBX 15 16 0 -2
BITMAP
0800
0BF8
0A08
1208
1328
32A8
32A8
5248
9248
12A8
12A8
132A
140A
140A
1806
1002
ENDCHAR
STARTCHAR uni343E
ENCODING 13374
BBX 15 16 0 -2
BITMAP
0800
0800
0BF8
1000
1000
3000
37FC
5120
9120
1120
1120
1120
1222
1222
141E
1800
ENDCHAR
STARTCHAR uni343F
ENCODING 13375
BBX 15 16 0 -2
BITMAP
0810
0878
0BC0
1040
1040
33F8
3040
5040
9040
17FE
1040
1040
1040
1040
1140
1080
ENDCHAR
STARTCHAR uni3440
ENCODING 13376
BBX 15 16 0 -2
BITMAP
0840
0840
0840
1040
17FE
3040
3040
50A0
90A0
10A0
1110
1110
1288
1248
1444
1802
ENDCHAR
STARTCHAR uni3441
ENCODING 13377
BBX 14 16 0 -2
BITMAP
0840
0840
0A48
1248
1248
3248
33F8
5048
9040
1040
1444
1444
1444
1444
17FC
1004
ENDCHAR
STARTCHAR uni3442
ENCODING 13378
BBX 14 16 0 -2
BITMAP
1000
17FC
1040
2040
2040
67FC
6444
A444
24A4
2494
2514
2604
2404
2404
2414
2408
ENDCHAR
STARTCHAR uni3443
ENCODING 13379
BBX 14 16 0 -2
BITMAP
1220
1220
1220
2420
257C
6924
6E24
A224
2424
2424
2924
2F24
2144
2044
2094
2108
ENDCHAR
STARTCHAR uni3444
ENCODING 13380
BBX 15 16 0 -2
BITMAP
0800
09F8
0908
1148
1128
3128
37FE
5208
9248
1228
1228
13FE
1008
1008
1050
1020
ENDCHAR
STARTCHAR uni3445
ENCODING 13381
BBX 15 16 0 -2
BITMAP
0900
0900
0900
11FE
1240
3240
3440
5040
907C
1040
1040
1040
1040
1040
17FE
1000
ENDCHAR
STARTCHAR uni3446
ENCODING 13382
BBX 15 16 0 -2
BITMAP
0800
0BFC
0A04
1204
1204
3204
33FC
5090
9090
1090
1090
1112
1112
1212
140E
1800
ENDCHAR
STARTCHAR uni3447
ENCODING 13383
BBX 14 16 0 -2
BITMAP
0880
0880
08F8
1108
1210
3420
33FC
5004
9004
1004
11FC
1004
1004
1004
13FC
1004
ENDCHAR
STARTCHAR uni3448
ENCODING 13384
BBX 15 16 0 -2
BITMAP
0840
0840
0840
17FE
1080
3120
3120
5220
93FC
1020
1128
1124
1222
1422
10A0
1040
ENDCHAR
STARTCHAR uni3449
ENCODING 13385
BBX 15 16 0 -2
BITMAP
1000
17F8
1408
2408
27F8
6488
6488
A4E8
2528
2528
26A8
244A
244A
288A
2906
3202
ENDCHAR
STARTCHAR uni344A
ENCODING 13386
BBX 15 16 0 -2
BITMAP
0840
0820
0820
17FE
1090
3090
3090
5294
9292
1292
1492
1090
1110
1110
1250
1420
ENDCHAR
STARTCHAR uni344B
ENCODING 13387
BBX 14 16 0 -2
BITMAP
10A0
10A0
10A0
20A0
27FC
64A4
64A4
A4A4
24A4
27FC
24A4
24A4
24A4
24A4
27FC
2404
ENDCHAR
STARTCHAR uni344C
ENCODING 13388
BBX 15 16 0 -2
BITMAP
0800
0BFE
0A00
1200
13FC
3220
3220
52F8
9220
1220
1220
13FC
1200
1200
13FE
1000
ENDCHAR
STARTCHAR uni344D
ENCODING 13389
BBX 15 16 0 -2
BITMAP
1040
1040
17FC
2040
2040
63F8
6040
A040
27FE
20E0
2150
2150
2248
2444
2842
2040
ENDCHAR
STARTCHAR uni344E
ENCODING 13390
BBX 14 16 0 -2
BITMAP
1000
1248
1248
2490
2490
6248
6248
A000
2040
2444
2444
2444
2444
2444
27FC
2004
ENDCHAR
STARTCHAR uni344F
ENCODING 13391
BBX 15 16 0 -2
BITMAP
0840
0820
0BFE
1202
1414
3010
3010
53FE
9010
1110
1090
1090
1010
1010
1050
1020
ENDCHAR
STARTCHAR uni3450
ENCODING 13392
BBX 15 16 0 -2
BITMAP
0840
0840
0840
107C
1040
3040
37FE
5000
9040
1040
1250
1248
1444
1844
1140
1080
ENDCHAR
STARTCHAR uni3451
ENCODING 13393
BBX 14 16 0 -2
BITMAP
0840
0840
0880
13FC
1204
3204
3204
53FC
9204
1204
13FC
1204
1204
1204
13FC
1204
ENDCHAR
STARTCHAR uni3452
ENCODING 13394
BBX 15 16 0 -2
BITMAP
0100
0280
0440
0820
3018
CFE6
0100
0100
1FF0
1110
1110
1FF0
0280
0440
1830
E00E
ENDCHAR
STARTCHAR uni3453
ENCODING 13395
BBX 15 16 0 -2
BITMAP
0820
0840
0888
1104
13FE
3042
3040
57FE
9080
10FC
1144
1144
1228
1210
1468
1186
ENDCHAR
STARTCHAR uni3454
ENCODING 13396
BBX 15 16 0 -2
BITMAP
0800
0BFE
0820
1040
11FC
3104
3104
5124
9124
1124
1124
1144
1050
1088
1104
1204
ENDCHAR
STARTCHAR uni3455
ENCODING 13397
BBX 15 16 0 -2
BITMAP
0820
0820
0A22
1222
1222
33FE
3040
5040
90FC
1104
1284
1448
1050
1020
10C0
1700
ENDCHAR
STARTCHAR uni3456
ENCODING 13398
BBX 15 16 0 -2
BITMAP
1110
1110
1110
2210
22FE
6692
6692
AA92
2292
22FE
2292
2210
2210
2210
2210
2210
ENDCHAR
STARTCHAR uni3457
ENCODING 13399
BBX 15 16 0 -2
BITMAP
0880
0900
0BF8
1208
13F8
3208
33FA
520A
920C
17F8
1018
1028
1048
1188
1E28
1010
ENDCHAR
STARTCHAR uni3458
ENCODING 13400
BBX 15 16 0 -2
BITMAP
1014
1012
1010
2FFE
2010
6290
6292
A292
2FD2
2294
2294
2288
228A
249A
2426
2842
ENDCHAR
STARTCHAR uni3459
ENCODING 13401
BBX 15 16 0 -2
BITMAP
1000
1FFE
1480
2490
2490
6790
6490
A490
2490
2790
2490
2492
24D2
2F92
208E
2080
ENDCHAR
STARTCHAR uni345A
ENCODING 13402
BBX 15 16 0 -2
BITMAP
1000
17DE
1252
2252
2254
67D4
6258
A254
2252
2FD2
2252
225A
2254
2450
2550
2890
ENDCHAR
STARTCHAR uni345B
ENCODING 13403
BBX 15 16 0 -2
BITMAP
0840
0840
0FFE
1040
1040
37FC
3444
5444
97FC
1040
10E0
1150
1248
1C46
1040
1040
ENDCHAR
STARTCHAR uni345C
ENCODING 13404
BBX 15 16 0 -2
BITMAP
1208
121C
1260
2240
2FC0
6240
627E
A2C8
2348
2E48
2248
2248
2248
2248
2A88
2508
ENDCHAR
STARTCHAR uni345D
ENCODING 13405
BBX 15 16 0 -2
BITMAP
1000
17FC
1040
2040
23F8
6040
6040
A7FC
2110
2110
2FFE
2110
2110
2210
2210
2410
ENDCHAR
STARTCHAR uni345E
ENCODING 13406
BBX 15 16 0 -2
BITMAP
1040
1040
1244
2244
24A8
6110
6208
AC06
2110
2110
2FFE
2110
2110
2210
2210
2410
ENDCHAR
STARTCHAR uni345F
ENCODING 13407
BBX 15 16 0 -2
BITMAP
0808
081C
09E0
1100
1100
31FE
3110
5110
9110
1110
17FE
1000
1090
1108
1204
1402
ENDCHAR
STARTCHAR uni3460
ENCODING 13408
BBX 15 16 0 -2
BITMAP
0880
0AFC
0AA4
12A4
12A8
3290
32A8
50C6
9020
1020
11FC
1020
1020
1020
13FE
1000
ENDCHAR
STARTCHAR uni3461
ENCODING 13409
BBX 14 16 0 -2
BITMAP
1000
17BC
14A4
24A4
24A4
67A4
64A4
A4A4
24A4
27A4
2434
2528
24A0
2560
2620
2020
ENDCHAR
STARTCHAR uni3462
ENCODING 13410
BBX 15 16 0 -2
BITMAP
0900
0900
091E
1392
1112
3112
3112
57D2
9112
1112
121A
1294
17D0
1250
1010
1010
ENDCHAR
STARTCHAR uni3463
ENCODING 13411
BBX 15 16 0 -2
BITMAP
0910
0910
0910
1110
17BC
3110
3110
5338
93B8
1554
1554
1992
1110
1110
1110
1110
ENDCHAR
STARTCHAR uni3464
ENCODING 13412
BBX 15 16 0 -2
BITMAP
1208
1208
1FFE
2208
2208
6000
67FC
A444
2444
2444
27FC
2444
2444
2444
27FC
2404
ENDCHAR
STARTCHAR uni3465
ENCODING 13413
BBX 14 16 0 -2
BITMAP
0800
0BF8
0A08
13F8
1208
33F8
3100
5100
93FC
1494
1894
1124
1244
1484
1128
1210
ENDCHAR
STARTCHAR uni3466
ENCODING 13414
BBX 15 16 0 -2
BITMAP
0840
0820
0BFC
1204
1204
33FC
3200
5228
9224
13FE
1220
1250
1250
1488
1504
1A02
ENDCHAR
STARTCHAR uni3467
ENCODING 13415
BBX 15 16 0 -2
BITMAP
1038
13C0
1040
27FC
20E0
6150
6248
AC46
23F0
2020
2040
27FC
2040
2040
2140
2080
ENDCHAR
STARTCHAR uni3468
ENCODING 13416
BBX 15 16 0 -2
BITMAP
0800
0BF8
0A08
1208
13F8
3100
3100
53F8
9440
1040
1FFE
1040
10A0
1110
1208
1C06
ENDCHAR
STARTCHAR uni3469
ENCODING 13417
BBX 15 16 0 -2
BITMAP
0800
0BFE
0A52
1252
1252
33FE
3020
5040
90FC
1104
1288
1050
1020
1040
1180
1600
ENDCHAR
STARTCHAR uni346A
ENCODING 13418
BBX 15 16 0 -2
BITMAP
0840
0820
0FFE
1108
1090
3060
3198
5606
9108
11F8
1108
11F8
1108
1108
1208
1408
ENDCHAR
STARTCHAR uni346B
ENCODING 13419
BBX 15 16 0 -2
BITMAP
0840
0840
08A0
1110
1288
3446
33F0
5010
90A0
1040
1148
1504
1514
1514
18F0
1000
ENDCHAR
STARTCHAR uni346C
ENCODING 13420
BBX 15 16 0 -2
BITMAP
1210
1210
1210
2210
2F7E
6510
6510
A510
257C
2944
2544
2244
2244
2544
257C
2844
ENDCHAR
STARTCHAR uni346D
ENCODING 13421
BBX 15 16 0 -2
BITMAP
1000
17FC
1444
2444
27FC
6444
6444
A7FC
2000
2000
2FFE
2208
2208
2208
2408
2808
ENDCHAR
STARTCHAR uni346E
ENCODING 13422
BBX 15 16 0 -2
BITMAP
0800
0BFE
0A22
1020
13FE
3020
31FC
5124
91FC
1124
11FC
1020
13FE
1020
1020
1020
ENDCHAR
STARTCHAR uni346F
ENCODING 13423
BBX 15 16 0 -2
BITMAP
0800
0FFE
0840
1080
13FC
3204
3204
53FC
9204
13FC
1204
1204
13FC
1000
1108
1204
ENDCHAR
STARTCHAR uni3470
ENCODING 13424
BBX 15 16 0 -2
BITMAP
0900
09F8
0A08
13F0
1010
37FE
3080
5144
9668
10B0
1128
1668
10A4
1122
16A0
1040
ENDCHAR
STARTCHAR uni3471
ENCODING 13425
BBX 15 16 0 -2
BITMAP
0800
0BF8
0890
1060
17FC
30A4
3128
5220
9460
1040
17FC
10E0
1150
1248
1C46
1040
ENDCHAR
STARTCHAR uni3472
ENCODING 13426
BBX 15 16 0 -2
BITMAP
1040
1040
1FFE
2040
2040
67FC
6514
A4A4
25F4
2444
2444
25F4
2444
2444
2454
2408
ENDCHAR
STARTCHAR uni3473
ENCODING 13427
BBX 15 16 0 -2
BITMAP
0900
0900
0BFE
1442
1252
33F2
3082
5114
9608
13FE
1442
1A52
13F2
1082
1114
1608
ENDCHAR
STARTCHAR uni3474
ENCODING 13428
BBX 15 16 0 -2
BITMAP
0BF8
0808
09F8
1008
13F8
3000
37FC
5444
93F8
1248
1258
1040
13F8
1110
10E0
171E
ENDCHAR
STARTCHAR uni3475
ENCODING 13429
BBX 15 16 0 -2
BITMAP
0820
0810
09FE
1100
1120
3520
333C
5150
9190
1310
15FE
1110
1128
1228
1244
1482
ENDCHAR
STARTCHAR uni3476
ENCODING 13430
BBX 15 16 0 -2
BITMAP
0900
0900
09FC
1200
15F8
3000
33F8
5088
92A8
11C8
17F8
108A
11CA
16AA
1086
1082
ENDCHAR
STARTCHAR uni3477
ENCODING 13431
BBX 15 16 0 -2
BITMAP
1110
1212
1454
27D8
2010
6012
67D2
A44E
2440
27D2
2454
2458
27D0
2452
2552
248E
ENDCHAR
STARTCHAR uni3478
ENCODING 13432
BBX 15 16 0 -2
BITMAP
0840
0840
0FFC
1040
13F8
3208
33F8
5000
9FFE
1008
13E8
1228
13E8
1008
1028
1010
ENDCHAR
STARTCHAR uni3479
ENCODING 13433
BBX 15 16 0 -2
BITMAP
0100
0280
0440
0FE0
3118
DFF6
1110
1FF0
1110
1FF0
0000
0FE0
0820
0FE0
0820
0FE0
ENDCHAR
STARTCHAR uni347A
ENCODING 13434
BBX 15 16 0 -2
BITMAP
08A0
0890
09FE
1320
15FC
3120
31FC
5120
91FE
1100
13FC
1088
109E
1102
120A
1404
ENDCHAR
STARTCHAR uni347B
ENCODING 13435
BBX 15 16 0 -2
BITMAP
1080
1040
17FE
2402
2894
6050
6524
A54A
28FA
2300
2040
2444
2444
2444
27FC
2004
ENDCHAR
STARTCHAR uni347C
ENCODING 13436
BBX 15 16 0 -2
BITMAP
1010
1010
103C
2FA4
2AC4
6AA8
6A90
AFA8
2AC6
2A80
2ABC
2AA4
2FA4
28A4
203C
2024
ENDCHAR
STARTCHAR uni347D
ENCODING 13437
BBX 15 16 0 -2
BITMAP
1040
1444
1248
2FFE
2802
63F8
6208
A208
23F8
2040
2040
27FC
2040
2040
2FFE
2000
ENDCHAR
STARTCHAR uni347E
ENCODING 13438
BBX 15 16 0 -2
BITMAP
0840
08FC
0908
1650
1120
30C0
3320
5FFE
9000
13FC
1000
13FC
1000
13FC
1204
13FC
ENDCHAR
STARTCHAR uni347F
ENCODING 13439
BBX 15 16 0 -2
BITMAP
1248
1490
1248
2000
23F8
6248
63F8
A248
23F8
2040
27FC
20E0
2150
2248
2C46
2040
ENDCHAR
STARTCHAR uni3480
ENCODING 13440
BBX 14 16 0 -2
BITMAP
1080
1040
17FC
2110
20A0
67FC
6444
A5F4
2444
25F4
2514
2514
25F4
2404
2414
2408
ENDCHAR
STARTCHAR uni3481
ENCODING 13441
BBX 14 16 0 -2
BITMAP
1000
17FC
1444
2444
25F4
6444
67FC
A514
24A4
25F4
2444
27FC
2444
2444
27FC
2404
ENDCHAR
STARTCHAR uni3482
ENCODING 13442
BBX 15 16 0 -2
BITMAP
0908
0908
0FFE
1108
1044
33F4
3048
5050
97FE
1080
11FC
1304
15FC
1904
11FC
1104
ENDCHAR
STARTCHAR uni3483
ENCODING 13443
BBX 15 16 0 -2
BITMAP
0814
0BFE
0810
13D0
1010
33D0
3010
53D0
9250
13D0
1250
13C8
124A
13CA
1186
1242
ENDCHAR
STARTCHAR uni3484
ENCODING 13444
BBX 15 16 0 -2
BITMAP
0910
0914
09D2
1250
127E
3550
3090
52A8
9128
1144
1244
1482
1008
12A4
1252
1452
ENDCHAR
STARTCHAR uni3485
ENCODING 13445
BBX 15 16 0 -2
BITMAP
0820
0BFE
0840
10F8
1348
3030
33D0
503C
91C4
1048
1030
13C4
10A8
1190
16A8
10C6
ENDCHAR
STARTCHAR uni3486
ENCODING 13446
BBX 15 16 0 -2
BITMAP
0840
08A0
0918
16E6
1000
33F8
3208
53F8
9000
17BC
1084
14A4
1294
14A4
1294
1108
ENDCHAR
STARTCHAR uni3487
ENCODING 13447
BBX 15 16 0 -2
BITMAP
1100
1100
13FC
26A8
2AA8
62A8
67FC
A2A8
22A8
22A8
2FFE
2000
22A8
2254
2454
2000
ENDCHAR
STARTCHAR uni3488
ENCODING 13448
BBX 15 16 0 -2
BITMAP
1008
1788
1088
2110
2FDE
6494
64A4
A794
2494
2794
2494
24C8
2788
2C94
20A4
20C2
ENDCHAR
STARTCHAR uni3489
ENCODING 13449
BBX 15 16 0 -2
BITMAP
0840
0A48
0950
17FC
1404
31F0
3110
5110
91F0
1040
17FC
10E0
1150
1248
1446
1040
ENDCHAR
STARTCHAR uni348A
ENCODING 13450
BBX 15 16 0 -2
BITMAP
1000
17BC
1294
26B4
2AD4
64A4
65AC
A840
2108
2108
25A8
252C
2528
25A8
2E7E
2000
ENDCHAR
STARTCHAR uni348B
ENCODING 13451
BBX 15 16 0 -2
BITMAP
1480
1482
149C
2FD0
2490
6790
649E
A794
2494
2494
2FD4
2014
2514
28A4
3024
2044
ENDCHAR
STARTCHAR uni348C
ENCODING 13452
BBX 15 16 0 -2
BITMAP
1110
1554
15B8
2910
22A8
6444
6000
A7FC
2404
29E8
2120
2120
2120
2222
2422
281E
ENDCHAR
STARTCHAR uni348D
ENCODING 13453
BBX 14 16 0 -2
BITMAP
0880
0910
0BF8
1210
14A4
37BC
3080
5110
93E0
1040
1088
17FC
1044
1248
1544
1080
ENDCHAR
STARTCHAR uni348E
ENCODING 13454
BBX 15 16 0 -2
BITMAP
0800
0BF8
0880
17FC
1110
3208
3CA6
50A0
97BC
10A0
13B8
10A0
17BC
10A0
10A0
10A0
ENDCHAR
STARTCHAR uni348F
ENCODING 13455
BBX 15 16 0 -2
BITMAP
0840
0820
0FFE
1492
13FC
3090
33FC
5090
97FE
1108
1204
1462
1010
1180
1060
1010
ENDCHAR
STARTCHAR uni3490
ENCODING 13456
BBX 15 16 0 -2
BITMAP
0910
0910
09DE
12A8
1444
3100
31FC
5204
95F4
1114
11F4
1114
11F4
1114
1028
1010
ENDCHAR
STARTCHAR uni3491
ENCODING 13457
BBX 15 16 0 -2
BITMAP
1000
17FE
1428
2624
257E
6448
64C8
A47E
2648
257E
2448
2448
257E
2640
27FE
2000
ENDCHAR
STARTCHAR uni3492
ENCODING 13458
BBX 15 16 0 -2
BITMAP
10A0
14A4
12A8
20A0
27FC
6110
60A0
A7FC
2040
23F8
2040
27FC
2150
2248
2C46
2040
ENDCHAR
STARTCHAR uni3493
ENCODING 13459
BBX 15 16 0 -2
BITMAP
1010
1410
127C
2010
20FE
6044
6628
A2FE
2210
227C
2210
22FE
2210
2210
25FE
2800
ENDCHAR
STARTCHAR uni3494
ENCODING 13460
BBX 15 16 0 -2
BITMAP
1000
17FC
14A4
24A4
27FC
6200
63FE
A442
2BFA
224A
23FA
2052
207A
278A
2214
2008
ENDCHAR
STARTCHAR uni3495
ENCODING 13461
BBX 15 16 0 -2
BITMAP
1040
1020
17FE
2028
2224
627E
64C8
A748
217E
2248
24C8
2F7E
2148
2248
247E
2840
ENDCHAR
STARTCHAR uni3496
ENCODING 13462
BBX 14 16 0 -2
BITMAP
1110
1110
17FC
2110
23F8
6248
63F8
A248
23F8
2040
27FC
2444
2454
25F4
2414
240C
ENDCHAR
STARTCHAR uni3497
ENCODING 13463
BBX 15 16 0 -2
BITMAP
1110
17FC
1110
21F0
2110
61F0
6110
A7FE
2402
2BFC
2110
23F8
2040
23F8
2040
27FC
ENDCHAR
STARTCHAR uni3498
ENCODING 13464
BBX 15 16 0 -2
BITMAP
1000
17BC
1514
2794
2488
6788
6514
A7A2
2080
2040
27FC
2000
2208
2110
2FFE
2000
ENDCHAR
STARTCHAR uni3499
ENCODING 13465
BBX 15 16 0 -2
BITMAP
1108
1110
123E
22A2
24BE
6F22
613E
A208
24BE
2FAA
20AA
202A
2AAA
2AAE
2808
2008
ENDCHAR
STARTCHAR uni349A
ENCODING 13466
BBX 15 16 0 -2
BITMAP
103E
17C0
1244
2128
23F8
6040
67FC
A000
23F8
2008
23F8
2008
23F8
2544
252A
28FA
ENDCHAR
STARTCHAR uni349B
ENCODING 13467
BBX 15 16 0 -2
BITMAP
1000
17BC
1084
24A4
2294
64A4
6120
A210
27FC
2A20
23FC
2220
23FC
2220
23FE
2200
ENDCHAR
STARTCHAR uni349C
ENCODING 13468
BBX 15 16 0 -2
BITMAP
0940
0A4C
0A64
1244
134C
3264
32A4
53AC
92A4
12A4
17FE
1000
1110
1108
1204
1404
ENDCHAR
STARTCHAR uni349D
ENCODING 13469
BBX 15 16 0 -2
BITMAP
0908
0FFE
0908
1000
13FC
3294
3294
53FC
9028
13FE
1220
1324
12A8
1292
142A
18C6
ENDCHAR
STARTCHAR uni349E
ENCODING 13470
BBX 15 16 0 -2
BITMAP
0820
0A22
0BFE
1090
11FE
3310
35FE
5110
91FE
1110
11FE
1100
13DE
1252
1272
1206
ENDCHAR
STARTCHAR uni349F
ENCODING 13471
BBX 15 16 0 -2
BITMAP
1040
17FE
1000
23FC
2240
63F8
6240
A3F8
2240
23FC
2004
2554
20A8
2310
2D48
2186
ENDCHAR
STARTCHAR uni34A0
ENCODING 13472
BBX 15 16 0 -2
BITMAP
1100
11BC
1524
27A8
2490
6AA8
6146
A2A0
27BC
20A0
23B8
20A0
27BC
20A0
2FFE
2000
ENDCHAR
STARTCHAR uni34A1
ENCODING 13473
BBX 15 16 0 -2
BITMAP
1182
1E3C
1088
2A90
2522
643C
6788
AA12
223E
2F88
2208
2AAC
2AAA
2BCA
2EA8
2090
ENDCHAR
STARTCHAR uni34A2
ENCODING 13474
BBX 15 16 0 -2
BITMAP
1040
10A0
1110
2208
2DF6
6000
6EEE
AAAA
2EEE
2000
2FFE
2922
2FFE
2922
292A
2804
ENDCHAR
STARTCHAR uni34A3
ENCODING 13475
BBX 15 16 0 -2
BITMAP
1040
1020
17FE
24A8
24FE
6550
677C
A550
257C
2550
257E
2540
28A4
2A8A
328A
2478
ENDCHAR
STARTCHAR uni34A4
ENCODING 13476
BBX 15 16 0 -2
BITMAP
0BFC
0908
09F8
1108
11F8
310E
37F8
5008
97FE
1294
139C
1294
139C
12D6
17BC
1084
ENDCHAR
STARTCHAR uni34A5
ENCODING 13477
BBX 15 16 0 -2
BITMAP
1150
13F8
1554
27FC
2554
67FC
6554
A7FC
2000
27FC
2000
23F8
2208
23F8
2110
2FFE
ENDCHAR
STARTCHAR uni34A6
ENCODING 13478
BBX 15 16 0 -2
BITMAP
17FC
1444
17FC
2444
27FC
6000
6FBE
AAAA
2FBE
2AAA
2FBE
2040
2040
27FC
2040
2FFE
ENDCHAR
STARTCHAR uni34A7
ENCODING 13479
BBX 15 16 0 -2
BITMAP
1418
1214
1F90
253E
2AA8
6DE8
68BE
AFA8
2228
2FBE
2AA8
2AA8
2BA8
28BE
2AA0
2920
ENDCHAR
STARTCHAR uni34A8
ENCODING 13480
BBX 15 16 0 -2
BITMAP
1040
15F6
1912
29B2
2D56
69B2
6912
ADF6
2080
2FFE
2208
25F4
2912
21F0
2104
20FC
ENDCHAR
STARTCHAR uni34A9
ENCODING 13481
BBX 15 16 0 -2
BITMAP
11F0
1210
13E0
2020
27FC
6188
6650
A1A8
2664
21A0
2248
2FBE
2AAA
2FBE
228A
2FBE
ENDCHAR
STARTCHAR uni34AA
ENCODING 13482
BBX 15 16 0 -2
BITMAP
0380
0C60
3EF8
E8A6
3EF8
2288
3EF8
28A0
3EF8
1000
11FC
5CA0
5154
50B8
5D54
E0B2
ENDCHAR
STARTCHAR uni34AB
ENCODING 13483
BBX 15 15 0 -2
BITMAP
0FF8
0800
0800
0FF0
0800
0800
FFFE
0440
0440
0440
0440
0844
0844
1044
603C
ENDCHAR
STARTCHAR uni34AC
ENCODING 13484
BBX 15 15 0 -2
BITMAP
7DFC
0020
0020
0020
FCF8
2820
2820
2820
2820
29FC
2800
2800
4802
47FE
8000
ENDCHAR
STARTCHAR uni34AD
ENCODING 13485
BBX 15 15 0 -2
BITMAP
3E7C
2244
2244
2244
2244
3E7C
1428
1428
1428
1428
144A
254A
268A
4486
8100
ENDCHAR
STARTCHAR uni34AE
ENCODING 13486
BBX 15 15 0 -2
BITMAP
01FE
7820
0040
00A2
0334
FC58
2894
2B34
2852
2892
2B50
2822
4802
47FE
8000
ENDCHAR
STARTCHAR uni34AF
ENCODING 13487
BBX 15 16 0 -2
BITMAP
1088
13FE
9088
5400
59FC
10A8
FCA8
2BFE
28A8
28A8
29FC
2820
2BFE
4C20
4820
8020
ENDCHAR
STARTCHAR uni34B0
ENCODING 13488
BBX 15 15 0 -1
BITMAP
0600
0100
0280
0440
0820
3018
C006
0000
1FF0
0100
0100
0100
0100
0100
7FFC
ENDCHAR
STARTCHAR uni34B1
ENCODING 13489
BBX 15 16 0 -2
BITMAP
0600
0100
0280
0440
0820
3218
C206
07F0
0810
1410
2220
0140
0080
0300
1C00
E000
ENDCHAR
STARTCHAR uni34B2
ENCODING 13490
BBX 15 16 0 -2
BITMAP
0600
0100
0280
0440
0820
3018
DFF6
1010
1010
1010
1FF0
1010
1010
1010
1FF0
1010
ENDCHAR
STARTCHAR uni34B3
ENCODING 13491
BBX 13 15 1 -2
BITMAP
FFF8
8208
8208
8208
A288
9248
9248
AAA8
C718
8208
8208
8208
8208
8228
8210
ENDCHAR
STARTCHAR uni34B4
ENCODING 13492
BBX 15 16 0 -2
BITMAP
0600
0100
0280
0440
0820
3118
D116
1110
1110
1FF0
0100
2108
2108
2108
3FF8
0008
ENDCHAR
STARTCHAR uni34B5
ENCODING 13493
BBX 13 16 1 -2
BITMAP
0800
1000
7FF0
4010
4010
7FF0
4010
4010
7FF0
0000
0000
0880
1040
2020
4010
8008
ENDCHAR
STARTCHAR uni34B6
ENCODING 13494
BBX 15 16 0 -2
BITMAP
0440
0440
0820
1010
2108
C206
1FF0
1010
1010
1010
1FF0
1010
1010
1010
1FF0
1010
ENDCHAR
STARTCHAR uni34B7
ENCODING 13495
BBX 13 15 1 -2
BITMAP
3FE0
2020
2220
2220
2220
2520
28A0
2020
2020
FFF8
0000
0880
1040
2020
4010
ENDCHAR
STARTCHAR uni34B8
ENCODING 13496
BBX 15 16 0 -2
BITMAP
0820
0420
0440
7FFC
0200
0600
1908
6290
04A0
18C0
61A0
0298
0C86
3080
C280
0100
ENDCHAR
STARTCHAR uni34B9
ENCODING 13497
BBX 15 16 0 -2
BITMAP
1010
1010
FEFE
1010
7C7C
4444
7C7C
4444
7C7C
4444
7C7C
4444
FEFE
2828
4444
8282
ENDCHAR
STARTCHAR uni34BA
ENCODING 13498
BBX 13 15 1 -2
BITMAP
FFF8
8008
9048
8888
BFE8
8008
9108
9108
9288
9448
9008
9FE8
8008
8028
8010
ENDCHAR
STARTCHAR uni34BB
ENCODING 13499
BBX 15 16 0 -2
BITMAP
7FFC
4004
5FF4
4004
5FF4
0000
1FF0
1010
1FF0
1010
1FF0
1010
1FF0
0442
1842
E03E
ENDCHAR
STARTCHAR uni34BC
ENCODING 13500
BBX 15 16 0 -2
BITMAP
0820
0820
FFFE
0820
0820
0FE0
0100
7FFC
4104
5144
4924
5554
638C
4104
4114
4108
ENDCHAR
STARTCHAR uni34BD
ENCODING 13501
BBX 15 16 0 -2
BITMAP
3FF8
2008
2FE8
2008
2FE8
1110
0920
7FFC
0400
FFFE
1010
2FE8
C826
08A0
0848
07F8
ENDCHAR
STARTCHAR uni34BE
ENCODING 13502
BBX 15 15 0 -2
BITMAP
3FF8
2008
2FE8
2008
2FE8
2040
1040
FEFE
2120
3CAC
24F4
27A4
44AC
54A2
887E
ENDCHAR
STARTCHAR uni34BF
ENCODING 13503
BBX 14 16 1 -2
BITMAP
7FF0
4010
5FD0
4010
5FD0
1000
FE50
2848
92FC
AB90
FEFC
1090
FEFC
AA90
BAFC
8680
ENDCHAR
STARTCHAR uni34C0
ENCODING 13504
BBX 15 15 0 -2
BITMAP
7FFE
4002
8004
0200
0200
0200
0200
0280
0240
0220
0210
0200
0200
0200
0200
ENDCHAR
STARTCHAR uni34C1
ENCODING 13505
BBX 15 5 0 7
BITMAP
7FFE
4002
8444
0820
1010
ENDCHAR
STARTCHAR uni34C2
ENCODING 13506
BBX 15 15 0 -2
BITMAP
7FFE
4002
8024
3E20
01FE
0044
7E44
14C8
1428
1410
146A
2586
2402
43FE
8000
ENDCHAR
STARTCHAR uni34C3
ENCODING 13507
BBX 15 15 0 -2
BITMAP
7FFE
4002
9004
0800
7F1C
00E0
3E20
0020
3E3E
01E0
3E22
2222
2222
3E1E
2200
ENDCHAR
STARTCHAR uni34C4
ENCODING 13508
BBX 15 16 0 -2
BITMAP
1010
2210
7F10
4210
94FE
F792
0892
3610
C928
30A8
C428
1928
6248
0C4A
308A
C106
ENDCHAR
STARTCHAR uni34C5
ENCODING 13509
BBX 15 15 0 -2
BITMAP
4000
23FE
2020
0020
0820
0820
1020
1020
E020
2020
2020
2020
2020
20A0
0040
ENDCHAR
STARTCHAR uni34C6
ENCODING 13510
BBX 15 15 0 -1
BITMAP
0040
4040
20A0
20A0
0110
0A08
0C06
1110
1120
E140
2180
2100
2104
2104
20FC
ENDCHAR
STARTCHAR uni34C7
ENCODING 13511
BBX 15 16 0 -2
BITMAP
0010
4078
27C0
2040
0040
0840
0840
17FE
1040
E0A0
20A0
2110
2110
2208
2404
0802
ENDCHAR
STARTCHAR uni34C8
ENCODING 13512
BBX 15 15 0 -2
BITMAP
4000
27FE
2040
0040
0880
0880
11F8
1308
E508
2908
2108
2108
2108
21F8
0108
ENDCHAR
STARTCHAR uni34C9
ENCODING 13513
BBX 15 16 0 -2
BITMAP
0010
4078
23C0
2040
0040
07FE
1040
1040
2040
E3F8
2208
2208
2208
2208
23F8
0208
ENDCHAR
STARTCHAR uni34CA
ENCODING 13514
BBX 14 15 0 -2
BITMAP
47FC
2404
2404
05F4
0404
1404
15F4
2514
E514
2514
25F4
2404
2404
2414
0408
ENDCHAR
STARTCHAR uni34CB
ENCODING 13515
BBX 15 16 0 -2
BITMAP
0110
4110
2110
2110
07FC
0110
1110
1110
2110
EFFE
2000
2110
2108
2208
2404
0804
ENDCHAR
STARTCHAR uni34CC
ENCODING 13516
BBX 15 15 0 -1
BITMAP
0040
4040
20A0
2110
0208
0406
13F8
1040
2040
E040
23F8
2040
2040
2040
27FE
ENDCHAR
STARTCHAR uni34CD
ENCODING 13517
BBX 15 16 0 -2
BITMAP
0080
4040
2040
27FE
0080
0110
1208
17FC
2124
E120
2120
2120
2222
2222
241E
0800
ENDCHAR
STARTCHAR uni34CE
ENCODING 13518
BBX 15 15 0 -2
BITMAP
43F8
2008
21F8
0008
0BF8
0800
17FC
1404
E3F0
2110
2110
20A0
2040
21B0
060E
ENDCHAR
STARTCHAR uni34CF
ENCODING 13519
BBX 14 15 0 -2
BITMAP
47FC
2404
24A4
0514
060C
1404
15F4
2514
E514
2514
25F4
2514
2404
2414
0408
ENDCHAR
STARTCHAR uni34D0
ENCODING 13520
BBX 14 15 0 -1
BITMAP
0040
4040
23F8
2040
0040
07FC
1110
1208
2444
E040
23F8
2040
2040
2040
27FC
ENDCHAR
STARTCHAR uni34D1
ENCODING 13521
BBX 15 16 0 -2
BITMAP
0040
4040
27FC
2040
0040
0FFE
1110
10A0
27FC
E040
2040
2FFE
2040
2040
2040
0040
ENDCHAR
STARTCHAR uni34D2
ENCODING 13522
BBX 15 16 0 -2
BITMAP
2040
1040
0478
0BC4
7044
103C
1100
1280
0C60
3118
C106
0990
1148
2148
0500
0200
ENDCHAR
STARTCHAR uni34D3
ENCODING 13523
BBX 15 16 0 -2
BITMAP
0040
4040
2FFE
2040
0040
07FC
1514
14A4
25F4
E444
2444
25F4
2444
2444
2454
0408
ENDCHAR
STARTCHAR uni34D4
ENCODING 13524
BBX 15 16 0 -2
BITMAP
0108
4208
2788
2488
07BE
0488
1788
14C8
24A8
EFA8
2188
2288
2488
2888
22A8
0110
ENDCHAR
STARTCHAR uni34D5
ENCODING 13525
BBX 15 16 0 -2
BITMAP
0014
4012
2010
27FE
0410
0410
17F2
1492
2492
E5B4
26D4
2488
254A
293A
2A26
1042
ENDCHAR
STARTCHAR uni34D6
ENCODING 13526
BBX 15 15 0 -2
BITMAP
47FC
2444
27FC
0444
07FC
1248
1248
2FFE
E248
2248
27FC
2040
2FFE
2040
0040
ENDCHAR
STARTCHAR uni34D7
ENCODING 13527
BBX 14 16 0 -2
BITMAP
0100
47BC
2114
2394
0114
07A4
114C
1080
2110
E3E0
2048
27FC
2044
2248
2544
0080
ENDCHAR
STARTCHAR uni34D8
ENCODING 13528
BBX 15 15 0 -2
BITMAP
3FF8
2008
2FE8
2108
23C8
2448
2A88
2108
2608
3BE8
210A
2FEA
414A
4126
9FF2
ENDCHAR
STARTCHAR uni34D9
ENCODING 13529
BBX 13 16 1 -2
BITMAP
0400
0200
0200
3FE0
8088
9088
8908
8508
8208
8508
8888
9048
A048
8008
FFF8
0008
ENDCHAR
STARTCHAR uni34DA
ENCODING 13530
BBX 14 16 0 -2
BITMAP
0004
0004
7F04
0824
0824
0824
0824
0824
0824
0824
0824
0F24
F004
4004
0014
0008
ENDCHAR
STARTCHAR uni34DB
ENCODING 13531
BBX 14 15 0 -2
BITMAP
01FC
0044
7E44
0844
0844
0844
0844
0844
0844
0E84
F084
4104
0104
0228
0410
ENDCHAR
STARTCHAR uni34DC
ENCODING 13532
BBX 14 16 0 -2
BITMAP
0800
0800
10FC
1024
2224
4224
FC24
0424
0824
1024
2424
4224
FE44
4244
0094
0108
ENDCHAR
STARTCHAR uni34DD
ENCODING 13533
BBX 14 16 0 -2
BITMAP
2204
2204
2204
2224
7F24
2224
2224
2224
FFA4
2224
2224
2224
2204
4204
4214
8208
ENDCHAR
STARTCHAR uni34DE
ENCODING 13534
BBX 14 16 0 -2
BITMAP
0800
0800
08FC
7F24
0824
0824
0824
7F24
0824
0824
0824
FFA4
0844
0844
0894
0908
ENDCHAR
STARTCHAR uni34DF
ENCODING 13535
BBX 14 16 0 -2
BITMAP
0404
0404
0404
3FA4
24A4
2524
2424
3FA4
20A4
2924
2524
2224
2504
4884
9094
0008
ENDCHAR
STARTCHAR uni34E0
ENCODING 13536
BBX 13 16 1 -2
BITMAP
1008
1008
1008
1048
1F48
1048
1048
1048
FE48
8248
8248
8248
8208
8208
FE28
8210
ENDCHAR
STARTCHAR uni34E1
ENCODING 13537
BBX 14 16 0 -2
BITMAP
2004
2004
3F04
4824
8824
0824
FF24
0824
0824
4924
4924
4904
4F04
7904
0114
0008
ENDCHAR
STARTCHAR uni34E2
ENCODING 13538
BBX 14 16 0 -2
BITMAP
1004
1004
1F04
2124
6124
9224
0C24
1224
2124
C0A4
3F24
2124
2104
2104
3F14
2108
ENDCHAR
STARTCHAR uni34E3
ENCODING 13539
BBX 14 16 0 -2
BITMAP
0804
0804
1404
2224
4124
BEA4
0024
0024
3E24
2224
2224
2224
2204
3E04
2214
0008
ENDCHAR
STARTCHAR uni34E4
ENCODING 13540
BBX 14 16 0 -2
BITMAP
0804
0804
0804
FFA4
0824
0824
7F24
0024
0024
7F24
4124
4124
4104
7F04
4114
0008
ENDCHAR
STARTCHAR uni34E5
ENCODING 13541
BBX 14 16 0 -2
BITMAP
0804
4904
2904
2924
2A24
0824
FF24
0124
0124
0124
7F24
0124
0104
0104
FF14
0108
ENDCHAR
STARTCHAR uni34E6
ENCODING 13542
BBX 14 16 0 -2
BITMAP
0004
FFC4
0804
0824
1024
7F24
4124
4124
4124
7F24
4124
4124
4104
4104
7F14
4108
ENDCHAR
STARTCHAR uni34E7
ENCODING 13543
BBX 14 16 0 -2
BITMAP
0804
0804
1404
2224
5124
88A4
7E24
0224
0424
0824
7F24
4124
4104
4104
7F14
4108
ENDCHAR
STARTCHAR uni34E8
ENCODING 13544
BBX 14 16 0 -2
BITMAP
0804
0804
0804
FFA4
0824
2A24
2A24
2A24
5D24
88A4
0824
1424
1204
2104
4114
8008
ENDCHAR
STARTCHAR uni34E9
ENCODING 13545
BBX 14 16 0 -2
BITMAP
1004
1004
1F04
2124
4224
BFA4
24A4
24A4
3FA4
24A4
24A4
3FA4
2484
4484
4294
8108
ENDCHAR
STARTCHAR uni34EA
ENCODING 13546
BBX 13 16 1 -2
BITMAP
2000
1000
FDF8
8448
8448
FC48
8448
8448
FC48
8048
9048
8848
9488
A488
C128
8210
ENDCHAR
STARTCHAR uni34EB
ENCODING 13547
BBX 14 16 0 -2
BITMAP
0804
0804
FFC4
1224
2124
40A4
BF24
1224
1224
1224
7FA4
1224
1204
2204
2214
4208
ENDCHAR
STARTCHAR uni34EC
ENCODING 13548
BBX 14 16 0 -2
BITMAP
0804
4904
2A04
7F24
0824
1024
FFA4
2224
4124
80A4
7F24
1124
1104
2104
4A14
8408
ENDCHAR
STARTCHAR uni34ED
ENCODING 13549
BBX 14 16 0 -2
BITMAP
0004
7F04
4104
7F24
4124
7F24
2024
7FA4
88A4
48A4
54A4
40A4
7E84
0084
0514
0208
ENDCHAR
STARTCHAR uni34EE
ENCODING 13550
BBX 14 16 0 -2
BITMAP
0004
3F84
2484
24A4
2EA4
24A4
3FA4
20A4
2EA4
2AA4
2AA4
2EA4
2084
4084
4294
8108
ENDCHAR
STARTCHAR uni34EF
ENCODING 13551
BBX 14 16 0 -2
BITMAP
2484
2484
4904
9224
4924
24A4
24A4
0024
7FA4
48A4
48A4
7FA4
4884
4884
7F94
4088
ENDCHAR
STARTCHAR uni34F0
ENCODING 13552
BBX 14 16 0 -2
BITMAP
0004
FF84
0804
0824
3E24
AAA4
AAA4
BEA4
AAA4
AAA4
AAA4
BEA4
8084
8F84
F094
0008
ENDCHAR
STARTCHAR uni34F1
ENCODING 13553
BBX 14 16 0 -2
BITMAP
0804
1404
2204
4124
BEA4
0024
78A4
4AA4
4AA4
7AA4
4AA4
4AA4
7A84
4884
4A94
5908
ENDCHAR
STARTCHAR uni34F2
ENCODING 13554
BBX 15 16 0 -2
BITMAP
0802
0402
3FC2
2042
2052
3FD2
2012
2012
3FD2
3552
3552
5FD2
5542
5542
944A
10C4
ENDCHAR
STARTCHAR uni34F3
ENCODING 13555
BBX 15 16 0 -2
BITMAP
0008
3E08
2248
3E48
2248
3E48
0048
FF48
0848
0848
2F08
2828
2810
5800
4FFE
8000
ENDCHAR
STARTCHAR uni34F4
ENCODING 13556
BBX 14 16 0 -2
BITMAP
0004
FF84
0804
1024
7F24
5524
5524
5524
5524
4B24
0824
FFA4
1404
2204
4114
8088
ENDCHAR
STARTCHAR uni34F5
ENCODING 13557
BBX 14 16 0 -2
BITMAP
0004
F784
9484
94A4
F7A4
0024
7F24
0024
FFA4
2024
4024
7F24
0104
0104
0A14
0408
ENDCHAR
STARTCHAR uni34F6
ENCODING 13558
BBX 14 16 0 -2
BITMAP
2004
2F04
F504
2524
7524
2524
F524
2924
2324
0824
0824
FFA4
1404
2204
4114
8088
ENDCHAR
STARTCHAR uni34F7
ENCODING 13559
BBX 14 16 0 -2
BITMAP
0804
1004
7F04
4124
7F24
4124
7F24
4124
7F24
0824
FFA4
1C24
2A04
4904
8814
0808
ENDCHAR
STARTCHAR uni34F8
ENCODING 13560
BBX 14 16 0 -2
BITMAP
0004
7704
5504
5524
7724
1424
1424
7724
4124
4124
7724
1424
1404
1F04
F014
4008
ENDCHAR
STARTCHAR uni34F9
ENCODING 13561
BBX 14 16 0 -2
BITMAP
0004
7FC4
4404
54A4
6524
4424
4A24
5124
60A4
4424
54A4
6524
4404
4A04
9114
2088
ENDCHAR
STARTCHAR uni34FA
ENCODING 13562
BBX 14 16 0 -2
BITMAP
0804
0F84
0804
7FA4
48A4
4F24
78A4
47A4
4824
4424
7FA4
4124
5A04
4404
8A14
3108
ENDCHAR
STARTCHAR uni34FB
ENCODING 13563
BBX 14 16 0 -2
BITMAP
0004
FF84
9484
94A4
FFA4
0024
0024
FFA4
0824
0824
4F24
4824
4804
4F84
F814
0008
ENDCHAR
STARTCHAR uni34FC
ENCODING 13564
BBX 14 16 0 -2
BITMAP
0804
0804
FF84
1C24
2B24
C8A4
1424
2224
4924
88A4
4924
2A24
4904
8884
2814
1008
ENDCHAR
STARTCHAR uni34FD
ENCODING 13565
BBX 14 16 0 -2
BITMAP
0804
4904
4904
7F24
1024
0824
FFA4
80A4
3F24
0024
FFA4
0824
2A04
4904
A894
1008
ENDCHAR
STARTCHAR uni34FE
ENCODING 13566
BBX 15 16 0 -2
BITMAP
0002
7FC2
4042
7FC2
4212
4A92
4712
4A92
5052
4A12
4FD2
5212
4202
BFE2
820A
0204
ENDCHAR
STARTCHAR uni34FF
ENCODING 13567
BBX 14 16 0 -2
BITMAP
0704
7804
0804
FFA4
2A24
4924
94A4
2224
4924
88A4
4924
2A24
4904
8884
2814
1008
ENDCHAR
STARTCHAR uni3500
ENCODING 13568
BBX 14 16 0 -2
BITMAP
0004
7F04
4104
7F24
4124
7F24
0824
FFA4
0024
7F24
4124
7F24
0804
4904
8894
1808
ENDCHAR
STARTCHAR uni3501
ENCODING 13569
BBX 14 16 0 -2
BITMAP
0504
7204
1284
5124
2124
5EA4
80A4
3F24
2124
2124
3F24
2124
1204
0784
7814
2008
ENDCHAR
STARTCHAR uni3502
ENCODING 13570
BBX 14 16 0 -2
BITMAP
0404
2484
1504
7FD4
1514
2494
4454
2094
2094
3BF4
4894
AA84
13E4
2084
4094
8088
ENDCHAR
STARTCHAR uni3503
ENCODING 13571
BBX 15 16 0 -2
BITMAP
1080
10F8
2510
7BFC
1124
2524
7DFC
0102
5502
94FE
0000
7FF8
0408
0808
1050
6020
ENDCHAR
STARTCHAR uni3504
ENCODING 13572
BBX 15 16 0 -2
BITMAP
0002
7FC2
0A02
7FC2
4A52
4A52
7FD2
0412
2492
1512
FFD2
0E12
1502
2482
444A
0404
ENDCHAR
STARTCHAR uni3505
ENCODING 13573
BBX 15 16 0 -2
BITMAP
0402
3F82
0482
7FC2
0492
3F92
0412
5552
75D2
4452
7FD2
4452
75C2
5542
554A
8444
ENDCHAR
STARTCHAR uni3506
ENCODING 13574
BBX 14 16 0 -2
BITMAP
0004
F784
2104
A524
F7A4
6324
B5A4
2124
7FA4
40A4
40A4
7FA4
4084
4084
7F94
4088
ENDCHAR
STARTCHAR uni3507
ENCODING 13575
BBX 14 16 0 -2
BITMAP
0504
F244
1284
A124
40A4
F764
1524
1524
79A4
4024
8F24
F124
1504
1204
5514
2908
ENDCHAR
STARTCHAR uni3508
ENCODING 13576
BBX 14 16 0 -2
BITMAP
2204
2204
FF84
2224
1424
1424
F7A4
1424
1424
7724
1424
1424
F784
1404
1414
1408
ENDCHAR
STARTCHAR uni3509
ENCODING 13577
BBX 15 16 0 -2
BITMAP
0002
7FC2
4042
7FCA
400A
5FCA
420A
5FCA
524A
5FCA
420A
7FEA
62A2
6FA2
A0AA
2064
ENDCHAR
STARTCHAR uni350A
ENCODING 13578
BBX 15 16 0 -2
BITMAP
0402
FFE2
0002
7FC2
4052
5F52
5152
7FD2
0012
3F92
2092
3F92
2082
3F82
000A
FFE4
ENDCHAR
STARTCHAR uni350B
ENCODING 13579
BBX 14 16 0 -2
BITMAP
0004
7A04
5204
7BA4
4A24
7B24
54A4
78A4
0024
7F24
5524
5524
5504
5784
FC14
0008
ENDCHAR
STARTCHAR uni350C
ENCODING 13580
BBX 14 16 0 -2
BITMAP
FC04
4B84
7884
4AA4
7924
4D24
FAA4
0CA4
07A4
F824
28A4
4D24
1A04
2904
C894
0808
ENDCHAR
STARTCHAR uni350D
ENCODING 13581
BBX 14 16 0 -2
BITMAP
4204
7BC4
A504
10A4
7FA4
40A4
7FA4
40A4
7FA4
40A4
7FA4
2124
FFC4
2104
4114
8108
ENDCHAR
STARTCHAR uni350E
ENCODING 13582
BBX 15 16 0 -2
BITMAP
5210
7EFE
2844
7E28
A2FE
3E10
2010
3E7C
2210
3E10
0000
7FF8
0408
0808
1050
6020
ENDCHAR
STARTCHAR uni350F
ENCODING 13583
BBX 15 16 0 -2
BITMAP
0002
7FC2
1002
3F8A
508A
108A
1F8A
000A
FBEA
208A
79EA
492A
CB22
4922
79EA
4924
ENDCHAR
STARTCHAR uni3510
ENCODING 13584
BBX 15 16 0 -2
BITMAP
2102
2102
3DE2
5282
8852
7FD2
0A12
7BD2
0A12
3B92
0A12
7BD2
0A02
0FC2
F80A
4004
ENDCHAR
STARTCHAR uni3511
ENCODING 13585
BBX 15 16 0 -2
BITMAP
0820
FFFE
2820
7DFC
4488
7C50
41FE
7C20
45FC
7C20
0000
7FF8
0408
0808
1050
6020
ENDCHAR
STARTCHAR uni3512
ENCODING 13586
BBX 15 16 0 -2
BITMAP
4442
7FC2
1202
3FC2
6212
BFD2
2212
3FD2
2212
3FD2
2012
7FD2
5142
6EC2
4A4A
4EC4
ENDCHAR
STARTCHAR uni3513
ENCODING 13587
BBX 14 16 0 -2
BITMAP
0420
0E20
7820
0820
08FC
0824
0824
FF24
0824
0824
0824
0844
0844
0884
0928
0A10
ENDCHAR
STARTCHAR uni3514
ENCODING 13588
BBX 14 15 0 -1
BITMAP
1000
1000
7E7C
1244
1244
1244
2244
227C
4A44
8400
1FF0
2008
2008
2008
1FF0
ENDCHAR
STARTCHAR uni3515
ENCODING 13589
BBX 14 16 0 -2
BITMAP
2020
2020
3F20
4020
80FC
7E24
0024
0024
7C24
0424
0524
0524
0344
0144
00A8
0110
ENDCHAR
STARTCHAR uni3516
ENCODING 13590
BBX 14 16 0 -2
BITMAP
1000
1000
7E7C
1244
1244
1244
2244
227C
4A44
8400
0000
3FF0
0010
0010
0010
0010
ENDCHAR
STARTCHAR uni3517
ENCODING 13591
BBX 15 16 0 -2
BITMAP
1210
1210
1210
7F90
12FE
1292
7F92
5212
5212
7FD2
1252
1252
2352
22A2
422A
8244
ENDCHAR
STARTCHAR uni3518
ENCODING 13592
BBX 14 16 0 -2
BITMAP
1020
1020
9220
9220
92FC
9224
FE24
1024
1024
9224
9224
9244
9E44
F284
0128
0210
ENDCHAR
STARTCHAR uni3519
ENCODING 13593
BBX 14 16 0 -2
BITMAP
4220
2420
0020
7E20
24FC
2424
2424
2424
FF24
2424
2424
2424
2444
4444
44A8
8510
ENDCHAR
STARTCHAR uni351A
ENCODING 13594
BBX 14 16 0 -2
BITMAP
0420
0E20
3820
0820
08FC
FF24
0824
0824
3E24
2224
2224
2224
2244
3E44
22A8
0110
ENDCHAR
STARTCHAR uni351B
ENCODING 13595
BBX 13 16 1 -2
BITMAP
0200
0200
FFF8
0200
3FE0
0000
3FE0
2020
2020
3FE0
0400
FFF0
0810
1010
20A0
C040
ENDCHAR
STARTCHAR uni351C
ENCODING 13596
BBX 14 16 0 -2
BITMAP
0220
0F20
F020
0120
91FC
4A24
0024
FE24
0424
0824
0F24
F844
4844
0884
2928
1210
ENDCHAR
STARTCHAR uni351D
ENCODING 13597
BBX 15 16 0 -2
BITMAP
0010
FF90
0810
0810
FF90
88FE
8892
CC92
AA92
AA92
DD92
9992
8892
88A2
8AAA
8144
ENDCHAR
STARTCHAR uni351E
ENCODING 13598
BBX 14 16 0 -2
BITMAP
0220
0F20
7820
0820
FF7C
0824
2A24
2A24
EBA4
2A24
2AA4
6B24
AA44
0844
0894
0908
ENDCHAR
STARTCHAR uni351F
ENCODING 13599
BBX 14 16 1 -2
BITMAP
1040
5040
7DF0
9050
1150
7C90
1094
1D54
F24C
0404
0400
FFF0
0810
1010
20A0
C040
ENDCHAR
STARTCHAR uni3520
ENCODING 13600
BBX 14 16 0 -2
BITMAP
0020
7E20
4220
7E20
42FC
7E24
2024
7F24
8924
4924
5524
4124
7D44
0144
0AA8
0510
ENDCHAR
STARTCHAR uni3521
ENCODING 13601
BBX 13 16 1 -2
BITMAP
1040
2040
FE40
AA40
93F8
AA48
8248
FE48
0048
8848
EE48
8848
AA88
CC88
8950
0220
ENDCHAR
STARTCHAR uni3522
ENCODING 13602
BBX 15 16 0 -2
BITMAP
1080
10F8
2510
7BFC
1124
2524
7DFC
0102
5502
94FE
0200
7FF8
0408
0808
1050
6020
ENDCHAR
STARTCHAR uni3523
ENCODING 13603
BBX 15 16 0 -2
BITMAP
0008
3F88
2488
3F88
24BE
3F8A
000A
FBEA
AAAA
AAAA
FBEA
AAAA
AAB2
FBF2
002A
0044
ENDCHAR
STARTCHAR uni3524
ENCODING 13604
BBX 14 16 0 -2
BITMAP
1020
0820
7F20
4120
86FC
7824
4924
2A24
FF24
2A24
4124
BE24
2A44
3E44
2AA8
3F10
ENDCHAR
STARTCHAR uni3525
ENCODING 13605
BBX 15 16 0 -2
BITMAP
0010
FF10
A510
A510
FF7E
4412
9492
F712
0492
F392
9012
F492
9712
F422
94AA
B3C4
ENDCHAR
STARTCHAR uni3526
ENCODING 13606
BBX 15 16 0 -2
BITMAP
2210
FF90
0810
7F10
107E
FF92
2212
4912
BE92
2212
3E12
2212
3E92
2522
2A2A
3144
ENDCHAR
STARTCHAR uni3527
ENCODING 13607
BBX 15 16 0 -2
BITMAP
0810
0F90
0810
7F90
48FE
7E12
4892
5F92
5512
5F12
5512
5F12
4012
BFA2
2AAA
7FC4
ENDCHAR
STARTCHAR uni3528
ENCODING 13608
BBX 14 16 0 -2
BITMAP
1000
1000
3FFC
4524
BDC4
0514
1CF4
6404
1FC4
1044
1FC4
1044
1FC4
1044
1154
1088
ENDCHAR
STARTCHAR uni3529
ENCODING 13609
BBX 14 16 0 -2
BITMAP
1000
1000
3FFC
2204
5FC4
8204
3FE4
0404
0884
1FC4
0004
1FC4
1544
1544
3FE8
0010
ENDCHAR
STARTCHAR uni352A
ENCODING 13610
BBX 14 16 0 -2
BITMAP
1000
1000
3FFC
2204
4204
83F4
0204
3FE4
2AA4
2524
3264
2524
2AA4
3FE4
2028
0010
ENDCHAR
STARTCHAR uni352B
ENCODING 13611
BBX 15 16 0 -2
BITMAP
0400
0400
0400
0400
FFFE
0480
0480
0484
0488
0890
08E0
1082
1082
2082
407E
8000
ENDCHAR
STARTCHAR uni352C
ENCODING 13612
BBX 15 16 0 -2
BITMAP
2030
21C0
3E08
2008
1FF8
0000
1FF0
1010
1FF0
1010
1FF0
0100
FFFE
0100
0100
0100
ENDCHAR
STARTCHAR uni352D
ENCODING 13613
BBX 14 15 1 -2
BITMAP
87F0
8410
8410
87F0
F410
8410
87F0
8000
8FFC
8080
9480
A4F0
C480
8A80
11FC
ENDCHAR
STARTCHAR uni352E
ENCODING 13614
BBX 15 16 0 -2
BITMAP
5110
5112
FA54
53D8
7010
2012
FBD2
AA4E
FA40
23D2
FA54
2258
FBD0
2252
5252
8ACE
ENDCHAR
STARTCHAR uni352F
ENCODING 13615
BBX 14 14 1 -1
BITMAP
FFF8
8000
8FE0
8820
8820
9018
A000
8FE0
8820
8820
8820
8FE0
8000
FFFC
ENDCHAR
STARTCHAR uni3530
ENCODING 13616
BBX 14 14 1 -1
BITMAP
FFF8
8440
8440
8740
8960
8950
8948
9548
A240
8240
8440
8840
9040
FFFC
ENDCHAR
STARTCHAR uni3531
ENCODING 13617
BBX 14 14 1 -1
BITMAP
FFF8
8000
8500
9970
9110
9D70
9110
9FF0
8280
8440
8820
B010
8000
FFFC
ENDCHAR
STARTCHAR uni3532
ENCODING 13618
BBX 14 14 1 -1
BITMAP
FFF8
8440
8A40
9540
BEF0
D250
9E50
9250
9E50
9054
9454
9A8C
9100
FFFC
ENDCHAR
STARTCHAR uni3533
ENCODING 13619
BBX 14 14 1 -1
BITMAP
FFF8
8400
8A70
9550
BED0
D250
9E50
9250
9E54
9054
9494
9A8C
9100
FFFC
ENDCHAR
STARTCHAR uni3534
ENCODING 13620
BBX 14 14 1 -1
BITMAP
FFF8
8000
9FF0
9110
9FF0
9110
9FF0
8440
9FF0
8440
BFF8
8820
9010
FFFC
ENDCHAR
STARTCHAR uni3535
ENCODING 13621
BBX 14 16 1 -2
BITMAP
FFFC
8000
BCF0
A490
BCF0
A288
9E78
8440
9FF0
8440
8440
BFF8
8440
8820
9010
FFFC
ENDCHAR
STARTCHAR uni3536
ENCODING 13622
BBX 14 16 1 -2
BITMAP
FFFC
8840
FF78
94C8
FF30
80CC
BEF8
A220
BFFC
A288
BEF8
8888
FFF8
8850
8888
FFFC
ENDCHAR
STARTCHAR uni3537
ENCODING 13623
BBX 14 14 1 -1
BITMAP
FFF8
8000
9FF0
8100
8100
9FF0
9110
9290
9450
9850
9010
9050
9020
FFFC
ENDCHAR
STARTCHAR uni3538
ENCODING 13624
BBX 14 16 1 -2
BITMAP
FFFC
8000
807C
9F80
90F8
9080
97FC
9484
94F0
9588
9478
A400
A9E0
C928
9218
FFFC
ENDCHAR
STARTCHAR uni3539
ENCODING 13625
BBX 14 16 0 -2
BITMAP
1040
1040
1040
1040
11FC
1044
FE44
1044
1044
1084
1084
1084
1104
1104
1228
1410
ENDCHAR
STARTCHAR uni353A
ENCODING 13626
BBX 15 15 0 -1
BITMAP
0100
0100
0100
7FFC
0100
1100
1120
1020
FFFE
1020
1020
1022
1002
1002
0FFE
ENDCHAR
STARTCHAR uni353B
ENCODING 13627
BBX 15 15 0 -2
BITMAP
7FFC
0100
0300
0560
1918
6104
0100
0000
0100
0100
FFFE
0100
0100
0100
0100
ENDCHAR
STARTCHAR uni353C
ENCODING 13628
BBX 15 16 0 -2
BITMAP
10A0
1090
FDFE
1320
1DFC
3120
D1FC
1120
51FE
2100
0000
0100
FFFE
0100
0100
0100
ENDCHAR
STARTCHAR uni353D
ENCODING 13629
BBX 13 16 2 -2
BITMAP
0400
0400
07F8
0400
0400
FFE0
8020
8020
9F20
9120
9120
9F20
8020
8020
FFE0
8020
ENDCHAR
STARTCHAR uni353E
ENCODING 13630
BBX 12 14 2 -1
BITMAP
FF80
8080
8080
8080
8080
8080
8080
8500
8200
8000
8010
8010
8010
7FF0
ENDCHAR
STARTCHAR uni353F
ENCODING 13631
BBX 15 15 0 -2
BITMAP
FFFE
1010
1010
1010
1010
1010
1010
1010
1070
1190
1610
1810
0010
0010
0010
ENDCHAR
STARTCHAR uni3540
ENCODING 13632
BBX 13 15 2 -1
BITMAP
0400
0400
FFE0
8420
FFE0
8420
FFE0
0000
7FC0
4040
4040
4148
4088
4008
3FF8
ENDCHAR
STARTCHAR uni3541
ENCODING 13633
BBX 14 16 0 -2
BITMAP
0100
3200
0C7C
1244
6944
0844
FFC4
1044
2444
2444
4844
8A54
1148
3F40
1140
0040
ENDCHAR
STARTCHAR uni3542
ENCODING 13634
BBX 15 15 0 -2
BITMAP
3FFE
2080
2080
2140
2220
2410
2908
3086
2080
2FF0
2010
2020
4020
4040
8080
ENDCHAR
STARTCHAR uni3543
ENCODING 13635
BBX 15 15 0 -2
BITMAP
3FFE
2000
2000
27FC
2110
2110
2110
2110
2FFE
2110
2110
2210
4210
4410
8810
ENDCHAR
STARTCHAR uni3544
ENCODING 13636
BBX 15 15 0 -2
BITMAP
3FFE
2000
2000
2FFC
2080
2100
2210
2420
2FC0
2080
2100
2210
4408
4FFC
8404
ENDCHAR
STARTCHAR uni3545
ENCODING 13637
BBX 15 15 0 -2
BITMAP
3FFE
2000
2000
27FC
2444
2444
27FC
2444
2444
27FC
2444
2040
4040
4040
8040
ENDCHAR
STARTCHAR uni3546
ENCODING 13638
BBX 15 15 0 -2
BITMAP
3FFE
2000
2040
2040
2FFE
2040
2040
2040
27FC
2404
2404
2404
4404
47FC
8404
ENDCHAR
STARTCHAR uni3547
ENCODING 13639
BBX 15 15 0 -2
BITMAP
3FFE
2000
2080
2040
2040
2FFC
2000
2408
2208
2210
2110
2120
4000
5FFE
8000
ENDCHAR
STARTCHAR uni3548
ENCODING 13640
BBX 15 15 0 -2
BITMAP
3FFE
2080
2040
2000
3FFE
2080
2100
2284
2688
2A50
3220
2210
4288
4306
8200
ENDCHAR
STARTCHAR uni3549
ENCODING 13641
BBX 15 15 0 -2
BITMAP
3FFE
2080
2080
2140
2220
2410
2BE8
3006
2000
27F0
2410
2410
4410
47F0
8410
ENDCHAR
STARTCHAR uni354A
ENCODING 13642
BBX 15 15 0 -2
BITMAP
3FFE
2000
2048
2044
2FFE
2040
27FC
2444
27FC
2444
27FC
2444
4444
4454
8408
ENDCHAR
STARTCHAR uni354B
ENCODING 13643
BBX 15 15 0 -2
BITMAP
3FFE
2080
2140
2220
2410
2808
37F6
2080
2080
2FF8
2080
2490
42A0
5FFE
8000
ENDCHAR
STARTCHAR uni354C
ENCODING 13644
BBX 15 15 0 -2
BITMAP
3FFE
2000
27F8
2408
27F8
2408
27F8
2000
2FFC
2010
3FFE
2410
4210
4250
8020
ENDCHAR
STARTCHAR uni354D
ENCODING 13645
BBX 15 15 0 -2
BITMAP
3FFE
2280
2240
2240
27FC
2440
2C40
37F8
2440
2440
27F8
2440
4440
47FC
8400
ENDCHAR
STARTCHAR uni354E
ENCODING 13646
BBX 15 15 0 -2
BITMAP
3FFE
2080
2080
2FFC
2080
3FFE
2200
2408
2FFC
2000
2FFC
2924
4924
7FFE
8000
ENDCHAR
STARTCHAR uni354F
ENCODING 13647
BBX 15 15 0 -2
BITMAP
3FFE
2000
3F88
2048
2F28
2908
2948
2928
2F0E
2078
2908
2608
4388
5C08
8808
ENDCHAR
STARTCHAR uni3550
ENCODING 13648
BBX 15 15 0 -2
BITMAP
3FFE
2100
2638
2408
2738
2408
27F8
2200
27FC
2804
2554
2554
4804
4028
8010
ENDCHAR
STARTCHAR uni3551
ENCODING 13649
BBX 15 15 0 -2
BITMAP
3FFE
2204
2204
3FC4
2204
2FBE
2004
2FA4
2894
2F94
2884
2504
4384
5C14
8808
ENDCHAR
STARTCHAR uni3552
ENCODING 13650
BBX 15 16 0 -2
BITMAP
3FFE
2408
2210
3FFE
2080
2FFC
2080
3FFE
20A0
2F28
2224
3FFE
4228
5F12
822A
06C6
ENDCHAR
STARTCHAR uni3553
ENCODING 13651
BBX 15 15 0 -2
BITMAP
3FFE
2000
27FC
2554
24E4
27FC
2040
27FC
2040
2FFE
24A4
2852
47FC
4040
8FFE
ENDCHAR
STARTCHAR uni3554
ENCODING 13652
BBX 15 16 0 -2
BITMAP
3FFE
2010
3F10
2AFE
2E10
2AFE
2EAA
2AAA
3EFE
2200
3EFE
2A20
5E14
4AA2
BF28
0218
ENDCHAR
STARTCHAR uni3555
ENCODING 13653
BBX 12 16 2 -2
BITMAP
0400
0400
0800
1080
2040
4020
FFF0
4010
0400
0400
0800
1080
2040
4020
FFF0
4010
ENDCHAR
STARTCHAR uni3556
ENCODING 13654
BBX 15 16 0 -2
BITMAP
0400
0820
1010
3FF8
0810
1020
2448
7EFC
0204
0100
FFFE
0540
0920
3118
C106
0100
ENDCHAR
STARTCHAR uni3557
ENCODING 13655
BBX 15 16 0 -2
BITMAP
4100
2210
FF90
0810
7F20
0820
FFA0
1040
1048
3E84
42FC
8404
0800
1400
23FE
C000
ENDCHAR
STARTCHAR uni3558
ENCODING 13656
BBX 15 16 0 -2
BITMAP
0400
0820
1010
3FF8
0810
1020
2448
7EFC
0100
06C0
1830
E10E
0920
1110
2508
0200
ENDCHAR
STARTCHAR uni3559
ENCODING 13657
BBX 15 16 0 -2
BITMAP
1080
1080
20F0
4510
FE20
29FC
4524
A324
3D24
45FC
4450
A858
1094
2892
4512
820E
ENDCHAR
STARTCHAR uni355A
ENCODING 13658
BBX 15 15 0 -2
BITMAP
3FF0
1010
1210
1120
0920
0820
4440
2440
2280
0100
0280
0440
0820
3018
C006
ENDCHAR
STARTCHAR uni355B
ENCODING 13659
BBX 15 15 0 -2
BITMAP
3FF0
0020
1E40
0180
0660
1818
E004
3FF0
1010
0820
0440
0380
0C60
3018
C006
ENDCHAR
STARTCHAR uni355C
ENCODING 13660
BBX 15 16 0 -2
BITMAP
0100
0100
3FF8
2108
2108
3FF8
0100
0100
3FF0
1010
0820
0440
0380
0C60
3018
C006
ENDCHAR
STARTCHAR uni355D
ENCODING 13661
BBX 15 16 0 -2
BITMAP
0100
0100
7FFC
0100
0100
1FF0
1010
1010
1FF0
0000
3FF0
0820
0440
0380
1C70
E00E
ENDCHAR
STARTCHAR uni355E
ENCODING 13662
BBX 15 15 0 -2
BITMAP
3F00
217C
2124
3F24
2424
2424
2428
3F28
3528
3510
5510
5528
9728
0444
0482
ENDCHAR
STARTCHAR uni355F
ENCODING 13663
BBX 14 16 1 -2
BITMAP
1000
1000
1E00
11F8
1088
FE88
AA88
AA88
AA50
FE50
AA20
AA20
AA50
A250
8A88
8504
ENDCHAR
STARTCHAR uni3560
ENCODING 13664
BBX 15 16 0 -2
BITMAP
4140
2120
03FE
0A20
17FC
EA20
23FC
2220
23FE
0200
3FF0
0820
0440
0380
1C70
E00E
ENDCHAR
STARTCHAR uni3561
ENCODING 13665
BBX 15 16 0 -2
BITMAP
0800
0F00
087C
FFA4
80A4
7F24
1424
2228
4928
1628
2110
FE10
2228
2228
3E44
2282
ENDCHAR
STARTCHAR uni3562
ENCODING 13666
BBX 15 16 0 -2
BITMAP
1000
1E00
107C
FF44
8144
7E44
0044
7E28
4228
7E28
4210
7E10
4228
7E28
2444
4282
ENDCHAR
STARTCHAR uni3563
ENCODING 13667
BBX 15 15 0 -1
BITMAP
0040
0840
0820
1020
1010
2008
4004
9FF2
1010
1010
1010
1010
1010
1FF0
1010
ENDCHAR
STARTCHAR uni3564
ENCODING 13668
BBX 14 16 1 -2
BITMAP
0200
0200
F200
9200
97E0
9220
9220
9220
9220
9220
F220
9424
0424
0824
101C
2000
ENDCHAR
STARTCHAR uni3565
ENCODING 13669
BBX 14 16 1 -2
BITMAP
0080
0080
F880
8880
8880
8880
8880
8880
8940
8940
F940
8A20
0220
0410
0808
1004
ENDCHAR
STARTCHAR uni3566
ENCODING 13670
BBX 15 15 0 -2
BITMAP
1FF0
1010
1010
1010
1FF0
0100
0100
0100
FFFE
0280
0440
0820
1010
2008
C006
ENDCHAR
STARTCHAR uni3567
ENCODING 13671
BBX 13 15 1 -2
BITMAP
03F8
F208
9208
9208
9208
93F8
9208
9200
9200
F200
9200
0400
0400
0800
1000
ENDCHAR
STARTCHAR uni3568
ENCODING 13672
BBX 14 15 1 -2
BITMAP
03E0
F220
9220
9220
9220
9320
92A0
92A0
9220
F220
9224
0424
0424
081C
1000
ENDCHAR
STARTCHAR uni3569
ENCODING 13673
BBX 14 16 1 -2
BITMAP
0040
0040
F040
97FC
9040
9040
9040
93F8
9040
9040
F040
97FC
0040
0040
0040
0040
ENDCHAR
STARTCHAR uni356A
ENCODING 13674
BBX 14 16 1 -2
BITMAP
0080
0080
F080
97F8
9488
9890
9080
9080
9140
9140
F140
9240
0244
0444
083C
1000
ENDCHAR
STARTCHAR uni356B
ENCODING 13675
BBX 14 16 1 -2
BITMAP
0100
0080
F080
9FFC
9200
9200
9200
93F0
9210
9210
F210
9210
0410
0410
08A0
1040
ENDCHAR
STARTCHAR uni356C
ENCODING 13676
BBX 14 15 1 -1
BITMAP
0040
0240
F240
9220
9220
9490
9490
9888
9104
9100
F220
9210
0410
0FF8
0408
ENDCHAR
STARTCHAR uni356D
ENCODING 13677
BBX 14 16 1 -2
BITMAP
0020
00F0
F780
9080
9080
9080
9080
9FFC
9080
9140
F140
9120
0220
0210
0408
0804
ENDCHAR
STARTCHAR uni356E
ENCODING 13678
BBX 14 16 1 -2
BITMAP
0040
0220
F210
9408
9408
9820
9220
9220
9140
9140
F080
9140
0220
0410
0808
1004
ENDCHAR
STARTCHAR uni356F
ENCODING 13679
BBX 13 16 1 -2
BITMAP
0200
0200
0200
FFF8
8208
8508
8888
9048
AFA8
8888
8888
8888
8F88
8888
8028
8010
ENDCHAR
STARTCHAR uni3570
ENCODING 13680
BBX 14 16 1 -2
BITMAP
0010
0078
F3C0
9040
9040
9078
93C0
9040
9040
907C
F7C0
9040
0044
0044
0044
003C
ENDCHAR
STARTCHAR uni3571
ENCODING 13681
BBX 14 16 1 -2
BITMAP
0120
0110
F110
9100
9FFC
9140
9140
9140
9140
9140
F240
9244
0244
0444
043C
0800
ENDCHAR
STARTCHAR uni3572
ENCODING 13682
BBX 15 16 0 -2
BITMAP
0040
0040
F040
9040
97FE
9040
90E0
90E0
9150
9150
F248
9444
0842
0040
0040
0040
ENDCHAR
STARTCHAR uni3573
ENCODING 13683
BBX 14 14 1 -1
BITMAP
0010
F210
9110
94A4
94A4
9444
9444
94A4
9524
F614
9414
0404
07FC
0004
ENDCHAR
STARTCHAR uni3574
ENCODING 13684
BBX 14 14 1 -2
BITMAP
F7FC
9404
9808
9000
93E0
9220
9220
9220
F220
9224
0424
0424
081C
1000
ENDCHAR
STARTCHAR uni3575
ENCODING 13685
BBX 14 14 1 -1
BITMAP
07FC
F040
9040
9040
9040
9040
93F8
9040
9040
9040
F040
9040
0040
0FFC
ENDCHAR
STARTCHAR uni3576
ENCODING 13686
BBX 14 14 1 -1
BITMAP
07F8
F080
9080
9080
9080
97F0
9110
9110
9110
F110
9210
0210
0210
0FFC
ENDCHAR
STARTCHAR uni3577
ENCODING 13687
BBX 13 16 1 -2
BITMAP
0040
0040
F080
93F8
9208
9208
9208
9208
93F8
9208
9208
F208
9208
0208
03F8
0208
ENDCHAR
STARTCHAR uni3578
ENCODING 13688
BBX 14 15 1 -1
BITMAP
0100
0080
F080
9000
9FF8
9000
9010
9410
9410
9220
F220
9220
0240
0040
1FFC
ENDCHAR
STARTCHAR uni3579
ENCODING 13689
BBX 14 16 1 -2
BITMAP
0080
0090
F088
9080
97FC
9100
9100
91F8
9288
9288
F290
94A0
0440
08A0
1110
060C
ENDCHAR
STARTCHAR uni357A
ENCODING 13690
BBX 15 15 0 -2
BITMAP
7CF8
4488
4488
4488
7CF8
0000
0000
FFFE
0800
1000
1FF0
0010
0010
00A0
0040
ENDCHAR
STARTCHAR uni357B
ENCODING 13691
BBX 14 16 0 -2
BITMAP
0200
0100
0000
7FFC
0100
0300
0D60
3118
C104
0100
1FF0
1010
1010
1010
1FF0
1010
ENDCHAR
STARTCHAR uni357C
ENCODING 13692
BBX 14 16 1 -2
BITMAP
0200
0200
F3FC
9404
9404
9914
90A4
9444
94A4
9514
F404
97FC
0004
0004
0028
0010
ENDCHAR
STARTCHAR uni357D
ENCODING 13693
BBX 14 16 1 -2
BITMAP
0010
0110
F090
9450
9450
9410
9410
9410
9410
9410
9420
F530
9648
0448
0084
0104
ENDCHAR
STARTCHAR uni357E
ENCODING 13694
BBX 14 16 1 -2
BITMAP
0200
0200
1240
1220
2210
4208
8208
0000
0080
7C88
4490
44E0
4480
4484
7C84
447C
ENDCHAR
STARTCHAR uni357F
ENCODING 13695
BBX 15 16 0 -2
BITMAP
0070
1F80
0100
0100
FFFE
0540
0920
3118
C006
1FF0
1010
1010
1010
1010
1FF0
1010
ENDCHAR
STARTCHAR uni3580
ENCODING 13696
BBX 14 16 1 -2
BITMAP
0080
0080
F7F0
9090
9FFC
9090
97F0
9080
9080
97F0
F080
9080
0FF8
0080
0080
0080
ENDCHAR
STARTCHAR uni3581
ENCODING 13697
BBX 14 16 1 -2
BITMAP
0010
0320
F0C0
9130
9608
9080
9080
9FFC
9100
9120
F220
9240
0490
0908
13F8
0108
ENDCHAR
STARTCHAR uni3582
ENCODING 13698
BBX 13 16 1 -2
BITMAP
0080
0080
F7F0
9490
9490
97F0
9490
9490
97F0
9080
F090
9060
00C8
0328
0C18
0008
ENDCHAR
STARTCHAR uni3583
ENCODING 13699
BBX 14 16 1 -2
BITMAP
0010
0078
F780
9400
9400
97FC
9400
9400
9400
95F8
F508
9508
0908
0908
11F8
0108
ENDCHAR
STARTCHAR uni3584
ENCODING 13700
BBX 13 16 1 -2
BITMAP
0208
0248
F248
9248
9248
9248
9768
96D8
9A48
9248
F248
9248
0248
0448
0408
0808
ENDCHAR
STARTCHAR uni3585
ENCODING 13701
BBX 14 16 1 -2
BITMAP
0050
0048
F048
9040
97FC
9440
9448
9448
9448
9750
F450
9420
0424
0854
088C
1104
ENDCHAR
STARTCHAR uni3586
ENCODING 13702
BBX 14 16 1 -2
BITMAP
00A0
00A0
F0A0
90A0
97FC
94A4
94A4
94A4
94A4
97FC
F4A4
94A4
04A4
04A4
07FC
0404
ENDCHAR
STARTCHAR uni3587
ENCODING 13703
BBX 14 15 1 -2
BITMAP
07FC
F040
9040
9080
97FC
94A4
94A4
94A4
94A4
F4A4
94A4
04A4
0484
0414
0408
ENDCHAR
STARTCHAR uni3588
ENCODING 13704
BBX 15 16 0 -2
BITMAP
0208
3FD0
0220
FFFE
0200
0C70
3F84
C804
07FC
0000
1FF0
1010
1010
1010
1FF0
1010
ENDCHAR
STARTCHAR uni3589
ENCODING 13705
BBX 14 14 1 0
BITMAP
0040
0040
F0A0
9110
9248
9444
9840
9240
9278
9240
F240
9240
0240
0FFC
ENDCHAR
STARTCHAR uni358A
ENCODING 13706
BBX 14 15 1 -2
BITMAP
07F8
F008
9008
93F8
9008
9008
97F8
9010
9010
9FFC
F210
9110
0110
0050
0020
ENDCHAR
STARTCHAR uni358B
ENCODING 13707
BBX 15 16 0 -2
BITMAP
0100
0280
0440
1830
E44E
0440
0440
0440
0840
1040
0000
7C88
44B0
44C4
7C84
447C
ENDCHAR
STARTCHAR uni358C
ENCODING 13708
BBX 15 16 0 -2
BITMAP
0880
0880
13F0
3090
5090
9092
1112
120E
1400
0000
3E44
2258
2260
2242
3E42
223E
ENDCHAR
STARTCHAR uni358D
ENCODING 13709
BBX 14 16 1 -2
BITMAP
0080
0880
0480
2480
1080
13F8
FC80
0080
0080
0000
7C88
44B0
44C0
4484
7C84
447C
ENDCHAR
STARTCHAR uni358E
ENCODING 13710
BBX 15 16 0 -2
BITMAP
0080
7C88
44B0
44C4
4484
7C7C
0100
0280
0440
1830
E44E
0440
0440
0440
0840
1040
ENDCHAR
STARTCHAR uni358F
ENCODING 13711
BBX 14 14 1 -1
BITMAP
03F8
F208
9208
93F8
9208
9208
93F8
9040
9040
F3F8
9040
0040
0040
07FC
ENDCHAR
STARTCHAR uni3590
ENCODING 13712
BBX 15 16 0 -2
BITMAP
7CF8
4488
4488
7CF8
0000
3FF0
0210
0210
FFFE
0210
0410
3FF0
0810
1000
2000
C000
ENDCHAR
STARTCHAR uni3591
ENCODING 13713
BBX 14 16 1 -2
BITMAP
0028
0024
F020
9FFC
9020
9520
9524
9524
9FA4
9528
F528
9510
0514
0934
084C
1084
ENDCHAR
STARTCHAR uni3592
ENCODING 13714
BBX 14 16 1 -2
BITMAP
0210
0110
F120
97F8
9048
9048
97F8
9440
9440
97FC
F0C4
9144
0254
0448
0840
0040
ENDCHAR
STARTCHAR uni3593
ENCODING 13715
BBX 14 16 1 -2
BITMAP
0200
03F0
F610
9920
90C0
9330
9C8C
9080
97F0
9080
F7F0
9080
0FF8
0080
0080
0080
ENDCHAR
STARTCHAR uni3594
ENCODING 13716
BBX 14 15 1 -2
BITMAP
03F8
F040
9040
9040
97FC
90A0
9110
9208
95F4
F910
9110
0110
0110
01F0
0110
ENDCHAR
STARTCHAR uni3595
ENCODING 13717
BBX 14 16 1 -2
BITMAP
0080
0040
F3F8
9000
9110
90A0
97FC
9040
9040
9040
F3F8
9040
0040
0040
0040
0040
ENDCHAR
STARTCHAR uni3596
ENCODING 13718
BBX 15 16 0 -2
BITMAP
0200
0100
3FF8
0820
0440
FFFE
0100
0100
3FF8
0100
0100
3FF8
2008
2008
3FF8
2008
ENDCHAR
STARTCHAR uni3597
ENCODING 13719
BBX 14 16 1 -2
BITMAP
0080
0490
F490
9490
97F0
9080
9140
9220
9510
988C
F080
97E0
0020
0040
0040
0080
ENDCHAR
STARTCHAR uni3598
ENCODING 13720
BBX 14 15 1 -2
BITMAP
07F8
F400
9400
95F0
9400
9400
97F8
9540
9548
F550
9520
0520
0910
0948
1184
ENDCHAR
STARTCHAR uni3599
ENCODING 13721
BBX 15 16 0 -2
BITMAP
1000
1000
7E7C
1244
1244
1244
227C
4A44
8400
0000
3E44
2258
2260
2242
3E42
223E
ENDCHAR
STARTCHAR uni359A
ENCODING 13722
BBX 15 16 0 -2
BITMAP
0810
0810
17FE
3010
5210
9110
1110
1050
1020
0000
3E44
2258
2260
2242
3E42
223E
ENDCHAR
STARTCHAR uni359B
ENCODING 13723
BBX 14 16 1 -2
BITMAP
0200
0200
FFF8
0200
0200
3FE0
2020
2020
3FE0
0000
7C88
44B0
44C0
4484
7C84
447C
ENDCHAR
STARTCHAR uni359C
ENCODING 13724
BBX 15 16 0 -2
BITMAP
0200
0100
FFFE
0000
1FF0
1010
1010
1FF0
0000
0000
3E44
2258
2260
2242
3E42
223E
ENDCHAR
STARTCHAR uni359D
ENCODING 13725
BBX 15 16 0 -2
BITMAP
0100
0100
3FF8
0100
0100
FFFE
0920
3118
C106
0000
3E44
2258
2260
2242
3E42
223E
ENDCHAR
STARTCHAR uni359E
ENCODING 13726
BBX 14 15 1 -2
BITMAP
03F8
F208
9208
9208
93F8
9040
9040
97FC
9444
F4A4
9514
0614
0404
0414
0408
ENDCHAR
STARTCHAR uni359F
ENCODING 13727
BBX 15 16 0 -2
BITMAP
001C
03E0
F084
9244
9148
9110
97FE
9402
9000
93F8
F108
9110
00A0
0040
01B0
060E
ENDCHAR
STARTCHAR uni35A0
ENCODING 13728
BBX 14 16 1 -2
BITMAP
0040
0040
F7FC
90A0
9110
9208
95F4
9000
9000
97FC
F040
9248
0244
0444
0140
0080
ENDCHAR
STARTCHAR uni35A1
ENCODING 13729
BBX 15 16 0 -2
BITMAP
0080
0040
F7FE
9120
9120
923C
9244
9664
9294
9348
F248
9230
0220
0250
0288
0306
ENDCHAR
STARTCHAR uni35A2
ENCODING 13730
BBX 15 15 0 -1
BITMAP
0080
0040
EFFE
A800
A890
A890
AA90
AA92
AADC
AA90
EA90
AA92
1292
12D2
270E
ENDCHAR
STARTCHAR uni35A3
ENCODING 13731
BBX 14 16 1 -2
BITMAP
0080
0040
F3F8
9000
9210
9120
9000
97FC
9000
9000
F3F8
9208
0208
0208
03F8
0208
ENDCHAR
STARTCHAR uni35A4
ENCODING 13732
BBX 14 15 1 -2
BITMAP
03F8
F010
9020
9444
9554
94E4
9444
94E4
9554
F64C
9544
0484
0404
07FC
0004
ENDCHAR
STARTCHAR uni35A5
ENCODING 13733
BBX 14 15 0 -2
BITMAP
07FC
F404
9434
95C4
9444
9444
97FC
9444
94E4
F554
964C
0444
0444
07FC
0404
ENDCHAR
STARTCHAR uni35A6
ENCODING 13734
BBX 15 16 0 -2
BITMAP
0040
0040
F7FC
9040
93F8
9248
93F8
9248
93F8
9040
F0E0
9150
0248
0C46
0040
0040
ENDCHAR
STARTCHAR uni35A7
ENCODING 13735
BBX 14 16 1 -2
BITMAP
0038
07C0
F440
97FC
9440
9524
9614
940C
93F8
9208
F208
93F8
0208
0208
03F8
0208
ENDCHAR
STARTCHAR uni35A8
ENCODING 13736
BBX 14 15 1 -2
BITMAP
03F0
F010
9010
93F0
9010
9010
97FC
9040
9444
F2E8
9150
0248
0444
0140
0080
ENDCHAR
STARTCHAR uni35A9
ENCODING 13737
BBX 15 15 0 -2
BITMAP
0FC0
F4BC
94A4
94A4
97A4
94A4
94A8
97A8
94A8
F490
95D0
0EA8
00A8
00C4
0082
ENDCHAR
STARTCHAR uni35AA
ENCODING 13738
BBX 14 16 1 -2
BITMAP
0028
0024
F020
9FFC
9020
9020
97A4
94A4
94A4
94A8
F7A8
9010
01D4
0E34
044C
0084
ENDCHAR
STARTCHAR uni35AB
ENCODING 13739
BBX 14 16 1 -2
BITMAP
0040
0040
F3F8
9040
9040
97FC
9110
9288
9484
91F0
F310
94A0
0040
00A0
0310
0C0C
ENDCHAR
STARTCHAR uni35AC
ENCODING 13740
BBX 14 16 1 -2
BITMAP
0100
0638
F408
9408
9738
9408
9408
97F8
9000
9000
F7F0
9210
0120
00C0
0330
0C0C
ENDCHAR
STARTCHAR uni35AD
ENCODING 13741
BBX 15 15 0 -2
BITMAP
03FC
F040
9040
97FE
90A0
9110
9208
9446
9040
F048
9264
0252
0452
0140
0080
ENDCHAR
STARTCHAR uni35AE
ENCODING 13742
BBX 15 16 0 -2
BITMAP
0040
0040
F0A0
9110
9208
9DF6
9000
97FC
94A4
94A4
F7FC
94A4
04A4
04A4
0414
0408
ENDCHAR
STARTCHAR uni35AF
ENCODING 13743
BBX 13 16 2 -2
BITMAP
FFE0
8020
BFA0
8020
9F20
9120
9F20
80A0
8040
0000
F910
8960
8980
8908
F908
88F8
ENDCHAR
STARTCHAR uni35B0
ENCODING 13744
BBX 13 16 1 -2
BITMAP
0100
F910
8960
8988
8908
F8F8
0000
7FF0
4010
5FD0
4010
4F90
4890
4F90
4050
4020
ENDCHAR
STARTCHAR uni35B1
ENCODING 13745
BBX 15 16 0 -2
BITMAP
0100
FFFE
0880
10F8
3148
D328
1490
1060
1198
1606
0000
3FF8
2008
2008
3FF8
2008
ENDCHAR
STARTCHAR uni35B2
ENCODING 13746
BBX 15 16 0 -2
BITMAP
1000
1000
FE7C
2244
4444
3444
0844
147C
2244
C000
3E44
2258
2260
2242
3E42
223E
ENDCHAR
STARTCHAR uni35B3
ENCODING 13747
BBX 14 16 1 -2
BITMAP
2100
1100
8FF8
4220
1420
2340
E0C0
2120
2610
0000
7C88
44B0
44C0
4484
7C84
447C
ENDCHAR
STARTCHAR uni35B4
ENCODING 13748
BBX 14 16 1 -2
BITMAP
0220
0220
F7FC
9220
9100
9100
93F8
92A8
94A8
9928
F148
9248
0488
0108
0250
0420
ENDCHAR
STARTCHAR uni35B5
ENCODING 13749
BBX 14 15 1 -2
BITMAP
03F0
F210
9210
93F0
9210
93F0
9210
93F0
9210
F210
9FFC
0000
0220
0410
0808
ENDCHAR
STARTCHAR uni35B6
ENCODING 13750
BBX 15 14 0 -1
BITMAP
07FC
F0A0
90A0
97FC
94A4
94A4
94A4
97FC
9040
F040
97FC
0040
0040
0FFE
ENDCHAR
STARTCHAR uni35B7
ENCODING 13751
BBX 14 15 1 -2
BITMAP
03F8
F208
9208
93F8
9208
9208
93F8
9000
97FC
F040
9240
0278
0240
0540
08FC
ENDCHAR
STARTCHAR uni35B8
ENCODING 13752
BBX 14 16 1 -2
BITMAP
0080
00F8
F080
97FC
9484
94F0
9780
9488
9478
9400
F5F8
9500
07FC
0900
0900
11F8
ENDCHAR
STARTCHAR uni35B9
ENCODING 13753
BBX 14 15 1 -1
BITMAP
0020
0220
F210
9408
9BF4
9110
9210
9450
9820
97F0
F550
9550
0550
0550
1FFC
ENDCHAR
STARTCHAR uni35BA
ENCODING 13754
BBX 15 16 0 -2
BITMAP
0040
0040
F7FC
9040
93F8
9080
97FC
9110
9208
95F6
F110
9110
01F0
0110
0110
01F0
ENDCHAR
STARTCHAR uni35BB
ENCODING 13755
BBX 15 15 0 -2
BITMAP
03F8
F090
9060
97FC
90A4
9128
9220
9460
9040
F7FC
90E0
0150
0248
0C46
0040
ENDCHAR
STARTCHAR uni35BC
ENCODING 13756
BBX 14 16 1 -2
BITMAP
0110
0110
F7FC
9110
9110
91F0
9110
9110
91F0
9040
F7FC
90E0
0150
0248
0444
0040
ENDCHAR
STARTCHAR uni35BD
ENCODING 13757
BBX 14 15 1 -2
BITMAP
07FC
F040
9080
93F8
9208
9208
93F8
9208
93F8
F208
9208
03F8
0000
0110
0208
ENDCHAR
STARTCHAR uni35BE
ENCODING 13758
BBX 15 15 0 -2
BITMAP
7EFC
4284
4284
7EFC
1010
0820
FFFE
0100
2108
2108
3FF8
0408
0800
3000
C000
ENDCHAR
STARTCHAR uni35BF
ENCODING 13759
BBX 15 15 0 -2
BITMAP
0FDE
F492
9492
9494
9794
9498
9494
9792
9492
F492
95DA
0E94
0090
0090
0090
ENDCHAR
STARTCHAR uni35C0
ENCODING 13760
BBX 15 16 0 -2
BITMAP
0040
0040
E148
A148
A94A
AA52
AAD6
AB5A
A94A
AA52
ED6A
AF7A
094A
0842
0FFE
0002
ENDCHAR
STARTCHAR uni35C1
ENCODING 13761
BBX 14 15 1 -2
BITMAP
07BC
F4A4
94A4
97BC
9000
93F8
9000
97FC
9100
F200
93F8
0008
0008
0050
0020
ENDCHAR
STARTCHAR uni35C2
ENCODING 13762
BBX 14 16 1 -2
BITMAP
0040
0040
F248
9244
9454
9060
9180
9E00
93F8
9208
F3F8
9208
03F8
0208
03F8
0208
ENDCHAR
STARTCHAR uni35C3
ENCODING 13763
BBX 14 15 1 -2
BITMAP
07F8
F408
97F8
9440
97FC
9420
9514
960C
9000
F7F8
9408
07F8
0408
07F8
0408
ENDCHAR
STARTCHAR uni35C4
ENCODING 13764
BBX 14 15 1 -2
BITMAP
07F8
F528
9528
9528
97F8
9100
9080
9FFC
9100
F1F0
9110
0210
0210
0450
0820
ENDCHAR
STARTCHAR uni35C5
ENCODING 13765
BBX 13 16 1 -2
BITMAP
0200
0278
F248
9FC8
9248
9278
9248
9748
9548
9578
F548
9548
0748
0088
00A8
0110
ENDCHAR
STARTCHAR uni35C6
ENCODING 13766
BBX 14 16 1 -2
BITMAP
0110
0110
F7FC
9110
91F0
9040
93F8
9248
9248
93F8
F040
97FC
0040
0040
0040
0040
ENDCHAR
STARTCHAR uni35C7
ENCODING 13767
BBX 14 15 1 -2
BITMAP
07BC
F484
9484
9484
97BC
9400
947C
97A4
9424
F428
97A8
0410
0428
0448
0484
ENDCHAR
STARTCHAR uni35C8
ENCODING 13768
BBX 14 15 1 -2
BITMAP
07F8
F110
90A0
97FC
9444
97FC
9444
97FC
9444
F080
97FC
0084
0104
0228
0410
ENDCHAR
STARTCHAR uni35C9
ENCODING 13769
BBX 15 16 0 -2
BITMAP
0800
7F7C
0824
3E24
0844
7F54
0888
0400
0FE0
1440
0380
1C70
EFEE
0820
0FE0
0820
ENDCHAR
STARTCHAR uni35CA
ENCODING 13770
BBX 13 15 1 -2
BITMAP
78F0
4890
4890
4890
4890
78F0
0000
0000
FDF8
8508
8508
8508
8508
FDF8
8508
ENDCHAR
STARTCHAR uni35CB
ENCODING 13771
BBX 14 16 1 -2
BITMAP
0100
0100
F3F8
9408
9810
97FC
9400
9500
95F8
9640
F440
97FC
0840
08A0
1110
260C
ENDCHAR
STARTCHAR uni35CC
ENCODING 13772
BBX 14 15 1 -1
BITMAP
0080
0040
F3FC
9204
9408
93F8
9080
9110
93F8
9048
F040
93F8
0040
0040
07FC
ENDCHAR
STARTCHAR uni35CD
ENCODING 13773
BBX 15 16 0 -2
BITMAP
0038
03C0
F040
9040
97FC
9150
9248
9446
93F8
9208
F208
93F8
0208
0208
03F8
0208
ENDCHAR
STARTCHAR uni35CE
ENCODING 13774
BBX 15 16 0 -2
BITMAP
0200
0200
F7BC
92A4
92A4
94A4
95BC
9840
9040
97FC
F0E0
9150
0248
0444
0842
0040
ENDCHAR
STARTCHAR uni35CF
ENCODING 13775
BBX 14 15 1 -2
BITMAP
07FC
F020
9040
90D0
9148
9644
9040
9000
97FC
F040
9240
0278
0240
0240
0FFC
ENDCHAR
STARTCHAR uni35D0
ENCODING 13776
BBX 14 15 1 -1
BITMAP
0080
0080
F7F8
9080
9140
9220
9510
988C
9000
97F0
F550
9550
0550
0550
1FFC
ENDCHAR
STARTCHAR uni35D1
ENCODING 13777
BBX 15 16 0 -2
BITMAP
0100
03BC
EE10
A210
A23C
AF90
A210
A23C
A210
AF90
E27E
A210
0210
0210
0410
0810
ENDCHAR
STARTCHAR uni35D2
ENCODING 13778
BBX 15 16 0 -2
BITMAP
0080
0040
F7FE
9000
93F8
9208
9208
9208
93F8
90A4
F128
9310
0510
0948
0186
0100
ENDCHAR
STARTCHAR uni35D3
ENCODING 13779
BBX 15 15 0 -1
BITMAP
0010
0420
F2F8
9288
9088
90F8
9E80
9280
92FC
9284
F284
92FC
0284
0500
08FE
ENDCHAR
STARTCHAR uni35D4
ENCODING 13780
BBX 14 16 1 -2
BITMAP
0080
00F8
F080
97FC
9484
94F0
9788
9478
9480
9440
F7FC
9510
04A0
0840
08B0
130C
ENDCHAR
STARTCHAR uni35D5
ENCODING 13781
BBX 14 16 1 -2
BITMAP
0110
0110
F7FC
9110
93F8
9110
97FC
9040
93F8
9248
F3F8
9248
07FC
0208
0228
0210
ENDCHAR
STARTCHAR uni35D6
ENCODING 13782
BBX 13 16 1 -2
BITMAP
0078
0780
F088
9448
9250
9200
9080
9738
9408
9408
F738
9408
0408
0408
07F8
0408
ENDCHAR
STARTCHAR uni35D7
ENCODING 13783
BBX 15 16 0 -2
BITMAP
0040
7C80
45FC
4524
4524
7DFC
2124
2144
7DFC
2490
2510
27FE
4410
4410
9410
0810
ENDCHAR
STARTCHAR uni35D8
ENCODING 13784
BBX 14 16 1 -2
BITMAP
0050
0048
F7FC
9040
93F8
9248
93F8
9248
93F8
9248
F010
97FC
0110
0090
0090
0030
ENDCHAR
STARTCHAR uni35D9
ENCODING 13785
BBX 13 16 1 -2
BITMAP
0100
0100
F3F8
9488
92A8
93E8
9108
9250
9520
93F8
F488
9AA8
03E8
0108
0250
0420
ENDCHAR
STARTCHAR uni35DA
ENCODING 13786
BBX 15 15 0 -2
BITMAP
07FC
F0A0
90A0
97FC
94A4
94A4
97FC
9040
9040
F7FC
90E0
0150
0248
0C46
0040
ENDCHAR
STARTCHAR uni35DB
ENCODING 13787
BBX 15 16 0 -2
BITMAP
0210
0210
F3DE
9528
9884
9038
93C0
9040
9040
97FC
F040
90A0
00A0
0110
0208
0C06
ENDCHAR
STARTCHAR uni35DC
ENCODING 13788
BBX 15 16 0 -2
BITMAP
0080
0040
F7FC
9080
9108
93F0
9060
9184
97FE
9002
F7FC
9444
07FC
0444
07FC
0404
ENDCHAR
STARTCHAR uni35DD
ENCODING 13789
BBX 14 15 1 -1
BITMAP
0208
0108
F110
9000
97FC
9040
9040
93F8
9040
9040
F7FC
9000
0548
04A4
08A4
ENDCHAR
STARTCHAR uni35DE
ENCODING 13790
BBX 14 16 1 -2
BITMAP
0010
0010
EF10
A4FC
A494
A894
AE90
BAF8
AAA8
AAA8
EAA8
AEA8
0A90
0110
0228
0044
ENDCHAR
STARTCHAR uni35DF
ENCODING 13791
BBX 14 16 0 -2
BITMAP
2080
1040
87FC
4040
1040
23F8
E040
2040
27FC
2000
0000
7C88
44B0
44C4
7C84
447C
ENDCHAR
STARTCHAR uni35E0
ENCODING 13792
BBX 14 16 1 -2
BITMAP
1080
1080
FD08
27FC
4404
29F8
1108
2908
C5F8
0000
7C88
44B0
44C0
4484
7C84
447C
ENDCHAR
STARTCHAR uni35E1
ENCODING 13793
BBX 15 16 0 -2
BITMAP
0440
FFFE
0440
1000
27F8
6110
A13C
2104
2214
2408
0000
7C88
44B0
44C4
7C84
447C
ENDCHAR
STARTCHAR uni35E2
ENCODING 13794
BBX 14 16 1 -2
BITMAP
0390
0E10
E210
BFD0
A23C
AF94
AA94
AF94
AA94
AF94
E214
AF94
0224
03A4
1C54
0888
ENDCHAR
STARTCHAR uni35E3
ENCODING 13795
BBX 14 16 1 -2
BITMAP
0550
0550
EFF8
A550
A554
A9CC
B000
AFF8
A888
A080
E7F0
A490
0490
0490
04B0
0080
ENDCHAR
STARTCHAR uni35E4
ENCODING 13796
BBX 15 16 0 -2
BITMAP
0028
0024
3FFE
2220
2324
2224
2FA8
2218
2A92
522A
4646
8082
0FF8
0808
0FF8
0808
ENDCHAR
STARTCHAR uni35E5
ENCODING 13797
BBX 14 16 1 -2
BITMAP
0400
023C
EFA4
A024
AFA8
A8A8
AFB0
A028
AFA4
A124
E224
A3B4
0E28
0220
0A20
0420
ENDCHAR
STARTCHAR uni35E6
ENCODING 13798
BBX 15 16 0 -2
BITMAP
0010
1F20
EACE
AAAA
AEAA
AAAA
AAAA
AEAA
AAAA
AAAA
EBEA
AEAC
1A28
0248
0248
0288
ENDCHAR
STARTCHAR uni35E7
ENCODING 13799
BBX 14 15 1 -1
BITMAP
0080
0040
F7FC
9514
9208
97FC
9080
9110
93F8
9048
F040
93F8
0040
0040
07FC
ENDCHAR
STARTCHAR uni35E8
ENCODING 13800
BBX 13 15 1 -2
BITMAP
FEF0
9090
BE98
C900
BEF0
8890
9490
A260
FE98
0000
7FF0
4010
4010
7FF0
4010
ENDCHAR
STARTCHAR uni35E9
ENCODING 13801
BBX 14 15 1 -2
BITMAP
07BC
F084
94A4
9294
94A4
9084
9040
93F8
9208
F208
93F8
0208
0208
03F8
0208
ENDCHAR
STARTCHAR uni35EA
ENCODING 13802
BBX 14 16 1 -2
BITMAP
0120
0124
F5A8
9534
95A4
9E9C
9110
93E0
9040
9088
F7FC
9044
0250
0448
0944
0080
ENDCHAR
STARTCHAR uni35EB
ENCODING 13803
BBX 14 16 1 -2
BITMAP
0200
0220
F7B8
94A8
9AA8
9510
9210
95E8
9804
9000
F7F8
9080
02A0
0490
0A88
0100
ENDCHAR
STARTCHAR uni35EC
ENCODING 13804
BBX 15 16 0 -2
BITMAP
1110
0920
7FFE
4002
9FF4
1010
1FF0
0200
0FE0
34C0
0700
3880
03F8
1D30
01C0
3E00
ENDCHAR
STARTCHAR uni35ED
ENCODING 13805
BBX 14 16 1 -2
BITMAP
0038
03C0
F040
9248
9150
97FC
90E0
9150
9248
9444
F080
9048
0544
0514
0910
00F0
ENDCHAR
STARTCHAR uni35EE
ENCODING 13806
BBX 15 16 0 -2
BITMAP
2020
2010
3DFE
4510
457C
A914
1914
117E
2114
7D14
A57C
2510
2528
3E28
0244
0482
ENDCHAR
STARTCHAR uni35EF
ENCODING 13807
BBX 14 16 0 -2
BITMAP
0108
1FD0
0120
7FFC
0200
0FF0
3810
CFF0
0810
0FF0
0000
7C88
44B0
44C4
7C84
447C
ENDCHAR
STARTCHAR uni35F0
ENCODING 13808
BBX 14 16 1 -2
BITMAP
0248
0248
E448
A848
B2A8
A294
A524
AC20
B420
A4A0
E4B8
A4A0
04A0
0560
053C
0600
ENDCHAR
STARTCHAR uni35F1
ENCODING 13809
BBX 14 16 1 -2
BITMAP
0280
0240
F7FC
9C40
97F8
9440
97F8
9440
97FC
9480
F080
9FFC
02A0
0490
188C
0080
ENDCHAR
STARTCHAR uni35F2
ENCODING 13810
BBX 14 16 1 -2
BITMAP
0080
07F0
F090
9FFC
9090
97F0
9080
9FFC
9000
97F0
F490
97F0
0490
07F0
0000
0FFC
ENDCHAR
STARTCHAR uni35F3
ENCODING 13811
BBX 14 16 1 -2
BITMAP
0420
0420
F7BC
9450
9A88
9140
9220
9410
9BEC
9000
F000
97F0
0410
0410
07F0
0410
ENDCHAR
STARTCHAR uni35F4
ENCODING 13812
BBX 15 16 0 -2
BITMAP
079E
0492
F79E
9492
979E
9402
94F2
9492
94F2
9492
F4F2
9492
0492
0532
0402
0406
ENDCHAR
STARTCHAR uni35F5
ENCODING 13813
BBX 15 16 0 -2
BITMAP
0210
0290
EA90
AB3E
B222
A544
A890
B210
A290
AB10
EA28
B228
0528
08C4
1044
0082
ENDCHAR
STARTCHAR uni35F6
ENCODING 13814
BBX 14 16 1 -2
BITMAP
0048
0750
F124
9A28
9410
9808
9774
9150
918C
9700
F478
9708
0150
0120
0550
0288
ENDCHAR
STARTCHAR uni35F7
ENCODING 13815
BBX 14 16 1 -2
BITMAP
0040
07FC
F4A4
93F8
90A0
93F8
90A0
97FC
9000
93F8
F208
9248
0248
00B0
0108
0604
ENDCHAR
STARTCHAR uni35F8
ENCODING 13816
BBX 15 16 0 -2
BITMAP
0280
048E
E8E0
B140
A040
A24E
A5F4
AC44
B444
A554
E554
A574
0594
0404
0414
0408
ENDCHAR
STARTCHAR uni35F9
ENCODING 13817
BBX 14 15 1 -1
BITMAP
0280
0240
E7FC
AC40
B7F8
A440
A7F8
A440
A440
A7FC
E480
A048
0A44
0A14
11F0
ENDCHAR
STARTCHAR uni35FA
ENCODING 13818
BBX 14 15 1 -2
BITMAP
07F0
E100
AFF8
A220
A410
B94C
A140
AF78
A140
E770
A140
0F78
0140
0140
0140
ENDCHAR
STARTCHAR uni35FB
ENCODING 13819
BBX 14 15 1 -2
BITMAP
09F0
E510
A5D0
A150
A150
BBF8
AA08
AAE8
AAA8
EAE8
AA08
0A28
0A10
1400
23FC
ENDCHAR
STARTCHAR uni35FC
ENCODING 13820
BBX 15 16 0 -2
BITMAP
00A0
04A4
F2A8
90A0
97FC
9110
90A0
97FC
9040
93F8
F040
97FC
0150
0248
0C46
0040
ENDCHAR
STARTCHAR uni35FD
ENCODING 13821
BBX 15 16 0 -2
BITMAP
1100
2BDE
4A52
73D4
2A52
4BD2
7A1A
1294
2350
C240
0000
3FF8
2008
2008
3FF8
2008
ENDCHAR
STARTCHAR uni35FE
ENCODING 13822
BBX 15 16 0 -2
BITMAP
0510
0518
EFA8
A528
A76A
A2AA
AFAA
AAAC
AAAC
AFA8
E238
AFAA
022A
022A
0226
0220
ENDCHAR
STARTCHAR uni35FF
ENCODING 13823
BBX 14 15 1 -2
BITMAP
0F3C
E924
AF3C
A924
AF3C
A804
ABF4
A824
ABA4
EAA4
ABA4
0824
08A4
0854
0808
ENDCHAR
STARTCHAR uni3600
ENCODING 13824
BBX 14 16 1 -2
BITMAP
0100
0670
F410
9770
9410
9410
97F0
9080
9490
92A0
9FFC
F1C0
92A0
0490
188C
0080
ENDCHAR
STARTCHAR uni3601
ENCODING 13825
BBX 15 15 0 -2
BITMAP
07FC
F4A4
97FC
9040
93F8
9040
97FC
9110
90A0
F3F8
9040
0FFE
0040
0040
0040
ENDCHAR
STARTCHAR uni3602
ENCODING 13826
BBX 14 15 1 -1
BITMAP
0210
0120
F7FC
9210
9210
94A4
9738
9210
94A4
97BC
F080
9148
0554
0514
08F0
ENDCHAR
STARTCHAR uni3603
ENCODING 13827
BBX 14 16 1 -2
BITMAP
0110
07FC
F110
9040
97FC
9080
91F0
9310
9510
91F0
F080
9048
0544
0514
0910
00F0
ENDCHAR
STARTCHAR uni3604
ENCODING 13828
BBX 15 16 0 -2
BITMAP
0200
02FE
E2AA
A2AA
AFAA
A2FE
A620
A710
AAFE
AA20
F220
A23C
0224
0244
0254
0288
ENDCHAR
STARTCHAR uni3605
ENCODING 13829
BBX 15 16 0 -2
BITMAP
0240
0240
E4AE
A890
B300
A2E0
A45E
AC44
B5E4
A444
E554
A4E4
0444
0464
0584
040C
ENDCHAR
STARTCHAR uni3606
ENCODING 13830
BBX 15 16 0 -2
BITMAP
0040
0FFE
E040
A7FC
A000
A3F8
A208
AFFE
A802
A7FC
E110
A3F8
0040
07FC
0040
0FFE
ENDCHAR
STARTCHAR uni3607
ENCODING 13831
BBX 15 16 0 -2
BITMAP
0110
0554
F5B8
9910
92A8
9444
9000
97FC
9444
9040
F7FC
90E0
0150
0248
0C46
0040
ENDCHAR
STARTCHAR uni3608
ENCODING 13832
BBX 15 16 0 -2
BITMAP
0400
057C
F604
94A8
9390
907C
9414
9794
9A50
9250
9FDC
F250
9550
04B0
089E
0100
ENDCHAR
STARTCHAR uni3609
ENCODING 13833
BBX 15 16 0 -2
BITMAP
0210
0210
F3DE
9528
9084
9000
97BC
94A4
97A4
94A4
F7A4
9434
0528
06A0
0420
0020
ENDCHAR
STARTCHAR uni360A
ENCODING 13834
BBX 15 16 0 -2
BITMAP
07FC
0040
EFFE
A842
A358
A040
A358
A080
A040
AFFE
E000
A7FC
0000
07FC
0404
07FC
ENDCHAR
STARTCHAR uni360B
ENCODING 13835
BBX 14 16 1 -2
BITMAP
0FBC
0A24
EFA4
A8A8
AF90
AA28
AFC4
A000
A7F8
A408
E7F8
A408
07F8
0408
07F8
0210
ENDCHAR
STARTCHAR uni360C
ENCODING 13836
BBX 15 16 0 -2
BITMAP
0202
03C2
E202
AFEA
AA2A
AB8A
AE4A
A9CA
A80A
AFEA
EA0A
AD4A
0A82
0DC2
12AA
2584
ENDCHAR
STARTCHAR uni360D
ENCODING 13837
BBX 15 16 0 -2
BITMAP
0108
014C
E52A
A548
A88E
A138
A288
A7EA
BC8A
A7EC
E48C
A7E8
048A
07FA
0426
0442
ENDCHAR
STARTCHAR uni360E
ENCODING 13838
BBX 15 16 0 -2
BITMAP
0400
02FE
E202
A802
AB92
A892
AFDE
AAAA
ABCA
AAAA
EB92
AAD2
0FAA
08C6
0882
0806
ENDCHAR
STARTCHAR uni360F
ENCODING 13839
BBX 15 16 0 -2
BITMAP
2110
17FE
1080
03F8
F208
13F8
1208
13F8
1208
13F8
2800
47FE
0090
3EE4
2284
3E7C
ENDCHAR
STARTCHAR uni3610
ENCODING 13840
BBX 14 16 1 -2
BITMAP
0020
0F90
EA7C
AF80
AA28
AFA4
AA44
AA00
AFA8
A0A8
EAA8
AA90
0A90
08A8
00A8
0344
ENDCHAR
STARTCHAR uni3611
ENCODING 13841
BBX 15 16 0 -2
BITMAP
0410
0410
1F7C
E414
A414
AEFE
A014
AE14
A07C
BF10
E454
0438
1654
2512
1450
0820
ENDCHAR
STARTCHAR uni3612
ENCODING 13842
BBX 15 16 0 -2
BITMAP
0C38
71E0
1020
13FE
FD24
31FC
3924
55FC
5020
93FE
1000
7C88
44B0
44C4
7C84
447C
ENDCHAR
STARTCHAR uni3613
ENCODING 13843
BBX 14 16 0 -2
BITMAP
07BC
04A4
F7BC
94A4
97BC
9444
95F4
9444
95F4
9554
F5F4
9554
05F4
04E4
0554
044C
ENDCHAR
STARTCHAR uni3614
ENCODING 13844
BBX 14 16 1 -2
BITMAP
0080
0FFC
E924
A7F8
A120
A7F8
A120
AFFC
A210
A7F8
EA14
A3F0
0210
03F0
0120
0210
ENDCHAR
STARTCHAR uni3615
ENCODING 13845
BBX 14 15 1 -1
BITMAP
0120
0FFC
F120
97D0
9510
979C
94A0
97A8
9544
97C4
F000
97F8
0528
0528
0FFC
ENDCHAR
STARTCHAR uni3616
ENCODING 13846
BBX 15 16 0 -2
BITMAP
0200
011E
EFC4
A448
A29E
AFD2
A912
AA1E
AC92
A91E
EA12
AC52
089E
0900
120C
0412
ENDCHAR
STARTCHAR uni3617
ENCODING 13847
BBX 15 16 0 -2
BITMAP
07BC
04A4
F7BC
94A4
97BC
94A4
97BC
9120
93FE
9220
F7FC
9A20
03FC
0220
03FE
0200
ENDCHAR
STARTCHAR uni3618
ENCODING 13848
BBX 15 16 0 -2
BITMAP
2104
47C8
8812
F3BC
2008
4B92
F83E
0380
AAAA
ABAA
0000
3FF8
2008
2008
3FF8
2008
ENDCHAR
STARTCHAR uni3619
ENCODING 13849
BBX 14 16 1 -2
BITMAP
0F78
0948
EF78
A000
AFFC
A800
AB20
A93C
AFA8
AAC8
EBA8
AAA8
0BA8
0AD0
1790
20A8
ENDCHAR
STARTCHAR uni361A
ENCODING 13850
BBX 15 16 0 -2
BITMAP
0FBE
08A2
EFBE
A8A2
AFBE
A802
AB92
A892
AFDE
AAAA
EBCA
AAAA
0B92
0AD2
0FAA
08C4
ENDCHAR
STARTCHAR uni361B
ENCODING 13851
BBX 14 16 1 -2
BITMAP
0080
0140
E630
BBEC
A000
A7F0
A410
A7F0
A220
AFB8
E508
9FF8
08A0
0FB8
08A4
099C
ENDCHAR
STARTCHAR uni361C
ENCODING 13852
BBX 15 16 0 -2
BITMAP
5118
4B94
7C3E
D3A8
7C7E
53A8
7C3E
53A8
7EBE
43A0
0000
3FF8
2008
2008
3FF8
2008
ENDCHAR
STARTCHAR uni361D
ENCODING 13853
BBX 13 15 1 -2
BITMAP
FFF8
8008
8008
9F88
8088
9088
8908
8508
8208
8508
8888
9088
8008
FFF8
8008
ENDCHAR
STARTCHAR uni361E
ENCODING 13854
BBX 13 15 1 -2
BITMAP
FFF8
8408
8408
8408
BFC8
8448
8448
8448
8848
8848
9048
9288
A108
FFF8
8008
ENDCHAR
STARTCHAR uni361F
ENCODING 13855
BBX 13 15 1 -2
BITMAP
FFF8
8008
8888
8888
8888
BFE8
8888
8888
8888
9088
9088
A088
8008
FFF8
8008
ENDCHAR
STARTCHAR uni3620
ENCODING 13856
BBX 13 15 1 -2
BITMAP
FFF8
8008
8408
8288
8288
8908
A948
AA28
CCA8
8888
9788
A008
8008
FFF8
8008
ENDCHAR
STARTCHAR uni3621
ENCODING 13857
BBX 13 15 1 -2
BITMAP
FFF8
8008
8008
BFE8
A228
A228
BFE8
A228
A228
BFE8
A228
8208
8208
FFF8
8008
ENDCHAR
STARTCHAR uni3622
ENCODING 13858
BBX 13 15 1 -2
BITMAP
FFF8
8208
9248
8A48
8A88
BFE8
8508
8508
8508
8928
9128
A0E8
8008
FFF8
8008
ENDCHAR
STARTCHAR uni3623
ENCODING 13859
BBX 13 16 1 -2
BITMAP
FFF8
8008
8F88
8888
8F88
8008
9FC8
9048
9FC8
9048
9FC8
9048
9148
9088
FFF8
8008
ENDCHAR
STARTCHAR uni3624
ENCODING 13860
BBX 13 15 1 -2
BITMAP
FFF8
8288
CAA8
AAA8
8EE8
C828
AFE8
8828
AEE8
CAA8
8AA8
92A8
A028
FFF8
8008
ENDCHAR
STARTCHAR uni3625
ENCODING 13861
BBX 15 16 0 -2
BITMAP
FFFE
8002
861A
F8E2
AA42
9492
90E2
BE4A
C8FA
BE22
88AA
AB26
BE62
8002
FFFE
8002
ENDCHAR
STARTCHAR uni3626
ENCODING 13862
BBX 14 16 0 -2
BITMAP
1040
1040
1040
1040
11FC
FE44
1044
1044
1044
1084
1684
1884
E104
4104
0228
0410
ENDCHAR
STARTCHAR uni3627
ENCODING 13863
BBX 15 16 0 -2
BITMAP
1000
11F8
1008
1050
1020
FC10
13FE
1022
1024
1020
1020
1C20
E020
4020
00A0
0040
ENDCHAR
STARTCHAR uni3628
ENCODING 13864
BBX 15 16 0 -2
BITMAP
2020
2020
2020
2020
23FE
FA22
2222
2222
2252
224A
228A
3B02
E202
4202
020A
0204
ENDCHAR
STARTCHAR uni3629
ENCODING 13865
BBX 15 15 0 -1
BITMAP
1010
1110
1110
1112
1112
FD14
11D8
1110
1110
1110
1110
1D12
E152
4192
010E
ENDCHAR
STARTCHAR uni362A
ENCODING 13866
BBX 15 16 0 -2
BITMAP
1008
103C
11E0
1020
1020
FC3C
11E0
1020
1020
103E
13E0
1C20
E022
4022
0022
001E
ENDCHAR
STARTCHAR uni362B
ENCODING 13867
BBX 15 16 0 -2
BITMAP
1088
1088
1088
1088
11FC
FC88
1088
1088
13FE
1088
1088
1C88
E088
4108
0108
0208
ENDCHAR
STARTCHAR uni362C
ENCODING 13868
BBX 14 16 0 -2
BITMAP
2100
2100
2100
21FC
FA04
2484
2084
2104
2144
2224
27F4
3A14
E004
4004
0028
0010
ENDCHAR
STARTCHAR uni362D
ENCODING 13869
BBX 15 16 0 -2
BITMAP
2080
2080
213E
2102
2242
FA42
27C2
2082
2082
2102
2142
3A22
E7E2
4222
000A
0004
ENDCHAR
STARTCHAR uni362E
ENCODING 13870
BBX 15 16 0 -2
BITMAP
1000
11FC
1104
1104
1104
FD04
11FC
1124
1120
1120
1110
1D10
E208
4208
0404
0802
ENDCHAR
STARTCHAR uni362F
ENCODING 13871
BBX 15 16 0 -2
BITMAP
1080
1080
1100
11FE
1200
FC40
1040
13FC
1044
1044
1084
1C84
E104
4104
0228
0410
ENDCHAR
STARTCHAR uni3630
ENCODING 13872
BBX 15 16 0 -2
BITMAP
1010
1110
1090
1090
1010
FD10
1090
1090
1010
101E
13F0
1C10
E010
4010
0010
0010
ENDCHAR
STARTCHAR uni3631
ENCODING 13873
BBX 15 16 0 -2
BITMAP
1020
1020
1020
11FC
1124
FD24
11FC
1124
1124
1124
13FE
1D04
E104
4104
0114
0108
ENDCHAR
STARTCHAR uni3632
ENCODING 13874
BBX 15 16 0 -2
BITMAP
2000
23FC
2204
2204
23FC
FA40
2240
2240
23F8
2248
2248
3A48
E488
448A
090A
0206
ENDCHAR
STARTCHAR uni3633
ENCODING 13875
BBX 15 15 0 -1
BITMAP
0440
0444
7C48
0470
0440
0C42
3442
C43E
0100
0100
3FF8
0100
0100
0100
FFFE
ENDCHAR
STARTCHAR uni3634
ENCODING 13876
BBX 15 15 0 -1
BITMAP
0100
0110
7910
4910
4910
4928
4924
7944
0100
0100
3FF8
0100
0100
0100
FFFE
ENDCHAR
STARTCHAR uni3635
ENCODING 13877
BBX 15 16 0 -2
BITMAP
1040
1040
1040
17FE
1080
FCA0
1120
11FC
1324
1524
1124
1D24
E134
4128
0020
0020
ENDCHAR
STARTCHAR uni3636
ENCODING 13878
BBX 15 15 0 -1
BITMAP
0810
0810
1EFC
2210
5290
0C90
08FE
1010
2010
4110
0100
3FF8
0100
0100
FFFE
ENDCHAR
STARTCHAR uni3637
ENCODING 13879
BBX 15 16 0 -2
BITMAP
1110
1110
13FC
1110
1110
FC00
1208
1208
1110
1110
10A0
1C40
E0A0
4110
0208
0C06
ENDCHAR
STARTCHAR uni3638
ENCODING 13880
BBX 15 14 0 -1
BITMAP
FFFE
1040
1044
3E48
4270
A440
1842
1042
213E
C100
3FF8
0100
0100
FFFE
ENDCHAR
STARTCHAR uni3639
ENCODING 13881
BBX 15 15 0 -1
BITMAP
0880
0888
2890
2EA0
28C0
2884
2E84
F07C
0100
0100
3FF8
0100
0100
0100
FFFE
ENDCHAR
STARTCHAR uni363A
ENCODING 13882
BBX 15 16 0 -2
BITMAP
2120
2128
2124
2224
FA20
263E
2BE0
2224
2224
2228
2228
3A10
E212
422A
0246
0282
ENDCHAR
STARTCHAR uni363B
ENCODING 13883
BBX 15 16 0 -2
BITMAP
2000
23FE
2202
2222
2222
FA22
23FE
2222
2222
2252
224A
3A8A
E302
4202
03FE
0202
ENDCHAR
STARTCHAR uni363C
ENCODING 13884
BBX 15 16 0 -2
BITMAP
1040
1044
11F4
1048
1050
FDFE
1040
1080
11FE
1240
1480
1CFC
E004
4004
0028
0010
ENDCHAR
STARTCHAR uni363D
ENCODING 13885
BBX 15 16 0 -2
BITMAP
0840
0848
7F44
0844
0840
FFFE
0040
0844
0844
7F44
0828
082A
0F12
F02A
4046
0082
ENDCHAR
STARTCHAR uni363E
ENCODING 13886
BBX 15 16 0 -2
BITMAP
2040
2020
23FE
2202
2404
F800
21FC
2020
2020
2020
23FE
3820
E020
4020
00A0
0040
ENDCHAR
STARTCHAR uni363F
ENCODING 13887
BBX 15 15 0 -1
BITMAP
1000
11FC
1104
1104
11FC
FD04
1104
11FC
1020
1020
11FC
1C20
E020
4020
03FE
ENDCHAR
STARTCHAR uni3640
ENCODING 13888
BBX 15 16 0 -2
BITMAP
2080
2040
27FC
2404
2110
FA08
2484
2080
23F0
2090
2090
3910
E112
4212
040E
0800
ENDCHAR
STARTCHAR uni3641
ENCODING 13889
BBX 15 16 0 -2
BITMAP
1080
1080
10FE
1100
12FC
FC84
10A4
1094
13FE
1084
1124
1D14
E1FE
4004
0028
0010
ENDCHAR
STARTCHAR uni3642
ENCODING 13890
BBX 15 16 0 -2
BITMAP
1104
1084
1088
1010
11FC
FD04
1104
1104
11FC
1050
1050
1C90
E092
4112
020E
0400
ENDCHAR
STARTCHAR uni3643
ENCODING 13891
BBX 15 16 0 -2
BITMAP
1010
1038
11C0
1100
1100
FDFC
1110
1110
1110
1110
13FE
1C00
E090
4108
0204
0402
ENDCHAR
STARTCHAR uni3644
ENCODING 13892
BBX 15 15 0 -1
BITMAP
1110
1112
1114
11D8
1110
FD12
1152
118E
1120
1020
11FC
1C20
E020
4020
03FE
ENDCHAR
STARTCHAR uni3645
ENCODING 13893
BBX 15 16 0 -2
BITMAP
2000
23F8
2208
2208
2208
FBF8
2040
2040
27FC
20E0
2150
3A48
E444
4842
0040
0040
ENDCHAR
STARTCHAR uni3646
ENCODING 13894
BBX 15 16 0 -2
BITMAP
2040
2020
23FE
2202
2444
F840
23FE
2040
2090
2090
2110
3920
E224
4242
04FE
0842
ENDCHAR
STARTCHAR uni3647
ENCODING 13895
BBX 15 16 0 -2
BITMAP
1000
13FE
1040
1080
1144
FE24
1068
12B0
1130
12A8
1068
1CA4
E122
4220
00A0
0040
ENDCHAR
STARTCHAR uni3648
ENCODING 13896
BBX 15 16 0 -2
BITMAP
2040
2040
207C
2040
23FC
FA44
2270
23C0
2244
223C
2200
3AF0
E490
4492
0912
120E
ENDCHAR
STARTCHAR uni3649
ENCODING 13897
BBX 15 16 0 -2
BITMAP
1050
1050
1050
11FC
1154
FD54
1154
11FC
1154
1154
1D54
E3FE
4000
0088
0104
0202
ENDCHAR
STARTCHAR uni364A
ENCODING 13898
BBX 15 16 0 -2
BITMAP
2000
21FC
2100
21F8
2100
F9F8
2100
2FFE
2280
2248
2250
3A20
E210
4288
0306
0200
ENDCHAR
STARTCHAR uni364B
ENCODING 13899
BBX 15 16 0 -2
BITMAP
1088
1088
13FE
1088
1088
FCF8
1088
1088
10F8
1088
1C88
E3FE
4000
0088
0104
0202
ENDCHAR
STARTCHAR uni364C
ENCODING 13900
BBX 15 16 0 -2
BITMAP
1020
1020
11FC
1024
13FE
FC24
11FC
1020
1124
1124
1174
1DAC
E124
4124
0224
0424
ENDCHAR
STARTCHAR uni364D
ENCODING 13901
BBX 15 16 0 -2
BITMAP
2000
27BC
2084
2294
2108
FA94
24A4
2840
2000
27BC
20A4
3AA4
E128
4290
04A8
0846
ENDCHAR
STARTCHAR uni364E
ENCODING 13902
BBX 15 16 0 -2
BITMAP
2014
2012
27FE
2410
F410
27F0
2492
2492
27D2
2554
3554
E488
454A
0A1A
0826
1042
ENDCHAR
STARTCHAR uni364F
ENCODING 13903
BBX 15 16 0 -2
BITMAP
1100
1100
11FE
1200
15FC
FD04
11FC
1104
11FC
1080
10FC
1D08
E290
4060
0198
0606
ENDCHAR
STARTCHAR uni3650
ENCODING 13904
BBX 15 16 0 -2
BITMAP
1020
1124
1124
1124
11FC
FC00
13FE
1020
1040
11FC
1154
1D54
E154
4154
0154
010C
ENDCHAR
STARTCHAR uni3651
ENCODING 13905
BBX 15 16 0 -2
BITMAP
00F0
3F00
0100
1FF0
1110
1FF0
0100
7FFC
4124
41F4
5E14
4008
0100
3FF8
0100
FFFE
ENDCHAR
STARTCHAR uni3652
ENCODING 13906
BBX 15 15 0 -1
BITMAP
00F8
7E08
4A50
4A20
7EFC
4A24
4A28
7E20
00A0
0140
0100
3FF8
0100
0100
FFFE
ENDCHAR
STARTCHAR uni3653
ENCODING 13907
BBX 15 15 0 -1
BITMAP
0100
0100
3FF8
0100
FFFE
0820
3EF8
0820
0E20
78FC
0100
3FF8
0100
0100
FFFE
ENDCHAR
STARTCHAR uni3654
ENCODING 13908
BBX 15 16 0 -2
BITMAP
1040
1040
11FC
1084
13FE
FC00
11FC
1104
11FC
1020
13FE
1C20
E220
43FE
0020
0020
ENDCHAR
STARTCHAR uni3655
ENCODING 13909
BBX 15 16 0 -2
BITMAP
2000
23FE
2222
23FE
2222
FBFE
2000
21FC
2104
21FC
2104
39FC
E104
4104
0114
0108
ENDCHAR
STARTCHAR uni3656
ENCODING 13910
BBX 15 16 0 -2
BITMAP
1004
101E
13E0
1020
11FC
FD24
1124
11FC
1020
13FE
1222
1E2A
E2FA
4202
020A
0204
ENDCHAR
STARTCHAR uni3657
ENCODING 13911
BBX 15 16 0 -2
BITMAP
2000
23F8
2248
2248
23F8
FA48
2248
23F8
2000
27FE
2240
3A44
E228
4290
0308
0206
ENDCHAR
STARTCHAR uni3658
ENCODING 13912
BBX 15 16 0 -2
BITMAP
2000
23FE
2050
2050
23FE
FA52
2252
23FE
2000
2040
27FE
3888
E190
4060
00D8
0304
ENDCHAR
STARTCHAR uni3659
ENCODING 13913
BBX 15 16 0 -2
BITMAP
2120
1110
97FE
4128
4934
0928
1132
E124
223A
2262
259E
0100
3FF8
0100
0100
FFFE
ENDCHAR
STARTCHAR uni365A
ENCODING 13914
BBX 15 16 0 -2
BITMAP
1088
1050
13FE
1020
11FC
FC20
13FE
1000
10A0
10FC
1120
1C20
E3FE
4020
0020
0020
ENDCHAR
STARTCHAR uni365B
ENCODING 13915
BBX 15 16 0 -2
BITMAP
1028
1024
13FE
1020
11FC
FD24
11FC
1124
11FC
1124
1C08
E3FE
4088
0048
0048
0018
ENDCHAR
STARTCHAR uni365C
ENCODING 13916
BBX 15 16 0 -2
BITMAP
0100
FFFE
0000
1FF0
1010
1FF0
0000
7FFC
4004
4FE4
4824
4FEC
0100
3FF8
0100
FFFE
ENDCHAR
STARTCHAR uni365D
ENCODING 13917
BBX 15 16 0 -2
BITMAP
2040
21FC
2044
2094
2108
FBDE
214A
214A
2294
21FC
2104
39FC
E104
41FC
0104
010C
ENDCHAR
STARTCHAR uni365E
ENCODING 13918
BBX 15 16 0 -2
BITMAP
1020
1040
11FC
1104
11FC
FD04
11FC
1104
11FC
1020
13FE
1C70
E0A8
4124
0222
0020
ENDCHAR
STARTCHAR uni365F
ENCODING 13919
BBX 15 16 0 -2
BITMAP
2100
209E
23D2
2252
2252
FBDE
2252
2252
23D2
221E
2292
3A52
E2D2
4352
022A
0044
ENDCHAR
STARTCHAR uni3660
ENCODING 13920
BBX 15 15 0 -1
BITMAP
7F78
4848
5F4C
6480
5F78
4448
4A48
5130
7F4C
0000
0100
3FF8
0100
0100
FFFE
ENDCHAR
STARTCHAR uni3661
ENCODING 13921
BBX 15 16 0 -2
BITMAP
2124
2124
2224
2424
2954
F94A
2292
2610
2A10
2250
225C
3A50
E250
42B0
029E
0300
ENDCHAR
STARTCHAR uni3662
ENCODING 13922
BBX 15 16 0 -2
BITMAP
2088
2088
23FE
2088
2088
F8F8
2020
23FE
2222
2332
22AA
3B76
E222
4222
022A
0224
ENDCHAR
STARTCHAR uni3663
ENCODING 13923
BBX 15 16 0 -2
BITMAP
2000
2F3E
2120
213C
F120
2F3C
2820
28FE
2850
2F52
3154
E148
4148
0144
0A62
0440
ENDCHAR
STARTCHAR uni3664
ENCODING 13924
BBX 15 16 0 -2
BITMAP
2040
207C
2040
23FE
2242
FA78
23C4
223C
2208
22F0
2324
3AA8
E5FE
4420
08A0
0040
ENDCHAR
STARTCHAR uni3665
ENCODING 13925
BBX 15 16 0 -2
BITMAP
2080
2040
27FC
2110
FA48
2484
2120
23F0
2010
2088
2150
3B20
E510
4948
0186
0100
ENDCHAR
STARTCHAR uni3666
ENCODING 13926
BBX 15 15 0 -1
BITMAP
0808
1448
2228
5C88
8848
7F0E
08F8
2A08
4908
1808
0100
3FF8
0100
0100
FFFE
ENDCHAR
STARTCHAR uni3667
ENCODING 13927
BBX 15 16 0 -2
BITMAP
2000
23FE
2050
23DE
2252
FA52
23DE
2050
23FE
2222
2222
3BFE
E222
4222
03FE
0202
ENDCHAR
STARTCHAR uni3668
ENCODING 13928
BBX 15 16 0 -2
BITMAP
2248
2248
2554
275C
2248
FD54
275C
2248
2FFE
2220
2228
3A28
E514
4494
042C
0844
ENDCHAR
STARTCHAR uni3669
ENCODING 13929
BBX 15 16 0 -2
BITMAP
2040
2040
27FC
20A0
2514
FA08
27FC
2A0A
23F8
2208
23F8
3840
E248
4444
0944
0080
ENDCHAR
STARTCHAR uni366A
ENCODING 13930
BBX 15 15 0 -1
BITMAP
2020
23FE
2020
21FC
2000
FBFE
2202
21FC
2000
21FC
2104
39FC
E104
4088
03FE
ENDCHAR
STARTCHAR uni366B
ENCODING 13931
BBX 15 16 0 -2
BITMAP
10A0
1090
11FE
1320
11FC
FD20
11FC
1120
11FE
1100
1C20
E3FE
4070
00A8
0326
0020
ENDCHAR
STARTCHAR uni366C
ENCODING 13932
BBX 15 15 0 -1
BITMAP
0814
0812
7F10
2AFE
2A10
5D10
1C28
2A28
4944
8882
0100
3FF8
0100
0100
FFFE
ENDCHAR
STARTCHAR uni366D
ENCODING 13933
BBX 15 16 0 -2
BITMAP
2000
2FFE
2800
2A28
F948
2BEE
2892
2884
2AA0
2AA8
3BE8
E888
4894
0914
0924
1242
ENDCHAR
STARTCHAR uni366E
ENCODING 13934
BBX 15 16 0 -2
BITMAP
2210
2210
23DE
2228
2544
F8A0
2110
2208
25F6
2000
2000
3BF8
E208
4208
03F8
0208
ENDCHAR
STARTCHAR uni366F
ENCODING 13935
BBX 15 16 0 -2
BITMAP
0820
3E20
08F8
7F28
2228
496A
3E2A
0856
7E82
0000
3FF8
0000
FFFE
0820
1010
3FF8
ENDCHAR
STARTCHAR uni3670
ENCODING 13936
BBX 15 16 0 -2
BITMAP
1000
1EFC
2224
7F44
A99C
3F50
297C
3F90
29FE
2910
4510
8210
0100
3FF8
0100
FFFE
ENDCHAR
STARTCHAR uni3671
ENCODING 13937
BBX 15 16 0 -2
BITMAP
0020
7C3C
4420
7DFE
0122
FD38
41E4
7D1C
0570
2A54
148C
0100
3FF8
0100
0100
FFFE
ENDCHAR
STARTCHAR uni3672
ENCODING 13938
BBX 15 16 0 -2
BITMAP
2040
2020
27FE
2028
2224
F27E
24C8
2748
217E
2248
24C8
377E
E148
4248
047E
0840
ENDCHAR
STARTCHAR uni3673
ENCODING 13939
BBX 15 15 0 -1
BITMAP
2014
2012
27FE
2410
F5D0
2414
25D4
2558
25CA
2416
3442
E824
42A2
028A
0478
ENDCHAR
STARTCHAR uni3674
ENCODING 13940
BBX 15 16 0 -2
BITMAP
2100
21F8
2208
27FE
2288
FB24
23FE
2200
22FC
2200
22FC
3A00
E2FC
4484
04FC
0884
ENDCHAR
STARTCHAR uni3675
ENCODING 13941
BBX 15 16 0 -2
BITMAP
1020
13FE
1000
10F8
1088
FCF8
1000
13FE
1202
12FA
128A
1EFA
E226
41F8
0020
03FE
ENDCHAR
STARTCHAR uni3676
ENCODING 13942
BBX 15 16 0 -2
BITMAP
0100
FFFE
1010
1FF0
0000
1110
0920
7FFE
4002
9FF4
1010
1FF0
0100
3FF8
0100
FFFE
ENDCHAR
STARTCHAR uni3677
ENCODING 13943
BBX 15 16 0 -2
BITMAP
2000
23FE
2202
23FE
2202
FBFE
2108
2252
239C
2108
2252
3BDE
E000
42A4
0252
0452
ENDCHAR
STARTCHAR uni3678
ENCODING 13944
BBX 15 16 0 -2
BITMAP
2128
21AA
216C
2228
FAFE
2644
2628
2AFE
2210
227C
2210
3AFE
E210
4228
0244
0282
ENDCHAR
STARTCHAR uni3679
ENCODING 13945
BBX 15 16 0 -2
BITMAP
2088
2088
23FE
2088
23FE
FA52
23FE
2000
23FE
2242
20F8
3908
E290
4060
00C0
0700
ENDCHAR
STARTCHAR uni367A
ENCODING 13946
BBX 15 16 0 -2
BITMAP
27FE
2420
25FC
2524
25FC
FC20
27FE
2504
25FC
2504
25FC
3D04
E5FC
4488
0504
07FE
ENDCHAR
STARTCHAR uni367B
ENCODING 13947
BBX 15 16 0 -2
BITMAP
2020
27FE
2400
25FC
2524
F5FC
2524
25FC
2420
25FC
2420
37FE
E524
4AFA
0820
13FE
ENDCHAR
STARTCHAR uni367C
ENCODING 13948
BBX 15 16 0 -2
BITMAP
23F8
2248
2248
23F8
2248
FA48
23F8
2000
2FBE
2AAA
2AAA
3FBE
EAAA
4AAA
0FBE
08A2
ENDCHAR
STARTCHAR uni367D
ENCODING 13949
BBX 15 16 0 -2
BITMAP
2020
2020
27FE
2020
23AE
F924
23AE
22AA
23AE
22AA
23AE
3850
E050
4088
0104
0602
ENDCHAR
STARTCHAR uni367E
ENCODING 13950
BBX 15 16 0 -2
BITMAP
22A0
244C
24A4
260C
F4A4
264C
24A4
2FFE
2802
23F0
3020
E040
47FC
0040
0140
0080
ENDCHAR
STARTCHAR uni367F
ENCODING 13951
BBX 15 16 0 -2
BITMAP
2110
27FC
2040
23F8
2040
F7FC
2000
23D4
2112
27FE
2350
3534
E78C
42CA
0456
08C2
ENDCHAR
STARTCHAR uni3680
ENCODING 13952
BBX 15 16 0 -2
BITMAP
2108
21EC
210A
27E8
F528
25DE
2728
24EA
240A
27EA
340C
E7EC
4A2A
0BEA
1156
07E2
ENDCHAR
STARTCHAR uni3681
ENCODING 13953
BBX 15 16 0 -2
BITMAP
1010
1010
7C7C
1010
FEFE
4444
EEEE
4444
6464
DEDE
0000
FEFE
2828
2A28
4C4A
8886
ENDCHAR
STARTCHAR uni3682
ENCODING 13954
BBX 15 16 0 -2
BITMAP
2040
27FC
2248
23F8
F040
2FFE
2AAA
23B8
2110
27FC
3110
EFFE
4128
0310
0D48
0186
ENDCHAR
STARTCHAR uni3683
ENCODING 13955
BBX 15 16 0 -2
BITMAP
0100
0100
7FFC
0100
1FF0
0000
7FFE
4002
8444
2388
2448
2008
3FF8
0820
0440
7FFC
ENDCHAR
STARTCHAR uni3684
ENCODING 13956
BBX 15 16 0 -2
BITMAP
0100
7FFC
0100
1FF0
0000
7FFE
5112
9FF4
1110
1FF0
0000
7FFC
0104
11F0
2900
47FE
ENDCHAR
STARTCHAR uni3685
ENCODING 13957
BBX 15 15 0 -1
BITMAP
0200
07E0
0820
1440
0380
1C70
E00E
1FF0
0100
1100
1FF8
2100
5FF0
0100
FFFE
ENDCHAR
STARTCHAR uni3686
ENCODING 13958
BBX 15 16 0 -2
BITMAP
0200
0100
FFFE
0000
1FF0
1010
1FF0
1010
1FF0
0800
0FF0
1420
2240
4180
0E60
701C
ENDCHAR
STARTCHAR uni3687
ENCODING 13959
BBX 15 16 0 -2
BITMAP
0440
2288
2108
2288
2448
3FF8
1210
2208
47E4
0820
1440
2280
0100
06C0
1830
E00E
ENDCHAR
STARTCHAR uni3688
ENCODING 13960
BBX 15 16 0 -2
BITMAP
1010
1010
1010
1E10
1210
2210
22FE
5210
8A10
0410
0410
0810
0810
1010
2010
4010
ENDCHAR
STARTCHAR uni3689
ENCODING 13961
BBX 13 15 1 -2
BITMAP
7FE0
1020
1040
1078
2408
2FC8
70A8
8B10
0D00
73F0
0C20
3240
0180
0600
7800
ENDCHAR
STARTCHAR uni368A
ENCODING 13962
BBX 15 16 0 -2
BITMAP
2020
2010
3C10
45FE
4820
A824
1044
28F8
4E12
1222
2444
5588
0810
1028
2044
C182
ENDCHAR
STARTCHAR uni368B
ENCODING 13963
BBX 14 16 0 -2
BITMAP
2000
21FC
3D24
4524
4974
A924
11FC
2904
4F74
1354
2554
5574
0904
1204
2214
C408
ENDCHAR
STARTCHAR uni368C
ENCODING 13964
BBX 15 16 0 -2
BITMAP
2000
21FC
3D24
4524
49FC
A924
1124
29FC
4E20
13FE
2470
54A8
0924
1222
2020
C020
ENDCHAR
STARTCHAR uni368D
ENCODING 13965
BBX 15 16 0 -2
BITMAP
2020
21FC
3D24
45FC
4820
ABFE
1000
29FC
4F04
13FC
2504
55FC
0904
11FC
2088
C104
ENDCHAR
STARTCHAR uni368E
ENCODING 13966
BBX 15 16 0 -2
BITMAP
0100
0100
7FFC
0280
0440
0820
3018
C006
0000
2008
2008
2008
2008
2008
3FF8
0008
ENDCHAR
STARTCHAR uni368F
ENCODING 13967
BBX 15 16 0 -2
BITMAP
0100
0100
7FFC
0280
0440
0820
3018
C006
0820
0820
7FFC
0820
0820
1020
1020
2020
ENDCHAR
STARTCHAR uni3690
ENCODING 13968
BBX 15 16 0 -2
BITMAP
0100
0100
7FFC
0100
02C0
0420
1810
6008
0100
0100
FFFE
0280
0440
0820
3018
C006
ENDCHAR
STARTCHAR uni3691
ENCODING 13969
BBX 15 15 0 -2
BITMAP
3FF8
0008
0008
1FF8
0008
0008
3FF8
0100
0100
FFFE
0280
0440
0820
3018
C006
ENDCHAR
STARTCHAR uni3692
ENCODING 13970
BBX 15 16 0 -2
BITMAP
0100
0100
0100
7FFC
0100
2120
1110
1110
2928
4544
0280
0280
0440
0820
3018
C006
ENDCHAR
STARTCHAR uni3693
ENCODING 13971
BBX 15 16 0 -2
BITMAP
0100
0100
7FFC
0280
0440
0820
3110
0100
7FFC
0380
0540
0920
3118
C106
0100
0100
ENDCHAR
STARTCHAR uni3694
ENCODING 13972
BBX 15 16 0 -2
BITMAP
0200
0200
7FFC
0440
0820
3018
C826
0440
3FF8
0100
0100
FFFE
0100
0100
0100
0100
ENDCHAR
STARTCHAR uni3695
ENCODING 13973
BBX 15 16 0 -2
BITMAP
0200
0200
7FFC
0440
0820
3458
C446
7FF8
0448
3FF8
2440
3FFC
0844
1054
2048
4040
ENDCHAR
STARTCHAR uni3696
ENCODING 13974
BBX 15 16 0 -2
BITMAP
0100
0200
1FF0
1010
1010
1FF0
1010
1010
1FF0
0100
0100
7FFC
0280
0440
1830
E00E
ENDCHAR
STARTCHAR uni3697
ENCODING 13975
BBX 15 15 0 -1
BITMAP
0200
0200
7FFC
0440
0820
3018
DFF6
1010
1010
1FF0
1010
1FF0
1010
1010
FFFE
ENDCHAR
STARTCHAR uni3698
ENCODING 13976
BBX 15 16 0 -2
BITMAP
1020
1020
1020
1020
7DFC
1020
1020
1020
FDFE
1020
1050
1050
2888
2488
4504
8202
ENDCHAR
STARTCHAR uni3699
ENCODING 13977
BBX 15 16 0 -2
BITMAP
1000
1000
7E7C
1244
1244
1244
227C
4A44
8500
0100
FFFE
0280
0440
0820
3018
C006
ENDCHAR
STARTCHAR uni369A
ENCODING 13978
BBX 15 16 0 -2
BITMAP
0200
0200
7FFC
0440
0820
3218
C7E6
0820
3440
0280
0300
1FF0
E810
0810
0FF0
0810
ENDCHAR
STARTCHAR uni369B
ENCODING 13979
BBX 15 16 0 -2
BITMAP
0200
0200
7FFC
0440
0820
38D8
CF06
0810
07F0
0000
1FF0
1010
1FF0
1010
1FF0
1010
ENDCHAR
STARTCHAR uni369C
ENCODING 13980
BBX 15 16 0 -2
BITMAP
0200
0200
7FFC
0440
0820
3098
C0A6
3FF8
0080
3E80
2248
3E50
0024
0E54
718C
0604
ENDCHAR
STARTCHAR uni369D
ENCODING 13981
BBX 15 16 0 -2
BITMAP
0200
0200
7FFC
0440
0820
3018
C806
0840
13F8
3040
57FC
9040
13F8
1040
17FC
1000
ENDCHAR
STARTCHAR uni369E
ENCODING 13982
BBX 15 16 0 -2
BITMAP
0200
0200
7FFC
0440
0820
3018
C826
0820
7EFC
0820
1C70
2A68
48A4
8922
0820
0820
ENDCHAR
STARTCHAR uni369F
ENCODING 13983
BBX 15 16 0 -2
BITMAP
0800
1FC0
2080
7FF0
A010
3FF0
2088
3CF4
2084
3D7C
0100
7FFC
0280
0440
1830
E00E
ENDCHAR
STARTCHAR uni36A0
ENCODING 13984
BBX 15 16 0 -2
BITMAP
0200
0200
7FFC
0440
0820
3458
C286
3FF8
0100
1FF0
0100
7FFC
0000
2488
2244
4244
ENDCHAR
STARTCHAR uni36A1
ENCODING 13985
BBX 15 16 0 -2
BITMAP
1010
1010
FEFE
1010
2828
4444
FEFE
0404
7474
5454
5454
7474
5454
0404
1414
0808
ENDCHAR
STARTCHAR uni36A2
ENCODING 13986
BBX 15 16 0 -2
BITMAP
1080
1080
1080
2080
2FFE
6108
6108
A208
2210
2610
21A0
2040
20A0
2110
2208
2C04
ENDCHAR
STARTCHAR uni36A3
ENCODING 13987
BBX 15 16 0 -2
BITMAP
0200
0200
FFFE
0840
1C80
0380
0470
1808
6200
0200
FFFE
0820
1C40
0380
0C70
7008
ENDCHAR
STARTCHAR uni36A4
ENCODING 13988
BBX 15 16 0 -2
BITMAP
1048
1044
1044
1040
FE4E
23F0
2240
2240
4240
2440
1420
0822
1412
220A
4206
8002
ENDCHAR
STARTCHAR uni36A5
ENCODING 13989
BBX 15 16 0 -2
BITMAP
1000
11FC
1020
1020
FC20
2420
2420
27FE
2420
4820
2820
1020
2820
4420
84A0
0040
ENDCHAR
STARTCHAR uni36A6
ENCODING 13990
BBX 15 16 0 -2
BITMAP
1000
11FE
1048
1048
FC48
2448
2448
2448
2448
4848
2848
1048
2888
4488
8508
0208
ENDCHAR
STARTCHAR uni36A7
ENCODING 13991
BBX 15 16 0 -2
BITMAP
1020
1010
1010
10FE
FC80
2480
2480
2480
2480
4880
2880
1080
2880
4500
8500
0200
ENDCHAR
STARTCHAR uni36A8
ENCODING 13992
BBX 15 16 0 -2
BITMAP
1000
13F0
1090
1090
FC90
2490
2490
27F0
2490
4890
2890
1092
288A
448A
8486
0082
ENDCHAR
STARTCHAR uni36A9
ENCODING 13993
BBX 15 16 0 -2
BITMAP
1000
10FC
1084
1084
FC84
25FE
2484
2484
2484
49FE
2884
1084
2884
4484
8494
0088
ENDCHAR
STARTCHAR uni36AA
ENCODING 13994
BBX 15 16 0 -2
BITMAP
1008
103C
11E0
1020
FC20
243C
25E0
2420
2420
483E
2BE0
1020
2822
4422
8422
001E
ENDCHAR
STARTCHAR uni36AB
ENCODING 13995
BBX 15 16 0 -2
BITMAP
2000
23FC
2084
2088
F888
4890
489C
4884
8944
4944
3128
1128
2A10
4A28
8444
0182
ENDCHAR
STARTCHAR uni36AC
ENCODING 13996
BBX 14 16 0 -2
BITMAP
1040
1040
1080
10FC
FD04
2604
2484
2444
2444
4814
2824
1044
2984
4404
8428
0010
ENDCHAR
STARTCHAR uni36AD
ENCODING 13997
BBX 15 16 0 -2
BITMAP
1040
1050
1048
1048
FC40
25FE
2450
2450
2450
4850
2890
1090
2892
4512
850E
0200
ENDCHAR
STARTCHAR uni36AE
ENCODING 13998
BBX 15 16 0 -2
BITMAP
1000
1000
11FE
1102
FD02
2400
2478
2448
2448
4848
2848
104A
284A
448A
8486
0100
ENDCHAR
STARTCHAR uni36AF
ENCODING 13999
BBX 15 16 0 -2
BITMAP
2000
23F8
2208
2208
FB28
4AA8
4AA8
4A48
8A48
4AA8
32A8
132A
2C0A
440A
8806
1002
ENDCHAR
STARTCHAR uni36B0
ENCODING 14000
BBX 15 15 0 -1
BITMAP
1000
11FE
1010
1010
FC20
2420
2468
24A4
2522
4A22
2820
1020
2820
4400
83FE
ENDCHAR
STARTCHAR uni36B1
ENCODING 14001
BBX 15 15 0 -1
BITMAP
1008
101C
10E0
1080
FC80
2480
2480
24FE
2488
4888
2888
1088
2888
4488
85FE
ENDCHAR
STARTCHAR uni36B2
ENCODING 14002
BBX 15 16 0 -2
BITMAP
1020
1020
1020
1020
FC3E
2420
2420
2420
25FC
4904
2904
1104
2904
4504
85FC
0104
ENDCHAR
STARTCHAR uni36B3
ENCODING 14003
BBX 14 16 0 -2
BITMAP
2100
2100
2100
211C
FBD4
4954
4954
4954
8954
4954
3154
1154
2954
4A5C
8354
0480
ENDCHAR
STARTCHAR uni36B4
ENCODING 14004
BBX 15 16 0 -2
BITMAP
2040
2040
2040
23FE
F880
48A0
4920
49FC
8B24
4D24
3124
1124
2934
4928
8020
0020
ENDCHAR
STARTCHAR uni36B5
ENCODING 14005
BBX 15 16 0 -2
BITMAP
1040
1040
107C
1084
FD88
2650
2420
2450
2488
4B06
2860
1010
2808
44C0
8420
0010
ENDCHAR
STARTCHAR uni36B6
ENCODING 14006
BBX 14 16 0 -2
BITMAP
1000
11F8
1108
1108
FD08
2508
25F8
2500
2500
49FC
2904
1104
2904
4504
85FC
0104
ENDCHAR
STARTCHAR uni36B7
ENCODING 14007
BBX 15 16 0 -2
BITMAP
2020
2020
2050
2050
F888
4904
4A22
4820
48A8
90A4
5124
2122
3222
4820
48A0
8040
ENDCHAR
STARTCHAR uni36B8
ENCODING 14008
BBX 14 16 0 -2
BITMAP
1000
11FC
1004
1004
FDF4
2404
2404
25F4
2514
4914
29F4
1114
2804
4404
8428
0010
ENDCHAR
STARTCHAR uni36B9
ENCODING 14009
BBX 15 16 0 -2
BITMAP
2000
2080
231E
2252
FA52
4A52
4A52
4A52
4A52
92D2
535A
2254
3090
4890
4910
8210
ENDCHAR
STARTCHAR uni36BA
ENCODING 14010
BBX 15 16 0 -2
BITMAP
1000
11FC
1044
1048
FC8E
2482
257A
2614
2420
4820
2BFE
1020
2820
4420
84A0
0040
ENDCHAR
STARTCHAR uni36BB
ENCODING 14011
BBX 15 15 0 -2
BITMAP
3FF8
2108
2108
3FF8
2108
2108
3FF8
0400
0400
FFFE
0820
1C40
0380
0C70
3008
ENDCHAR
STARTCHAR uni36BC
ENCODING 14012
BBX 14 16 0 -2
BITMAP
1000
1000
11FC
1124
FD24
2524
2524
2524
25FC
4924
2924
1124
2924
4524
85FC
0104
ENDCHAR
STARTCHAR uni36BD
ENCODING 14013
BBX 15 15 0 -2
BITMAP
7DFE
1040
1080
11FC
1004
1E04
E004
4228
0210
FFFE
0820
1C40
0380
0C70
7008
ENDCHAR
STARTCHAR uni36BE
ENCODING 14014
BBX 15 16 0 -2
BITMAP
1000
11FC
1104
1104
FD04
2504
25FC
2450
2450
4850
2850
1092
2892
4512
820E
0400
ENDCHAR
STARTCHAR uni36BF
ENCODING 14015
BBX 15 15 0 -1
BITMAP
1040
1040
10FC
1084
FD04
26F4
2494
2494
24F4
4884
2894
1088
2882
4482
847E
ENDCHAR
STARTCHAR uni36C0
ENCODING 14016
BBX 14 16 0 -2
BITMAP
1080
1080
10F8
1108
FE10
2420
25FC
2404
2404
4804
29FC
1004
2804
4404
85FC
0004
ENDCHAR
STARTCHAR uni36C1
ENCODING 14017
BBX 15 16 0 -2
BITMAP
1000
11FC
1020
1020
FD24
24A4
24A8
2420
27FE
4820
2820
1020
2820
4420
8420
0020
ENDCHAR
STARTCHAR uni36C2
ENCODING 14018
BBX 15 16 0 -2
BITMAP
1008
101C
11E0
1100
FD00
257C
2554
2554
2554
4954
297C
1140
2940
4642
8242
043E
ENDCHAR
STARTCHAR uni36C3
ENCODING 14019
BBX 15 16 0 -2
BITMAP
0800
0800
7F7C
0824
3E24
0824
7F44
0854
0A88
0200
FFFE
0820
1C40
0380
0C70
7008
ENDCHAR
STARTCHAR uni36C4
ENCODING 14020
BBX 15 16 0 -2
BITMAP
1040
1020
1020
11FE
FC40
2440
24A0
24A2
25A4
4A98
2C90
1088
2888
44A4
84C2
0080
ENDCHAR
STARTCHAR uni36C5
ENCODING 14021
BBX 15 16 0 -2
BITMAP
1000
13FE
1088
1088
FCF8
2488
2488
24F8
2488
4888
288E
13F8
2808
4408
8408
0008
ENDCHAR
STARTCHAR uni36C6
ENCODING 14022
BBX 15 16 0 -2
BITMAP
1000
11FC
1044
1048
FC5E
2482
248A
2524
2420
4BFE
2820
1070
28A8
4524
8222
0020
ENDCHAR
STARTCHAR uni36C7
ENCODING 14023
BBX 15 16 0 -2
BITMAP
1020
1010
1010
11FE
FD00
2510
2510
2510
257C
4910
2910
1110
2910
4610
82FE
0400
ENDCHAR
STARTCHAR uni36C8
ENCODING 14024
BBX 15 16 0 -2
BITMAP
1040
1044
11F4
1048
FC50
25FE
2440
2480
25FE
4A40
2C80
10FC
2804
4404
8428
0010
ENDCHAR
STARTCHAR uni36C9
ENCODING 14025
BBX 15 16 0 -2
BITMAP
1000
13FE
1050
1050
FDFC
2554
2554
2554
2554
4954
298C
1104
2904
4504
85FC
0104
ENDCHAR
STARTCHAR uni36CA
ENCODING 14026
BBX 15 16 0 -2
BITMAP
1000
10F8
1088
1088
FC88
2488
2526
2620
25FE
4820
2870
10A8
2924
4622
8420
0020
ENDCHAR
STARTCHAR uni36CB
ENCODING 14027
BBX 15 16 0 -2
BITMAP
2040
2040
20A0
20A0
F910
4A48
4C46
4840
4944
9152
524A
244A
3048
4840
4940
8080
ENDCHAR
STARTCHAR uni36CC
ENCODING 14028
BBX 15 16 0 -2
BITMAP
2040
2040
2090
2108
FBFC
4824
4920
4920
49FC
9220
5020
27FE
3020
4820
4820
8020
ENDCHAR
STARTCHAR uni36CD
ENCODING 14029
BBX 15 16 0 -2
BITMAP
1020
1020
1020
13FE
FC20
2420
2524
2524
2524
4AAA
2820
1050
2850
4488
8104
0202
ENDCHAR
STARTCHAR uni36CE
ENCODING 14030
BBX 15 16 0 -2
BITMAP
1000
10FC
1084
1084
FC84
2484
24FC
2400
2400
49FE
2902
1102
2902
4502
85FE
0102
ENDCHAR
STARTCHAR uni36CF
ENCODING 14031
BBX 15 16 0 -2
BITMAP
1028
1024
1024
1020
FDFE
2420
2520
24B2
24B4
4868
28A8
1124
2A22
4420
84A0
0040
ENDCHAR
STARTCHAR uni36D0
ENCODING 14032
BBX 15 16 0 -2
BITMAP
1000
13FE
1020
1020
FDFC
2524
2524
25FC
2524
4924
29FC
1120
28A0
4440
80B0
030E
ENDCHAR
STARTCHAR uni36D1
ENCODING 14033
BBX 15 16 0 -2
BITMAP
0800
0F7C
2844
3F44
6128
9210
0C68
3186
C000
0400
FFFE
0820
1C40
0380
0C70
7008
ENDCHAR
STARTCHAR uni36D2
ENCODING 14034
BBX 15 15 0 -1
BITMAP
1000
11FE
1000
1000
FCFC
2484
2484
2484
24FC
4800
2884
1044
2848
4400
85FE
ENDCHAR
STARTCHAR uni36D3
ENCODING 14035
BBX 15 16 0 -2
BITMAP
2184
2068
2030
20C8
FB04
4840
4BFE
48A0
4920
93FC
5524
2124
3134
4928
4820
8020
ENDCHAR
STARTCHAR uni36D4
ENCODING 14036
BBX 15 16 0 -2
BITMAP
1040
1040
10FC
1088
FD50
2420
24D8
2726
24F8
4820
28F8
1020
2BFE
4420
8020
0020
ENDCHAR
STARTCHAR uni36D5
ENCODING 14037
BBX 15 16 0 -2
BITMAP
1000
10F8
1088
1088
FCF8
2400
25FC
2524
2524
4924
29FC
1100
2900
4502
8502
00FE
ENDCHAR
STARTCHAR uni36D6
ENCODING 14038
BBX 15 16 0 -2
BITMAP
2040
2040
2088
2104
FBFE
4802
4888
4944
8A42
48F8
3188
1250
2820
4850
8188
0606
ENDCHAR
STARTCHAR uni36D7
ENCODING 14039
BBX 15 15 0 -1
BITMAP
1020
1020
10A8
10A8
FCA8
2574
2622
2420
2420
49FC
2820
1020
2820
4420
83FE
ENDCHAR
STARTCHAR uni36D8
ENCODING 14040
BBX 15 16 0 -2
BITMAP
2020
2020
23FE
2020
F820
4BFE
4A02
4C04
49F8
9010
5020
23FE
3020
4820
48A0
8040
ENDCHAR
STARTCHAR uni36D9
ENCODING 14041
BBX 15 16 0 -2
BITMAP
1040
1020
11FC
1000
FC88
2450
27FE
2420
2420
4820
29FC
1020
2820
4420
8420
0020
ENDCHAR
STARTCHAR uni36DA
ENCODING 14042
BBX 14 16 0 -2
BITMAP
1000
11F8
1008
10D0
FC20
25FC
2524
2524
25FC
4924
2924
11FC
2924
4524
8524
010C
ENDCHAR
STARTCHAR uni36DB
ENCODING 14043
BBX 15 16 0 -2
BITMAP
1040
1080
11F8
1108
FDF8
2508
25FA
250A
250C
4BF8
2818
1028
2848
4588
8628
0010
ENDCHAR
STARTCHAR uni36DC
ENCODING 14044
BBX 15 16 0 -2
BITMAP
1040
1040
24FE
6488
A548
2450
2420
2450
228C
0200
FFFE
0820
1C40
0380
0C70
7008
ENDCHAR
STARTCHAR uni36DD
ENCODING 14045
BBX 15 16 0 -2
BITMAP
1000
11FC
1104
1104
FDFC
2504
2504
25FC
2504
4904
29FC
1000
2888
4484
8102
0202
ENDCHAR
STARTCHAR uni36DE
ENCODING 14046
BBX 15 16 0 -2
BITMAP
1000
13FE
1020
1020
FDFC
2420
2420
27FE
2488
4888
2BFE
1088
2888
4508
8108
0208
ENDCHAR
STARTCHAR uni36DF
ENCODING 14047
BBX 15 16 0 -2
BITMAP
1080
1080
10F8
1108
FE10
25FC
2524
2524
2524
4924
2BFE
1050
2850
4488
8104
0602
ENDCHAR
STARTCHAR uni36E0
ENCODING 14048
BBX 15 16 0 -2
BITMAP
2100
20BE
2282
2202
FA02
4AFA
4A8A
4A8A
4AFA
928A
528A
22FA
3202
4A02
4A0A
8204
ENDCHAR
STARTCHAR uni36E1
ENCODING 14049
BBX 15 16 0 -2
BITMAP
1040
1020
13FE
1202
FC04
25F8
2400
2400
27FE
4890
2890
1090
2912
4512
820E
0400
ENDCHAR
STARTCHAR uni36E2
ENCODING 14050
BBX 15 16 0 -2
BITMAP
201C
21E0
2020
2020
FBFE
48A8
4924
4A22
89F8
4888
3090
10BE
2902
4902
8214
0408
ENDCHAR
STARTCHAR uni36E3
ENCODING 14051
BBX 14 16 0 -2
BITMAP
1000
10F8
1088
1088
FCF8
2400
25FC
2504
2524
4924
2924
1124
2850
4448
8084
0304
ENDCHAR
STARTCHAR uni36E4
ENCODING 14052
BBX 15 16 0 -2
BITMAP
2000
23FE
2000
2000
FBDE
4A52
4A52
4A52
4B5A
92D6
5252
2252
3252
4A52
4A52
82D6
ENDCHAR
STARTCHAR uni36E5
ENCODING 14053
BBX 15 16 0 -2
BITMAP
1020
1022
13B4
10A8
FCA8
2524
26A2
2440
25FC
4904
2904
11FC
2904
4504
85FC
0104
ENDCHAR
STARTCHAR uni36E6
ENCODING 14054
BBX 15 16 0 -2
BITMAP
2110
2110
2110
2110
F7BC
5110
5110
5338
53B8
9554
5554
2992
2110
5110
5110
8110
ENDCHAR
STARTCHAR uni36E7
ENCODING 14055
BBX 15 16 0 -2
BITMAP
1020
1124
1124
1124
FDFC
2400
2400
27FE
2440
4880
28FC
1184
2A84
4484
84FC
0084
ENDCHAR
STARTCHAR uni36E8
ENCODING 14056
BBX 15 16 0 -2
BITMAP
2108
2088
2090
23FC
F840
4840
4BF8
4840
8840
4FFE
30A0
10A0
2920
4922
8222
041E
ENDCHAR
STARTCHAR uni36E9
ENCODING 14057
BBX 15 16 0 -2
BITMAP
1040
1020
13FE
1080
FD04
27FE
2402
25FC
2504
49FC
2904
11FC
2904
4504
8514
0108
ENDCHAR
STARTCHAR uni36EA
ENCODING 14058
BBX 15 15 0 -1
BITMAP
1020
1020
13FE
1050
FC88
2524
2622
25FC
2524
49FC
2924
11FC
2822
4422
841E
ENDCHAR
STARTCHAR uni36EB
ENCODING 14059
BBX 15 16 0 -2
BITMAP
1000
10FC
1084
1084
FCFC
2484
2484
24FC
2440
48FE
292A
124A
2892
4522
844A
0084
ENDCHAR
STARTCHAR uni36EC
ENCODING 14060
BBX 15 16 0 -2
BITMAP
2020
2020
21FC
2020
F820
4BFE
4888
4904
4A22
9020
51FC
2020
3020
4820
4BFE
8000
ENDCHAR
STARTCHAR uni36ED
ENCODING 14061
BBX 15 16 0 -2
BITMAP
1088
1088
1088
13FE
FC88
2488
27FE
2400
25FC
4904
2904
11FC
2904
4504
85FC
0104
ENDCHAR
STARTCHAR uni36EE
ENCODING 14062
BBX 15 16 0 -2
BITMAP
1040
1020
13FE
1222
FCA4
2528
2450
2488
2504
48F8
2888
1088
2850
4420
80D8
0306
ENDCHAR
STARTCHAR uni36EF
ENCODING 14063
BBX 15 16 0 -2
BITMAP
2210
2210
2390
24BC
F914
57D4
5554
5554
5554
97D4
52A4
22AC
22C2
5482
547E
8800
ENDCHAR
STARTCHAR uni36F0
ENCODING 14064
BBX 15 16 0 -2
BITMAP
1000
11FC
1104
11FC
FD10
25FE
2510
254A
2586
4800
29FC
1104
29FC
4504
85FC
0104
ENDCHAR
STARTCHAR uni36F1
ENCODING 14065
BBX 15 16 0 -2
BITMAP
1000
11FC
1124
1124
FDFC
2524
2524
25FC
2400
4BFE
2920
1122
2914
4548
8584
0102
ENDCHAR
STARTCHAR uni36F2
ENCODING 14066
BBX 15 16 0 -2
BITMAP
1000
13FE
1020
1040
FDFC
2504
2504
25FC
2504
49FC
2904
1104
29FC
4400
8488
0104
ENDCHAR
STARTCHAR uni36F3
ENCODING 14067
BBX 15 16 0 -2
BITMAP
0100
7FFC
0820
0440
7FFC
4104
1FF0
1110
1150
1120
0200
FFFE
0820
1C40
03C0
3C38
ENDCHAR
STARTCHAR uni36F4
ENCODING 14068
BBX 15 16 0 -2
BITMAP
2092
2124
2248
2124
F892
4840
4880
4BFE
4A02
928A
5252
2222
3252
4A8A
4BFE
8202
ENDCHAR
STARTCHAR uni36F5
ENCODING 14069
BBX 15 16 0 -2
BITMAP
101E
13E0
1044
1124
FC88
2420
25FC
2524
2524
49FC
2924
1124
2BFE
4504
8514
0108
ENDCHAR
STARTCHAR uni36F6
ENCODING 14070
BBX 15 16 0 -2
BITMAP
1020
1124
1124
1124
FDFC
2480
2480
27FE
2490
4910
2952
1254
2AA8
4428
8844
0082
ENDCHAR
STARTCHAR uni36F7
ENCODING 14071
BBX 15 16 0 -2
BITMAP
0C48
7044
13FE
FC50
3050
5892
9492
110E
1200
0200
FFFE
0820
1C40
0380
0C70
7008
ENDCHAR
STARTCHAR uni36F8
ENCODING 14072
BBX 15 16 0 -2
BITMAP
1020
1020
13FE
1020
FC20
25FC
2400
2400
25FC
4904
2904
11FC
2800
4488
8450
03FE
ENDCHAR
STARTCHAR uni36F9
ENCODING 14073
BBX 15 16 0 -2
BITMAP
2100
21FE
2110
2210
FAFE
4A92
4E92
4AFE
4A92
9292
52FE
2290
3250
4A20
4A58
8286
ENDCHAR
STARTCHAR uni36FA
ENCODING 14074
BBX 15 16 0 -2
BITMAP
1040
1020
13FE
1000
FD04
2488
27FE
2400
25FC
4904
2904
11FC
2904
4504
85FC
0104
ENDCHAR
STARTCHAR uni36FB
ENCODING 14075
BBX 15 16 0 -2
BITMAP
2020
2020
23FE
2050
F888
4B26
49FC
4820
4820
93FE
5000
2020
31FC
4820
4820
83FE
ENDCHAR
STARTCHAR uni36FC
ENCODING 14076
BBX 15 16 0 -2
BITMAP
1008
103C
11E0
1020
FC20
27FE
2420
24A0
252C
4924
2924
11AC
2924
4524
85FC
0104
ENDCHAR
STARTCHAR uni36FD
ENCODING 14077
BBX 15 16 0 -2
BITMAP
2040
2020
23FE
2202
F820
4924
48A8
4820
4BFE
9070
50A8
20A8
3124
4A22
4820
8020
ENDCHAR
STARTCHAR uni36FE
ENCODING 14078
BBX 15 16 0 -2
BITMAP
2008
200C
200A
23FE
FA08
4A08
4AE8
4A0A
4A0A
92EC
52AC
22A8
32EA
4A1A
4A26
8442
ENDCHAR
STARTCHAR uni36FF
ENCODING 14079
BBX 15 16 0 -2
BITMAP
20A8
20A8
23FE
20A8
F8A8
4800
4BFE
4A22
8820
49FC
3124
1124
2934
4928
8020
0020
ENDCHAR
STARTCHAR uni3700
ENCODING 14080
BBX 14 16 0 -2
BITMAP
2100
2100
213C
2124
FBA4
4924
493C
4BA4
4B64
9524
593C
2124
3124
4924
493C
8124
ENDCHAR
STARTCHAR uni3701
ENCODING 14081
BBX 15 15 0 -1
BITMAP
1020
1020
13FE
1070
FCA8
2524
2622
25FC
2504
49FC
2904
11FC
2904
4400
83FE
ENDCHAR
STARTCHAR uni3702
ENCODING 14082
BBX 15 16 0 -2
BITMAP
0808
7E08
08FE
FE08
0848
7E28
0808
0F28
F010
0400
FFFE
0820
1C40
0380
0C70
7008
ENDCHAR
STARTCHAR uni3703
ENCODING 14083
BBX 15 16 0 -2
BITMAP
2090
2088
20FE
2100
F900
4B3C
4D00
4900
493C
9100
5100
213C
3124
4924
493C
8124
ENDCHAR
STARTCHAR uni3704
ENCODING 14084
BBX 15 16 0 -2
BITMAP
2000
27FC
2404
2434
F5C4
5444
55F4
5554
5554
95F4
5444
2454
25F4
5494
5806
9002
ENDCHAR
STARTCHAR uni3705
ENCODING 14085
BBX 15 16 0 -2
BITMAP
1040
1020
13FE
1040
FC88
25F0
2420
2444
25FE
4802
29FC
1124
29FC
4524
85FC
0104
ENDCHAR
STARTCHAR uni3706
ENCODING 14086
BBX 15 15 0 -1
BITMAP
2010
2092
2452
2254
FA10
48FE
4810
4E38
8A54
4A92
3310
1210
2A10
4500
88FE
ENDCHAR
STARTCHAR uni3707
ENCODING 14087
BBX 15 16 0 -2
BITMAP
2020
2020
21FC
2020
FBFE
4820
49FC
4820
8BFE
4800
3040
1024
2AA2
4A8A
8488
0078
ENDCHAR
STARTCHAR uni3708
ENCODING 14088
BBX 15 16 0 -2
BITMAP
0020
7E7C
14C4
0838
FEC6
2A20
48FC
A844
128C
0200
FFFE
0820
1C40
0380
0C70
7008
ENDCHAR
STARTCHAR uni3709
ENCODING 14089
BBX 15 16 0 -2
BITMAP
2124
2248
2248
2124
FBF8
4A08
4BF8
4800
4BF8
9248
5248
23F8
3202
4A02
49FE
8000
ENDCHAR
STARTCHAR uni370A
ENCODING 14090
BBX 15 16 0 -2
BITMAP
2000
23FC
2204
2204
FBFC
4A48
4A48
4AFC
8A48
4A48
33FE
12A4
2AA8
4490
84C8
0886
ENDCHAR
STARTCHAR uni370B
ENCODING 14091
BBX 15 15 0 -1
BITMAP
2104
2084
2088
2000
FBFE
4800
4888
4904
8A02
49FC
3154
1154
2954
4954
87FE
ENDCHAR
STARTCHAR uni370C
ENCODING 14092
BBX 15 16 0 -2
BITMAP
1000
1078
FE48
1048
7C48
0086
FE00
82FC
7C44
1044
FC28
2428
6810
3028
4844
8582
ENDCHAR
STARTCHAR uni370D
ENCODING 14093
BBX 15 16 0 -2
BITMAP
1020
1010
11FE
1110
FD7C
2514
25FE
2514
257C
4910
297C
1144
2944
4644
827C
0444
ENDCHAR
STARTCHAR uni370E
ENCODING 14094
BBX 15 16 0 -2
BITMAP
101E
13E0
1122
1094
FC40
2488
25F0
2420
24C4
49FE
2822
1020
2BFE
4450
8488
0306
ENDCHAR
STARTCHAR uni370F
ENCODING 14095
BBX 15 16 0 -2
BITMAP
1000
10FC
1084
1084
FCFC
2400
25FE
2502
25FE
4902
29FE
1102
29FE
4448
8484
0102
ENDCHAR
STARTCHAR uni3710
ENCODING 14096
BBX 15 15 0 -1
BITMAP
1020
1124
1124
1124
FDFC
2400
27FE
2400
25FC
4904
2904
11FC
2888
4450
83FE
ENDCHAR
STARTCHAR uni3711
ENCODING 14097
BBX 15 16 0 -2
BITMAP
4048
2FFE
0040
87FC
5444
17FC
E444
27FC
2444
2000
0200
FFFE
0820
1C40
03C0
3C38
ENDCHAR
STARTCHAR uni3712
ENCODING 14098
BBX 15 16 0 -2
BITMAP
1040
119C
1104
1104
FDDC
2504
2504
25FC
2488
4888
2BFE
1088
2888
4488
8508
0208
ENDCHAR
STARTCHAR uni3713
ENCODING 14099
BBX 15 16 0 -2
BITMAP
1088
1088
13FE
1088
FC20
2450
2488
2504
26FA
4800
2800
11FC
2904
4504
85FC
0104
ENDCHAR
STARTCHAR uni3714
ENCODING 14100
BBX 15 16 0 -2
BITMAP
1080
1040
13FC
1108
FC90
27FE
2400
25F8
2508
4908
29F8
1090
2890
4512
8212
040E
ENDCHAR
STARTCHAR uni3715
ENCODING 14101
BBX 15 15 0 -1
BITMAP
2010
2010
22FE
2110
F97C
4854
487C
4B54
897C
4910
31FE
1110
2910
4A90
847E
ENDCHAR
STARTCHAR uni3716
ENCODING 14102
BBX 15 16 0 -2
BITMAP
2090
2090
27FE
2090
FBFC
4A94
4BFC
4A94
4BFC
9000
51F8
2108
31F8
4908
49F8
8108
ENDCHAR
STARTCHAR uni3717
ENCODING 14103
BBX 15 16 0 -2
BITMAP
2040
2088
21FC
2108
FA52
4BFE
4850
4988
4E26
90C0
5310
2064
3388
4830
48C0
8700
ENDCHAR
ENDFONT
